<svg data-name="Calque 1" xmlns="http://www.w3.org/2000/svg" viewBox="0 0 140 120"><path d="M93.34 105.22a.49.49 0 0 1 0 .12c0 3.08-10.46 5.59-23.35 5.59s-23.35-2.51-23.35-5.59a.32.32 0 0 1 0-.13s-.42-5 .68-6.36c-.85-2.43-.67-45.47-.67-45.47A19.65 19.65 0 0 1 66.3 33.72h7.38a19.67 19.67 0 0 1 19.66 19.67s.14 43.87-.67 45.63c1.14.92.67 6.2.67 6.2z" fill="#c0c4cd"/><ellipse cx="69.77" cy="20.64" rx="10" ry="9.22" fill="none" stroke="#ffa929" stroke-miterlimit="10" stroke-width="1.34"/><path d="M75.91 21.88v11.84c0 .71-2.74 1.3-6.14 1.3s-6.15-.59-6.15-1.3V21.88c0 .71 2.76 1.29 6.15 1.29s6.14-.58 6.14-1.29z" fill="#8a91a1"/><path d="M49.09 103.53v-1.44a.66.66 0 0 1 .9-.63 33.1 33.1 0 0 0 7.44 1.87.68.68 0 0 1 .57.67v1.53a.66.66 0 0 1-.76.66 32.25 32.25 0 0 1-7.77-2 .66.66 0 0 1-.38-.66zm41.96-1.45v1.37a.66.66 0 0 1-.42.62 42.55 42.55 0 0 1-7.33 2.07.67.67 0 0 1-.79-.66v-1.56a.67.67 0 0 1 .57-.67 32.46 32.46 0 0 0 7-1.79.67.67 0 0 1 .97.62zm-28.48 2.55v1.56a.65.65 0 0 0 .59.66 76.51 76.51 0 0 0 14.11 0 .68.68 0 0 0 .63-.67v-1.5a.67.67 0 0 0-.72-.67 99.9 99.9 0 0 1-13.89 0 .67.67 0 0 0-.72.62zm13.34-82.75c0 .71-2.74 1.29-6.14 1.29s-6.15-.58-6.15-1.29 2.76-1.3 6.15-1.3 6.14.57 6.14 1.3z" fill="#3b4863"/></svg>