<svg xmlns="http://www.w3.org/2000/svg" width="50.812" height="37.015" viewBox="0 0 50.812 37.015"><g data-name="Group 17825"><g data-name="Group 17824"><g data-name="chauffage-white-icon"><g data-name="Calque 7" transform="translate(0 -.001)"><path data-name="Path 2581" d="M47.265 3.733v1.116a.8.8 0 0 0 .654.8l1.915.364a.8.8 0 0 0 .97-.8v-1.94a.8.8 0 0 0-1.018-.848l-1.915.436a.8.8 0 0 0-.606.872z" fill="#fff"/><path data-name="Line 805" fill="none" stroke="#fff" stroke-linecap="round" stroke-miterlimit="10" stroke-width=".848" d="M46.444 3.321v2.036"/><rect data-name="Rectangle 1114" width="5.648" height="37.015" rx="2.424" fill="#fff"/><rect data-name="Rectangle 1115" width="5.648" height="37.015" rx="2.424" transform="translate(6.545)" fill="#fff"/><rect data-name="Rectangle 1116" width="5.648" height="37.015" rx="2.424" transform="translate(13.114)" fill="#fff"/><rect data-name="Rectangle 1117" width="5.648" height="37.015" rx="2.424" transform="translate(19.659)" fill="#fff"/><rect data-name="Rectangle 1118" width="5.648" height="37.015" rx="2.424" transform="translate(26.204)" fill="#fff"/><rect data-name="Rectangle 1119" width="5.648" height="37.015" rx="2.424" transform="translate(32.749)" fill="#fff"/><rect data-name="Rectangle 1120" width="5.648" height="37.015" rx="2.424" transform="translate(39.318)" fill="#fff"/></g></g></g></g></svg>