<svg xmlns="http://www.w3.org/2000/svg" width="36.295" height="50.412" viewBox="0 0 36.295 50.412"><g data-name="ecs-white-icon"><g data-name="Calque 7"><path data-name="Line 10900" fill="none" stroke="#fff" stroke-linecap="round" stroke-miterlimit="10" stroke-width="3.487" d="M12.341 22.287l21.391.025"/><path data-name="Path 87572" d="M13.888 19.315c-.589 0-.835-1.228-.319-1.744a3.266 3.266 0 0 1 2.456-1.08h14.244a3.463 3.463 0 0 1 2.456 1.154c.516.516.27 1.744-.319 1.744z" fill="#fff"/><path data-name="Path 87573" d="M25.627 27.396a.442.442 0 0 1 .761 0c.712 1.179 1.94 3.659-.27 3.733s-1.129-2.505-.491-3.733z" fill="#fff"/><path data-name="Path 87574" d="M25.848 33.586a.442.442 0 0 1 .761 0c.712 1.179 1.94 3.659-.27 3.733s-1.129-2.506-.491-3.733z" fill="#fff"/><path data-name="Path 87575" d="M26.045 39.651a.442.442 0 0 1 .761 0c.712 1.179 1.94 3.659-.27 3.733s-1.129-2.502-.491-3.733z" fill="#fff"/><path data-name="Path 87576" d="M26.288 46.675a.442.442 0 0 1 .737 0c.712 1.179 1.94 3.659-.27 3.733s-1.103-2.529-.467-3.733z" fill="#fff"/><path data-name="Path 87577" d="M30.711 27.027a.442.442 0 0 1 .737-.123c.884 1.056 2.456 3.34.295 3.733s-1.498-2.333-1.032-3.61z" fill="#fff"/><path data-name="Path 87578" d="M31.934 33.093a.442.442 0 0 1 .737-.123c.884 1.056 2.456 3.34.295 3.733s-1.592-2.308-1.032-3.61z" fill="#fff"/><path data-name="Path 87579" d="M32.921 39.061a.442.442 0 0 1 .737-.123c.884 1.056 2.456 3.34.295 3.733s-1.498-2.308-1.032-3.61z" fill="#fff"/><path data-name="Path 87580" d="M34.175 45.938a.442.442 0 0 1 .737-.123c.884 1.056 2.456 3.34.295 3.733s-1.474-2.308-1.032-3.61z" fill="#fff"/><path data-name="Path 87581" d="M21.109 27.421a.442.442 0 0 0-.761 0c-.737 1.154-2.038 3.61.172 3.733s1.203-2.505.589-3.733z" fill="#fff"/><path data-name="Path 87582" d="M20.74 33.586a.442.442 0 0 0-.761 0c-.737 1.154-2.038 3.61.172 3.733s1.203-2.482.589-3.733z" fill="#fff"/><path data-name="Path 87583" d="M20.397 39.676a.442.442 0 0 0-.761 0c-.737 1.154-2.038 3.61.172 3.733s1.203-2.505.589-3.733z" fill="#fff"/><path data-name="Path 87584" d="M19.979 46.675a.442.442 0 0 0-.761 0c-.737 1.154-2.038 3.61.172 3.733s1.203-2.53.589-3.733z" fill="#fff"/><path data-name="Path 87585" d="M16.049 27.175a.442.442 0 0 0-.737-.172c-.933 1.007-2.652 3.193-.516 3.708s1.622-2.21 1.253-3.536z" fill="#fff"/><path data-name="Path 87586" d="M14.551 33.167a.442.442 0 0 0-.737-.172c-.933 1.007-2.652 3.191-.515 3.709s1.621-2.309 1.252-3.537z" fill="#fff"/><path data-name="Path 87587" d="M13.102 39.086a.442.442 0 0 0-.737-.172c-.933 1.007-2.652 3.193-.516 3.708s1.622-2.21 1.253-3.536z" fill="#fff"/><path data-name="Path 87588" d="M11.407 45.864a.442.442 0 0 0-.737-.172c-.933 1.007-2.652 3.193-.516 3.708s1.622-2.21 1.253-3.536z" fill="#fff"/><path data-name="Path 87589" d="M22.975 17.449V5.882H1.412" fill="none" stroke="#fff" stroke-linecap="round" stroke-linejoin="round" stroke-width="2.824"/><path data-name="Line 10901" stroke-width="2.824" stroke="#fff" stroke-linecap="round" stroke-linejoin="round" fill="none" d="M1.412 1.412V9.32"/></g></g></svg>