<svg xmlns="http://www.w3.org/2000/svg" width="32.551" height="55.754" viewBox="0 0 32.551 55.754"><g data-name="electricite-white-icon"><g data-name="Calque 7" fill="#fff"><path data-name="Path 76256" d="M17.342.035A16.282 16.282 0 0 0 3.187 25.957a25.864 25.864 0 0 1 3.7 7.107 24.991 24.991 0 0 1 1.282 7.922H24.42v-.174a25.486 25.486 0 0 1 5.039-14.942 16.165 16.165 0 0 0 3.087-9.9A16.369 16.369 0 0 0 17.342.035zm7.777 16.107a9.7 9.7 0 0 0-.816 2.563c-.466 2.01-.874 3.757-2.214 3.757s-1.689-1.718-2.214-3.757a13.922 13.922 0 0 0-.671-2.393 13.194 13.194 0 0 0-.7 2.388c-.466 2.01-.874 3.757-2.214 3.757s-1.748-1.748-2.214-3.757a13.107 13.107 0 0 0-.7-2.359 13.806 13.806 0 0 0-.67 2.359c-.466 2.01-.874 3.757-2.214 3.757s-1.742-1.745-2.208-3.752a10.049 10.049 0 0 0-.786-2.563.787.787 0 0 1 0-1.573c1.369 0 1.777 1.748 2.243 3.786a14.01 14.01 0 0 0 .67 2.359 14.01 14.01 0 0 0 .67-2.359c.466-2.039.874-3.786 2.214-3.786s1.777 1.748 2.243 3.786a14.01 14.01 0 0 0 .666 2.357 14.009 14.009 0 0 0 .67-2.359c.466-2.039.874-3.786 2.243-3.786s1.748 1.748 2.214 3.786a13.281 13.281 0 0 0 .7 2.359 14.009 14.009 0 0 0 .67-2.359c.466-2.039.874-3.786 2.243-3.786a.787.787 0 1 1 0 1.573z"/><rect data-name="Rectangle 23921" width="16.427" height="4.019" rx="2.01" transform="translate(7.993 42.705)"/><rect data-name="Rectangle 23922" width="16.427" height="4.019" rx="2.01" transform="translate(7.993 47.948)"/><rect data-name="Rectangle 23923" width="9.903" height="2.505" rx="1.252" transform="translate(11.342 53.249)"/></g></g></svg>