<svg id="Calque_1" data-name="Calque 1" xmlns="http://www.w3.org/2000/svg" viewBox="0 0 140 120"><defs><style>.cls-1{fill:#3f4144}</style></defs><rect class="cls-1" x="57.86" y="105.53" width="2.33" height="5.56" rx=".56"/><rect class="cls-1" x="81.2" y="105.53" width="2.33" height="5.56" rx=".56"/><path d="M73 110.46c-9.44.72-20.09-3.8-20.09-13V22.38c0-9.21 8.17-13.32 17.61-13.47 9.33-.14 16.54 3.59 16.54 12.61v73.66c.02 9.03-4.71 14.56-14.06 15.28z" fill="#d8dae0"/><path d="M74.52 106.25h-6.25c-1.58.1-2.93-.87-2.93-2.12V47.88a2.43 2.43 0 0 1 2.58-2.12l6.25.09C75.7 45.79 77 46.76 77 48v56.18a2.41 2.41 0 0 1-2.48 2.07z" fill="#3b4863"/><path d="M68 54.8a1 1 0 0 1-1.1-.87v-6A1 1 0 0 1 68 47h6.25c.66 0 1.15.39 1.15.87v6a1 1 0 0 1-1 .87z" fill="#ffa929"/><path fill="none" stroke="#3b4863" stroke-linecap="round" stroke-miterlimit="10" stroke-width="1.08" d="M53.47 30.05l12.57 1.94h11.81l8.7-2.95"/></svg>