<svg id="Calque_1" data-name="Calque 1" xmlns="http://www.w3.org/2000/svg" viewBox="0 0 140 120"><defs><style>.cls-1{fill:#ffa929}.cls-2{fill:#7e7e7e}</style></defs><path class="cls-1" d="M82.58 67a12.57 12.57 0 0 1-13 12.56 2.41 2.41 0 0 1-.38 0 12.57 12.57 0 0 1-9.37-19.94A19.71 19.71 0 0 0 63.72 48v-.13h12.56a19.47 19.47 0 0 0 1 6.12 19.68 19.68 0 0 0 2.86 5.51 12.54 12.54 0 0 1 2.44 7.5z"/><rect class="cls-2" x="63.72" y="43.46" width="12.71" height="3.1" rx=".89" transform="rotate(-180 70.07 45.005)"/><rect class="cls-2" x="63.72" y="39.39" width="12.71" height="3.1" rx=".89" transform="rotate(-180 70.07 40.935)"/><rect class="cls-1" x="66.17" y="36.47" width="7.66" height="1.93" rx=".56" transform="rotate(-180 70 37.43)"/><path fill="none" stroke="#ffa929" stroke-miterlimit="10" stroke-width="1.25" d="M70.13 36.81V0"/><path d="M70.07 78.09h-.8A11.44 11.44 0 0 1 58.63 67a11.32 11.32 0 0 1 2.17-6.92 17.86 17.86 0 0 0 3.53-10.45v-.11h2c-.43 1.92-1.48 6.91-2.45 13.24-1.22 8.24 6.19 15.33 6.19 15.33z" fill="#f9be70"/></svg>