<svg id="Calque_1" data-name="Calque 1" xmlns="http://www.w3.org/2000/svg" viewBox="0 0 140 120"><defs><style>.cls-1{fill:#3f4144}.cls-3{fill:#3b4863}.cls-4{fill:#ffa929}</style></defs><rect class="cls-1" x="89.57" y="97.38" width="1.39" height="3.33" rx=".34"/><rect class="cls-1" x="103.55" y="97.38" width="1.39" height="3.33" rx=".34"/><path d="M98.64 100.33c-5.65.43-12-2.27-12-7.79V47.59c0-5.52 4.89-8 10.55-8.07 5.59-.08 9.91 2.15 9.91 7.56v44.1c-.03 5.41-2.86 8.72-8.46 9.15z" fill="#d8dae0"/><path class="cls-3" d="M94.01 88.55h5.18v5.69h-5.18z"/><circle class="cls-4" cx="96.67" cy="92.61" r=".42"/><circle class="cls-4" cx="97.86" cy="92.61" r=".42"/><circle class="cls-4" cx="95.48" cy="92.61" r=".42"/><path fill="#c0c4cd" d="M95.37 89.85h2.47v1.3h-2.47z"/><path class="cls-4" d="M39.6 41.31a7.54 7.54 0 0 0 .83-.8c.21-.28 1-1.19.52-1.77s-1.47-1.31-1.85-1.86c-.61-.86-.92-5.06 0-6a5.82 5.82 0 0 1 2.85-2c1.09-.16 4.27.26 4.91.1s.51.13.32.29.19.32.19.32a6.43 6.43 0 0 0-.35.7c0 .13.51 1.77.51 2.12a11.88 11.88 0 0 0 .8 2.14c.19.45 0 .68-.48.68s-.16.83-.19 1.22a8.18 8.18 0 0 1-.17 1.55c-.13.35-2.13.11-2.3.87S45 40.58 47 41.05a5.55 5.55 0 0 1-3.8 1.82 5.94 5.94 0 0 1-3.6-1.56z"/><path class="cls-3" d="M50.06 45.66l-.42-.1c-.41 1.75-.54 12.91.55 21.39v.23c-4.71.93-13.85.13-13.85.13a151.2 151.2 0 0 0-.94-21.46v-.25h-.41v.27a149.69 149.69 0 0 1 1 21.26C35 66 32.5 62.48 33 56.35c.26-3.15.48-11.87 1.06-12.84s4.11-1.73 6-2.79a5.18 5.18 0 0 0 6.78.18c1.73 1 3.84 1.27 4.21 1.84 1.07 1.61 1.63 13.94 1.63 14.24.19 5.84-1.61 8.84-2.09 9.51-1.07-8.36-.93-19.15-.53-20.83z"/><path d="M46.13 97.88c0-4.75 3.38-27.55 4.06-30.77-4.66 1-13.91.2-13.91.2s2.49 28.17 2.2 30.78a4 4 0 0 0 2.09.13c.3-1.41 2-25.34 2.1-25.64s.85-1.07.9.47.43 24.44.43 24.74 2.13.09 2.13.09z" fill="#5e5e5e"/><path class="cls-3" d="M38.6 98.39a20.87 20.87 0 0 0-2.26 1.17c-.85.52-.62 1.09-.28 1.14a27.07 27.07 0 0 0 4.51-.43c.4-.19.46-.59.28-1.48-.05-.28-2.25-.4-2.25-.4zm7.62-.26a15.62 15.62 0 0 1 2.05 1c.86.52.63 1.09.29 1.14a28.31 28.31 0 0 1-4.57-.22c-.4-.2-.4-.8-.22-1.69.05-.25 2.45-.23 2.45-.23zm-5.31-59.57c.23.87-2.5-2-2.42-2.47a31.37 31.37 0 0 0-.35-3.26c0-.4.35-2.17.8-2.39s1.37-1.32 2.23-1.55 4.22.23 5.08.06a2.2 2.2 0 0 1 1.51.23c.17.06-.23.63-.23.63s.16.65-.34.71-1.66.4-1.83.4-1.59.6-1.31 1.46-1.7 2.08-1.64 2.76c.17 1.79-.81.88-.77.1s-1.46-.32-.79 1.29c.38.92-.07 1.55.06 2.03z"/><path class="cls-4" d="M58.51 41.31a7.73 7.73 0 0 0 .82-.8c.21-.28 1-1.19.53-1.77s-1.47-1.31-1.86-1.86c-.61-.86-.91-5.06 0-6a5.77 5.77 0 0 1 2.85-2c1.09-.16 2.73.47 3.37.31s.76.22.57.38.79-.11.79-.11a3.11 3.11 0 0 1 .33.83c0 .13.52 1.77.52 2.12a12.59 12.59 0 0 0 .41 2.51c.19.45.32.69-.13.69s-.21.49-.24.87a9.91 9.91 0 0 1-.26 1.66c-.13.36-1.91 0-2.08.75s-.2 1.67 1.77 2.14c0 0-1.9 3.34-4 3.24s-3.39-2.96-3.39-2.96zM65 97.88c0-4.75 3.37-27.55 4.06-30.77-4.66 1-13.91.2-13.91.2s2.49 28.17 2.2 30.78a4 4 0 0 0 2.08.13c.3-1.41.6-25.47 2.1-25.64.3 0 1.89-1.11 1.94.44s-.57 24.47-.57 24.77 2.1.09 2.1.09z"/><path class="cls-3" d="M68 45.37l-.41-.1C67.17 47 68 58.47 69.1 67c0 0 1.22 10.13 1.17 10.14-4.71.93-15.47 0-15.47 0 .38-7.4 1.35-26.84.84-31.69v-.26h-.41v.27c.51 4.8-.05 14.33-.43 21.66-.92-1.12-1.82-7.91-1.32-14 .25-3.15.3-9 .88-10s2.74-1.32 4.59-2.38c.08 3.47 4.87 3.84 6.78.18 1.73 1 2.87 1 3.24 1.54 1.06 1.61 1.63 13.94 1.63 14.25.19 5.84-.64 9.13-1.12 9.8-1.05-8.38-1.88-19.46-1.48-21.14zM57.51 98.39a20.87 20.87 0 0 0-2.26 1.17c-.86.52-.63 1.09-.28 1.14a27 27 0 0 0 4.5-.43c.4-.19.46-.59.29-1.48-.06-.28-2.25-.4-2.25-.4zm7.62-.26a17 17 0 0 1 2.05 1c.86.52.63 1.09.29 1.14a28.26 28.26 0 0 1-4.57-.22c-.4-.2-.4-.8-.23-1.69.06-.25 2.46-.23 2.46-.23zm-7.84-57.97c.05-.89-.57-3.74-.49-4.26s.25-2.67.25-3.07a8.15 8.15 0 0 1 1.67-2.95 8.51 8.51 0 0 1 1.94-1c.85-.23 1.31.14 2.16 0a5.29 5.29 0 0 1 2.51.44 5.21 5.21 0 0 1 1.24 1.84c.16.62 1 8.41.39 8.46-.15 0-2.46 1-2.9.13-.36-.73.68-1.72.83-3.42.19-2-.24-3.84-.44-3.85-.52 0-3.26.08-4.16 0-1.07-.13-1.45 1.43-1.39 2.11.11 1.12-.17 2.6.48 3.48.52.69.82 1.17.6 1.74-.36.86-2.7.68-2.69.35z"/><path class="cls-4" d="M76 61a5.7 5.7 0 0 0 .55-.53c.14-.19.66-.8.36-1.18s-.73-.9-1-1.26c-.41-.58-.86-3.37-.28-4a5.33 5.33 0 0 1 2.56-1 7.06 7.06 0 0 1 2.73.62c0 .08.49 2.88 0 4a6.33 6.33 0 0 1-.86 1.25c-.18.17-.32 0-.43.48s0 1.14 1.29 1.46c0 0-1.27 2.23-2.66 2.17S76 61 76 61zm4.41 37.82c0-3.17 2.25-18.41 2.71-20.56-3.11.66-9.29.13-9.29.13S75.49 97.22 75.29 99a2.72 2.72 0 0 0 1.4.09c.2-1 .4-17 1.4-17.14.2 0 1.26-.73 1.29.3S79 98.56 79 98.76s1.41.06 1.41.06z"/><path class="cls-3" d="M82.38 63.74l-.27-.07c-.28 1.16.28 8.82 1 14.48 0 0 .82 6.77.78 6.78-3.14.62-10.33 0-10.33 0 .25-4.94.9-17.93.56-21.17v-.17h-.27v.18c.34 3.21 0 9.57-.29 14.47-.61-.74-1.21-5.28-.88-9.38.17-2.1.2-6 .59-6.69s1.83-.88 3.06-1.59c.06 2.32 3.26 2.56 4.53.12 1.16.68 1.92.65 2.17 1 .71 1.07 1.09 9.31 1.09 9.52.12 3.9-.43 6.1-.75 6.55-.7-5.51-1.25-12.91-.99-14.03zm-7.01 35.42a13 13 0 0 0-1.5.78c-.58.35-.42.73-.19.77a19.76 19.76 0 0 0 3-.29c.27-.13.3-.4.19-1-.03-.18-1.5-.26-1.5-.26zm5.09-.16a8.78 8.78 0 0 1 1.38.69c.57.34.42.72.19.76a18.67 18.67 0 0 1-3.06-.15c-.26-.14-.26-.54-.15-1.13.04-.17 1.64-.17 1.64-.17zm-4.24-40.38a4 4 0 0 1-1-2.17c.06-.42-.19-.82-.19-1.09s.23-1.45.53-1.6.92-.88 1.49-1 .86.09 1.43 0a5.65 5.65 0 0 1 1.48 0 4.09 4.09 0 0 1 1 .65 4.91 4.91 0 0 1-.84 5.55 8.5 8.5 0 0 0 .63-1.31c.44-1.37.33-4.3-1.3-3.33a3.21 3.21 0 0 1-1.93-.11c-.62-.23-1.42.53-1.48 1.25a3.85 3.85 0 0 0 .83 3.71c.41.49-.47-.42-.65-.55zM75.17 54c-.2-.22-.42-.88-1.19-.66a1.71 1.71 0 0 0-1.1 1.81c0 .79 1 3.32.16 3.88s-.8.63-.34.66 1.13.11 1.44-.44a9.61 9.61 0 0 0 .72-3.95c-.17-1 .31-1.3.31-1.3z"/><path class="cls-3" d="M81.36 54c.2-.22.42-.88 1.19-.66a1.71 1.71 0 0 1 1.1 1.81c0 .79-1 3.32-.15 3.88s.79.63.33.66-1.13.11-1.43-.44a9.61 9.61 0 0 1-.73-3.95c.17-1-.31-1.3-.31-1.3z"/></svg>