<svg xmlns="http://www.w3.org/2000/svg" viewBox="0 0 140 120"><defs><style>.cls-2{fill:#8a91a1}.cls-6{fill:#70af50}</style></defs><g style="isolation:isolate"><g id="Calque_1" data-name="Calque 1"><path class="cls-2" d="M52.97 18.76h34.06v84.6H52.97z"/><path d="M75 28.91c-.09-1.91-.36-5.26.09-5.26s7.13.14 8.13.14.6 38.45.6 38.45h1.47" stroke="#d8dae0" stroke-width="1.36" fill="none" stroke-miterlimit="10"/><ellipse cx="75.09" cy="29.32" rx="7.4" ry=".65" fill="#d8dae0"/><path d="M72.32 30.75v16.19m.85-13.15v16.18m.84-19.47v16.19m.84-15.77v16.19m0 2.61v16.19m-1.6-13.74v16.18m-1.01-20.48v16.18m1.68-16.52v16.19m2.53-15.85v16.18m.93-14.41v16.19m-1.77-5.06v16.18m-1.43-11.04V82.1m-1.44-11.89V86.4m4.22-17.88v16.19m-.84-6.83v16.19M73.5 80.58v16.19M75.19 81v16.19m.51-65.85v17.71m1.01-18.55v16.19M77.47 31v16.19" stroke-linecap="round" stroke="#a7d5ef" stroke-width=".32" fill="none" stroke-miterlimit="10"/><path class="cls-6" d="M56.82 18.29c-.84-.06-.13 10.66-.68 13.38s.48 1.9 1.09 2a15.27 15.27 0 0 0 2.1.13s-.47-15.38-2.51-15.51z"/><path style="mix-blend-mode:hard-light" fill="#a7d5ef" opacity=".65" d="M54.6 19.62h30.8v79.69H54.6z"/><path class="cls-2" d="M57.55 53.27h.97v12.64h-.97z"/><path class="cls-6" d="M56.82 18.29c1.36.13 1 17.73 1.22 19.08s9.92.68 10.74.68.4-19.49-.14-19.9-11.82.14-11.82.14z"/><path d="M58.52 36.49s7.68.82 10.12.14m-10.12-1.09s7.68.82 10.12.14" stroke="#fee1b3" stroke-width=".68" stroke-linecap="round" fill="none" stroke-miterlimit="10"/></g></g></svg>