<svg id="Calque_1" data-name="Calque 1" xmlns="http://www.w3.org/2000/svg" viewBox="0 0 140 120"><defs><style>.cls-1{fill:#3b4863}.cls-4{fill:#39a14f}</style></defs><path class="cls-1" d="M78.33 66.26a7.54 7.54 0 0 1-.87-3.34 6.52 6.52 0 0 1 3.94-5.87l.42 1a5.47 5.47 0 0 0-3.3 4.9 6.58 6.58 0 0 0 .74 2.83z"/><path d="M119.61 33.85L100 44.87a11.57 11.57 0 1 0 3.78 6.49l7-3.83 1-2.44 2.49-.21 1.13-2.18 1.43.2.55-1.24 3.06.51.86-2.79 2.15-.2.4-4zM88 59.48a2.32 2.32 0 1 1 .88-3.16 2.33 2.33 0 0 1-.88 3.16z" fill="#8991a1"/><path fill="none" stroke="#fff" stroke-linecap="round" stroke-miterlimit="10" stroke-width="1.16" d="M102.89 46.22l14.93-8.4"/><path class="cls-4" d="M102.16 76.22a1 1 0 0 1-.5-.13L83.42 65.81 65.34 76a1 1 0 1 1-1-1.77l19.08-10.75 19.24 10.84a1 1 0 0 1-.5 1.9z"/><path d="M99.15 76.12v19.71a1.22 1.22 0 0 1-.71 1.11 1.28 1.28 0 0 1-.47.1H69a1.23 1.23 0 0 1-1.23-1.22v-19.7l15.62-8.85s15.43 8.85 15.76 8.85z" fill="#d8dae0"/><path class="cls-1" d="M84 69.28a.53.53 0 0 1-.53-.53.53.53 0 0 1 .53-.53 5.38 5.38 0 0 0 5.44-5.3 5 5 0 0 0-4.3-5.17.55.55 0 0 1-.45-.61.55.55 0 0 1 .61-.45 6.12 6.12 0 0 1 5.21 6.23A6.44 6.44 0 0 1 84 69.28z"/><path class="cls-4" d="M65.84 42.3c8.53 2.13 18.2 3 22 3.79s5.69 7.59-1.52 6.83-19.73.19-22.76.57-16.31-6.26-20.86-7.4S38.52 29 38.52 29s25.04-6 27.69-6 20.87 4.93 24.66 8.35c2.17 2 5.25 11.36 5.25 11.36A11.64 11.64 0 0 0 86.07 44s-1.07-2.52-1.65-4c0 0-14-2.65-17.07-3s-6.07 4.16-1.51 5.3z"/><path class="cls-1" d="M38.52 29s-.41 15.9 4.18 17.07c.19 3.79-20.3 6.45-20.3 6.45s-9.54-11.63-5-21.84c1.3-2.79 22.93-4.15 21.12-1.68z"/></svg>