<svg id="Calque_1" data-name="Calque 1" xmlns="http://www.w3.org/2000/svg" viewBox="0 0 140 120"><defs><style>.cls-1{fill:#c0c4cd}.cls-2{fill:#3b4863}.cls-7{fill:#74f0a7}.cls-9{fill:#0288d1}.cls-10{fill:#67b8e3}.cls-11{fill:#a7d5ef}</style></defs><path class="cls-1" d="M37.04 20.21h55.21v85.68H37.04z"/><path class="cls-2" d="M80.8 87.3a14.32 14.32 0 0 1-10.56 13.82 14.1 14.1 0 0 1-3.76.5A14.32 14.32 0 0 1 52.17 87.3a14.1 14.1 0 0 1 1.58-6.54A14.31 14.31 0 0 1 80.8 87.3z"/><path d="M64.84 93a.23.23 0 0 1-.18.39c-.87-.09-2.36-.66-3-3.3-.88-3.84 5.24-8.34 2.4-12.94 0 0 6.93 2.79 7.27 10.53.18 3.86-2.37 5.17-3.81 6.58a3.12 3.12 0 0 0-.74 2.84.24.24 0 0 1-.23.27h-.4a.23.23 0 0 1-.22-.3 4.66 4.66 0 0 0 0-2.51.23.23 0 0 1 .12-.27 2.12 2.12 0 0 0 .34-.17 4.88 4.88 0 0 0 2.14-2.74c.67-2 .2-3.49-.46-4.15.09.42.52 2.69-.61 2.52s-.13-1.09-.17-2.59c0-1.11-.59-2.62-1.45-2.85 0 0 1.26 1.75-1 4.69-1.45 2.09-.62 3.43 0 4z" fill="#fff"/><path fill="#d8dae0" d="M37.04 20.21l15.87-5.85h49.92l-10.57 5.85H37.04z"/><path fill="#8a91a1" d="M92.26 105.89V20.21l10.57-5.85v80.72l-10.57 10.81z"/><path fill="#636d82" d="M77.18 20.11h15.2v17.17h-15.2z"/><circle class="cls-7" cx="80.35" cy="31.98" r="1.32"/><circle class="cls-7" cx="84.92" cy="31.98" r="1.32"/><circle class="cls-7" cx="89.49" cy="31.98" r="1.32"/><path class="cls-1" d="M81.15 23.24h7.81v4.11h-7.81z"/><path class="cls-2" d="M77.18 20.11l1.83-.66 14.28.07V36.4l-.91.88V20.1l-15.2.01z"/><path d="M36.84 29.67s10-.29 15.17 0 3.43 8.58 3.43 14.3c0 6.72 3.58 4.57 18.88 4.57 5.51 0 5.72 4.86-.29 5.15s-14 .57-17.16.57c-5.14 0-4.29 4.29-.85 4.29s16.3-.28 19-.28c3.64 0 3.57 4.29.57 4.29H56.87c-3.36 0-3.14 4.07 0 4.07s17.38-.14 19.24-.14-.22 6 3.64 6 12.37-.21 12.37-.21" fill="none" stroke="#d8dae0" stroke-miterlimit="10" stroke-width="2.86"/><circle class="cls-9" cx="38.26" cy="29.61" r=".7"/><circle class="cls-9" cx="41.33" cy="29.61" r=".7"/><circle class="cls-9" cx="44.41" cy="29.61" r=".7"/><circle class="cls-9" cx="47.48" cy="29.61" r=".7"/><circle class="cls-9" cx="50.56" cy="29.61" r=".7"/><circle class="cls-9" cx="53.67" cy="29.97" r=".7"/><circle class="cls-9" cx="55.17" cy="32.15" r=".7"/><circle class="cls-9" cx="55.56" cy="34.8" r=".7"/><circle class="cls-9" cx="55.71" cy="37.48" r=".7"/><circle class="cls-9" cx="55.63" cy="40.05" r=".7"/><circle class="cls-9" cx="55.56" cy="42.63" r=".7"/><circle class="cls-9" cx="55.49" cy="45.2" r=".7"/><circle class="cls-9" cx="56.42" cy="47.77" r=".7"/><circle class="cls-9" cx="59" cy="48.81" r=".7"/><circle class="cls-9" cx="61.82" cy="48.92" r=".7"/><circle class="cls-9" cx="64.39" cy="48.88" r=".7"/><circle class="cls-9" cx="66.97" cy="48.85" r=".7"/><circle class="cls-9" cx="69.54" cy="48.81" r=".7"/><circle class="cls-9" cx="72.12" cy="48.77" r=".7"/><circle class="cls-9" cx="74.69" cy="48.74" r=".7"/><circle class="cls-9" cx="77.37" cy="49.2" r=".7"/><circle class="cls-9" cx="78.51" cy="50.85" r=".7"/><circle class="cls-9" cx="77.76" cy="52.85" r=".7"/><circle class="cls-9" cx="75.65" cy="53.49" r=".7"/><circle class="cls-9" cx="73.12" cy="53.78" r=".7"/><circle class="cls-9" cx="70.72" cy="53.85" r=".7"/><circle class="cls-10" cx="68.33" cy="53.92" r=".7"/><circle class="cls-9" cx="65.93" cy="53.99" r=".7"/><circle class="cls-9" cx="63.54" cy="54.07" r=".7"/><circle class="cls-10" cx="61.14" cy="54.14" r=".7"/><circle class="cls-10" cx="58.75" cy="54.21" r=".7"/><circle class="cls-7" cx="56.35" cy="54.28" r=".7"/><circle class="cls-10" cx="53.88" cy="54.96" r=".7"/><circle class="cls-9" cx="53.2" cy="56.89" r=".7"/><circle class="cls-7" cx="54.78" cy="58.5" r=".7"/><circle class="cls-10" cx="57.17" cy="58.71" r=".7"/><circle class="cls-9" cx="59.6" cy="58.75" r=".7"/><circle class="cls-10" cx="61.89" cy="58.68" r=".7"/><circle class="cls-11" cx="64.18" cy="58.61" r=".7"/><circle class="cls-7" cx="66.47" cy="58.53" r=".7"/><circle class="cls-10" cx="68.76" cy="58.46" r=".7"/><circle class="cls-11" cx="71.04" cy="58.39" r=".7"/><circle class="cls-7" cx="73.33" cy="58.32" r=".7"/><circle class="cls-10" cx="75.62" cy="58.25" r=".7"/><circle class="cls-11" cx="77.59" cy="59.46" r=".7"/><circle class="cls-7" cx="77.59" cy="61.64" r=".7"/><circle class="cls-10" cx="75.69" cy="62.57" r=".7"/><circle class="cls-7" cx="73.44" cy="62.65" r=".7"/><circle class="cls-7" cx="71.19" cy="62.65" r=".7"/><circle class="cls-10" cx="68.97" cy="62.61" r=".7"/><circle class="cls-7" cx="66.75" cy="62.57" r=".7"/><circle class="cls-11" cx="64.49" cy="62.59" r=".7"/><circle class="cls-7" cx="62.27" cy="62.5" r=".7"/><circle class="cls-7" cx="60.01" cy="62.61" r=".7"/><circle class="cls-7" cx="57.79" cy="62.57" r=".7"/><circle class="cls-11" cx="55.71" cy="62.69" r=".7"/><circle class="cls-7" cx="54.46" cy="64.33" r=".7"/><circle class="cls-7" cx="55.28" cy="66.22" r=".7"/><circle class="cls-7" cx="57.57" cy="66.79" r=".7"/><circle class="cls-7" cx="59.92" cy="66.79" r=".7"/><circle class="cls-7" cx="62.28" cy="66.79" r=".7"/><circle class="cls-7" cx="64.64" cy="66.79" r=".7"/><circle class="cls-7" cx="66.99" cy="66.7" r=".7"/><circle class="cls-7" cx="69.36" cy="66.69" r=".7"/><circle class="cls-7" cx="71.75" cy="66.63" r=".7"/><circle class="cls-7" cx="74.08" cy="66.61" r=".7"/><circle class="cls-7" cx="76.41" cy="66.65" r=".7"/><circle class="cls-7" cx="77.12" cy="68.76" r=".7"/><circle class="cls-7" cx="77.6" cy="70.95" r=".7"/><circle class="cls-7" cx="79.12" cy="72.52" r=".7"/><circle class="cls-7" cx="81.32" cy="72.57" r=".7"/><circle class="cls-7" cx="83.51" cy="72.67" r=".7"/><circle class="cls-7" cx="85.99" cy="72.71" r=".7"/><circle class="cls-7" cx="88.27" cy="72.71" r=".7"/><circle class="cls-7" cx="90.47" cy="72.62" r=".7"/></svg>