<svg id="Calque_1" data-name="Calque 1" xmlns="http://www.w3.org/2000/svg" viewBox="0 0 140 120"><defs><style>.cls-1{fill:#3f4144}.cls-3{fill:#3b4863}.cls-4{fill:#ffa929}.cls-6{fill:#5e5e5e}</style></defs><rect class="cls-1" x="94.18" y="97.15" width="1.49" height="3.56" rx=".36"/><rect class="cls-1" x="109.12" y="97.15" width="1.49" height="3.56" rx=".36"/><path d="M103.88 100.3C97.83 100.76 91 97.87 91 92V44c0-5.9 5.23-8.53 11.27-8.62 6-.09 10.59 2.29 10.59 8.07v47.08c.02 5.77-3 9.32-8.98 9.77z" fill="#d8dae0"/><path class="cls-3" d="M99.36 88.43h5.18v5.69h-5.18z"/><circle class="cls-4" cx="102.02" cy="92.48" r=".42"/><circle class="cls-4" cx="103.21" cy="92.48" r=".42"/><circle class="cls-4" cx="100.83" cy="92.48" r=".42"/><path fill="#c0c4cd" d="M100.72 89.72h2.47v1.3h-2.47z"/><path class="cls-4" d="M33.79 41.31a7.73 7.73 0 0 0 .82-.8c.21-.28 1-1.19.53-1.77s-1.48-1.31-1.86-1.86c-.61-.86-.91-5.06 0-6a5.77 5.77 0 0 1 2.85-2c1.09-.16 4.26.26 4.9.1s.52.13.32.29.2.32.2.32-.32.57-.36.7.52 1.77.52 2.12a11.17 11.17 0 0 0 .8 2.14c.19.45 0 .68-.48.68s-.16.83-.2 1.22a9.07 9.07 0 0 1-.15 1.55c-.13.35-2.13.11-2.3.87s-.2 1.67 1.77 2.14a5.58 5.58 0 0 1-3.8 1.82 5.94 5.94 0 0 1-3.56-1.52z"/><path class="cls-3" d="M44.24 45.66l-.41-.1c-.41 1.75-.55 12.91.55 21.39 0 0 0 .22-.05.23-4.7.93-13.84.13-13.84.13a152.7 152.7 0 0 0-.94-21.46v-.25h-.41v.27a149.85 149.85 0 0 1 .94 21.26c-.92-1.12-3.37-4.68-2.87-10.81.25-3.15.47-11.87 1.06-12.84s4.11-1.73 6-2.79a5.18 5.18 0 0 0 6.73.21c1.73 1 3.83 1.27 4.21 1.84 1.06 1.61 1.63 13.94 1.63 14.24.19 5.84-1.61 8.84-2.09 9.51-1.04-8.36-.9-19.15-.51-20.83z"/><path class="cls-6" d="M40.32 97.88c0-4.75 3.37-27.55 4.06-30.77-4.66 1-13.91.2-13.91.2S33 95.48 32.66 98.09a4 4 0 0 0 2.09.13c.3-1.41 2.06-25.34 2.1-25.64s.86-1.07.9.47.47 24.44.47 24.74 2.1.09 2.1.09z"/><path class="cls-3" d="M32.78 98.39a21.82 21.82 0 0 0-2.25 1.17c-.86.52-.63 1.09-.29 1.14a27 27 0 0 0 4.51-.43c.4-.19.46-.59.29-1.48-.04-.28-2.26-.4-2.26-.4zm7.63-.26a17 17 0 0 1 2.05 1c.86.52.63 1.09.29 1.14a28.2 28.2 0 0 1-4.57-.22c-.4-.2-.4-.8-.23-1.69.05-.25 2.46-.23 2.46-.23zM35.1 38.56c.22.87-2.51-2-2.43-2.47a31.53 31.53 0 0 0-.34-3.26c0-.4.34-2.17.8-2.39s1.37-1.32 2.22-1.55 4.23.23 5.08.06a2.22 2.22 0 0 1 1.52.23c.17.06-.23.63-.23.63s.16.65-.34.71-1.66.4-1.83.4-1.6.6-1.31 1.46-1.71 2.08-1.65 2.76c.17 1.79-.81.88-.77.1s-1.45-.32-.79 1.29c.38.92-.03 1.55.07 2.03z"/><path class="cls-4" d="M88.67 62.45a5.24 5.24 0 0 1-.53-.51c-.13-.18-.63-.77-.34-1.14s1-.85 1.2-1.2c.39-.55.59-3.26 0-3.86a3.77 3.77 0 0 0-1.84-1.28c-.7-.1-2.74.17-3.15.07s-.33.08-.21.18-.12.21-.12.21a4.8 4.8 0 0 1 .22.45c0 .08-.33 1.14-.33 1.36a7.94 7.94 0 0 1-.51 1.39c-.13.29 0 .43.31.43s.1.54.12.78a5.7 5.7 0 0 0 .08 1c.09.22 1.37.07 1.48.56s.13 1.07-1.14 1.38a3.62 3.62 0 0 0 2.45 1.17 3.81 3.81 0 0 0 2.31-.99z"/><path class="cls-3" d="M81.94 65.26l.27-.07A70 70 0 0 1 81.85 79v.14c3 .6 8.92.09 8.92.09a97.41 97.41 0 0 1 .6-13.82v-.17h.26v.17a96.87 96.87 0 0 0-.61 13.69 9.52 9.52 0 0 0 1.86-7c-.17-2-.31-7.64-.69-8.27s-2.64-1.11-3.84-1.8a3.31 3.31 0 0 1-4.36.12c-1.12.65-2.47.82-2.72 1.18-.68 1-1 9-1 9.18-.13 3.76 1 5.69 1.34 6.12a69.29 69.29 0 0 0 .33-13.37z"/><path class="cls-6" d="M84.47 98.89c0-3.06-2.18-17.74-2.62-19.82 3 .63 9 .13 9 .13S89.21 97.34 89.4 99a2.66 2.66 0 0 1-1.35.09c-.19-.91-1.32-16.33-1.35-16.52s-.55-.69-.58.3-.3 15.75-.3 15.94-1.35.08-1.35.08z"/><path class="cls-3" d="M89.32 99.22a11.36 11.36 0 0 1 1.45.75c.55.33.41.7.19.74a18.35 18.35 0 0 1-2.91-.28c-.26-.13-.29-.39-.18-1 .03-.14 1.45-.21 1.45-.21zm-4.91-.17a10.7 10.7 0 0 0-1.32.66c-.55.33-.41.7-.19.74a17.31 17.31 0 0 0 2.95-.15c.26-.13.25-.51.14-1.08.01-.22-1.58-.17-1.58-.17zm3.42-38.37c-.15.56 1.61-1.25 1.56-1.59a20 20 0 0 1 .22-2.1c0-.25-.22-1.39-.51-1.54s-.88-.84-1.43-1-2.73.15-3.28 0a1.45 1.45 0 0 0-1 .15c-.11 0 .15.41.15.41s-.11.41.22.46 1 .4 1.15.4.64 0 .46.53 1.32 1.62 1.47 2c.08.24.46.11.49.07.19-.25.94-.21.51.83-.21.7.07 1.07-.01 1.38z"/><path class="cls-4" d="M52.69 41.31a7.54 7.54 0 0 0 .83-.8c.21-.28 1-1.19.52-1.77s-1.47-1.31-1.85-1.86c-.61-.86-.91-5.06 0-6a5.8 5.8 0 0 1 2.86-2c1.09-.16 2.72.47 3.36.31s.77.22.58.38.79-.11.79-.11a3.49 3.49 0 0 1 .33.83c0 .13.51 1.77.51 2.12a12 12 0 0 0 .38 2.53c.19.45.31.69-.14.69s-.21.49-.24.87a9 9 0 0 1-.25 1.66c-.13.36-1.92 0-2.09.75s-.19 1.67 1.77 2.14c0 0-1.9 3.34-4 3.24s-3.36-2.98-3.36-2.98zm6.54 56.57c0-4.75 3.37-27.55 4.05-30.77-4.65 1-13.91.2-13.91.2s2.49 28.17 2.2 30.78a4 4 0 0 0 2.09.13c.3-1.41.59-25.47 2.1-25.64.3 0 1.89-1.11 1.93.44s-.56 24.47-.56 24.77 2.1.09 2.1.09z"/><path class="cls-3" d="M62.18 45.37l-.41-.1c-.41 1.74.42 13.2 1.51 21.68 0 0 1.23 10.13 1.18 10.14-4.71.93-15.47 0-15.47 0 .37-7.4 1.35-26.84.83-31.69v-.26h-.41v.27c.51 4.8-.06 14.33-.43 21.66-.93-1.12-1.82-7.91-1.33-14 .26-3.15.3-9 .88-10s2.74-1.32 4.59-2.38c.09 3.47 4.88 3.84 6.78.18 1.73 1 2.87 1 3.25 1.54 1.06 1.61 1.62 13.94 1.62 14.25.19 5.84-.64 9.13-1.12 9.8-1.03-8.33-1.87-19.41-1.47-21.09zM51.69 98.39a20 20 0 0 0-2.25 1.17c-.86.52-.63 1.09-.29 1.14a27.07 27.07 0 0 0 4.51-.43c.4-.19.46-.59.29-1.48-.06-.28-2.26-.4-2.26-.4zm7.62-.26a16.29 16.29 0 0 1 2.06 1c.85.52.62 1.09.28 1.14a28.31 28.31 0 0 1-4.57-.22c-.4-.2-.39-.8-.22-1.69.05-.25 2.45-.23 2.45-.23zm-7.83-57.97c0-.89-.58-3.74-.5-4.26s.25-2.67.25-3.07a8 8 0 0 1 1.68-2.95 8.63 8.63 0 0 1 1.93-1c.86-.23 1.31.14 2.17 0a5.34 5.34 0 0 1 2.51.44 5.34 5.34 0 0 1 1.24 1.84c.16.62 1 8.41.39 8.46-.15 0-2.46 1-2.91.13-.35-.73.68-1.72.84-3.42.19-2-.25-3.84-.44-3.85-.52 0-3.27.08-4.17 0-1.06-.13-1.45 1.43-1.38 2.11.1 1.12-.18 2.6.48 3.48.51.69.82 1.17.6 1.74-.36.86-2.71.68-2.69.35z"/><path class="cls-4" d="M70.23 61a5.7 5.7 0 0 0 .55-.53c.14-.19.65-.8.35-1.18s-.73-.9-1-1.26c-.4-.58-.86-3.37-.27-4a5.29 5.29 0 0 1 2.56-1 7.11 7.11 0 0 1 2.73.62c0 .08.49 2.88 0 4a6.79 6.79 0 0 1-.86 1.25c-.19.17-.32 0-.44.48s0 1.14 1.3 1.46c0 0-1.27 2.23-2.66 2.17S70.23 61 70.23 61zm4.36 37.82c0-3.17 2.26-18.41 2.71-20.56-3.11.66-9.29.13-9.29.13S69.67 97.22 69.48 99a2.69 2.69 0 0 0 1.39.09c.2-1 .4-17 1.41-17.14.2 0 1.26-.73 1.29.3s-.38 16.35-.38 16.55 1.4.02 1.4.02z"/><path class="cls-3" d="M76.57 63.74l-.28-.07c-.27 1.16.28 8.82 1 14.48 0 0 .82 6.77.79 6.78-3.15.62-10.34 0-10.34 0 .26-4.93.92-17.93.57-21.14v-.17h-.28v.18c.34 3.21 0 9.57-.29 14.47-.62-.74-1.22-5.28-.89-9.38.18-2.1.2-6 .59-6.69s1.83-.88 3.07-1.59c0 2.32 3.26 2.56 4.53.12 1.15.68 1.91.65 2.17 1 .71 1.07 1.08 9.31 1.08 9.52.13 3.9-.42 6.1-.75 6.55-.68-5.54-1.24-12.94-.97-14.06zm-7.01 35.42a13.07 13.07 0 0 0-1.51.78c-.57.35-.42.73-.19.77a19.52 19.52 0 0 0 3-.29c.27-.13.31-.4.2-1-.06-.18-1.5-.26-1.5-.26zm5.09-.16a9.2 9.2 0 0 1 1.37.69c.58.34.42.72.19.76a18.55 18.55 0 0 1-3-.15c-.27-.14-.26-.54-.15-1.13-.01-.17 1.59-.17 1.59-.17zm-4.24-40.38a3.93 3.93 0 0 1-1-2.17c.06-.42-.2-.82-.2-1.09s.23-1.45.54-1.6.91-.88 1.48-1 .86.09 1.43 0a5.72 5.72 0 0 1 1.49 0 4.27 4.27 0 0 1 1 .65 4.89 4.89 0 0 1-.84 5.55 9.06 9.06 0 0 0 .69-1.35c.44-1.37.33-4.3-1.31-3.33a3.17 3.17 0 0 1-1.92-.11c-.63-.23-1.43.53-1.49 1.25a3.87 3.87 0 0 0 .84 3.71c.35.53-.53-.38-.71-.51zm-1.05-5.13c-.2-.22-.42-.88-1.19-.66a1.71 1.71 0 0 0-1.1 1.81c0 .79 1 3.33.15 3.88s-.79.64-.33.66 1.12.11 1.43-.44a9.54 9.54 0 0 0 .73-4c-.18-.96.31-1.25.31-1.25z"/><path class="cls-3" d="M75.54 53.49c.2-.22.42-.88 1.19-.66a1.72 1.72 0 0 1 1.11 1.81c0 .79-1 3.33-.16 3.88s.8.64.33.66-1.12.11-1.43-.44a9.71 9.71 0 0 1-.73-4c.15-.96-.31-1.25-.31-1.25z"/></svg>