<svg id="Calque_1" data-name="Calque 1" xmlns="http://www.w3.org/2000/svg" viewBox="0 0 140 120"><defs><style>.cls-1{fill:#c0c4cd}.cls-3{fill:#fff}</style></defs><path class="cls-1" d="M45.21 103.6h12.82v.03H45.21z"/><path class="cls-1" d="M45.21 103.6h12.82v.07H45.21zM60.2 63.42a4.72 4.72 0 1 1-4.72-4.72 4.73 4.73 0 0 1 4.72 4.72zM49.57 76.51h11.54v25.08H49.57zM111.89 46v45.48c0 1.12-.54 1.59-2 2l-28.16 10a2 2 0 0 0 1.18-1.82V54a4 4 0 0 0 1.09-.12z"/><path d="M114 39.52L85.18 25.69a2 2 0 0 0-1.33-.16l-25.91 5.58a2.14 2.14 0 0 0-.8.25L25.65 50.1a1.69 1.69 0 0 0-.58 2.31 1.66 1.66 0 0 0 1.43.82 1.73 1.73 0 0 0 .87-.24l5.75-3.43 22.6-13.46 26.06 15.57a2 2 0 0 0 1.12.33 2 2 0 0 0 .55-.07l28.42-8.07 1.76-.51a2 2 0 0 0 1.51-1.79 2.07 2.07 0 0 0-1.14-2.04z" fill="#39a24f"/><path class="cls-3" d="M49.57 76.51h11.54v25.08H49.57z"/><ellipse cx="59.18" cy="89.05" rx="1.36" ry=".68" fill="#3b4863"/><path class="cls-3" d="M60.2 63.42a4.72 4.72 0 1 1-4.72-4.72 4.73 4.73 0 0 1 4.72 4.72zm33.88 23.97l-6.86 2.18V75.76l6.86-1.87v13.5zm12.52-4.01l-6.5 2.16-.03-13.45 6.53-2.15v13.44zM94.08 69.69l-6.86 2.18v-13.8l6.86-1.88v13.5zm12.52-4l-6.5 2.16-.01-13.45 6.51-2.15v13.44z"/><path d="M81.33 53.7c-.22-.1-25.6-15.27-25.6-15.27L31.22 53v48.6a2 2 0 0 0 2 2h47.67a2 2 0 0 0 .78-.16 2 2 0 0 0 1.18-1.82V54a4 4 0 0 1-1.52-.3zm-25.85 5a4.73 4.73 0 1 1-4.72 4.72 4.73 4.73 0 0 1 4.72-4.72zm-5.91 42.9V76.51h11.54v25.09z" fill="#ced1d8"/></svg>