<svg id="Calque_1" data-name="Calque 1" xmlns="http://www.w3.org/2000/svg" viewBox="0 0 140 120"><defs><style>.cls-1{fill:#3b4863}.cls-4{fill:#74f0a7}</style></defs><rect class="cls-1" x="29.33" y="30.08" width="81.74" height="67.28" rx="1.55"/><path fill="#636d82" d="M38.65 43.46h63.11v53.33H38.65z"/><path fill="#fcca81" d="M94.86 96.79H45.27l.31-5.04 14.3 1.43-18.15-4.4 2.22-5.86 28.91 9.6 26.46-5.8.66 4.87-16.56 3.68 16.31-2.69-.08 4.37-4.79-.16z"/><path class="cls-4" d="M80.13 77.71a1.71 1.71 0 0 1 0 1.52c-.41.76-.94 0-.47-2.79.7-4.14-3.52-5.17-3.52-5.17 3.46 2.86 1 4.61.38 3.31-.66-1.49-2.15-1.93-3.74-4.52a9.52 9.52 0 0 1-1.17-5.78c-2.89 1.49-4.38 8.23-2.14 13.92s-1 6-.85 4.38-2.56-2.68-2.56-2.68c.75 2.23-1.17 6.18 0 9.33s6.94 3.69 8.43 3.59c6.42-.42 6.3-4.61 5.64-6s-.52-5.13.57-6.44-.57-2.67-.57-2.67zm-3.57 5.12a8.85 8.85 0 0 0-.36 4.7c.21 1 .1 3.21-2.83 3.13-1.81-.06-3.58-2.89-2-4.45A8.26 8.26 0 0 0 72.49 76s3 2.29 2.89 3.73 1 .5.82-1a5.58 5.58 0 0 1 .36 4.1z"/><path class="cls-4" d="M68.3 77.71a1.71 1.71 0 0 1 0 1.52c-.41.76-.94 0-.46-2.79.69-4.14-3.52-5.17-3.52-5.17 3.45 2.86.94 4.61.37 3.31-.69-1.49-2.15-1.93-3.69-4.52a9.52 9.52 0 0 1-1.17-5.78c-2.88 1.49-4.37 8.23-2.13 13.92s-1 6-.86 4.38-2.56-2.68-2.56-2.68c.75 2.23-1.17 6.18 0 9.33s6.94 3.69 8.43 3.59c6.43-.42 6.31-4.61 5.64-6s-.52-5.13.57-6.44-.62-2.67-.62-2.67zm-3.56 5.12a8.65 8.65 0 0 0-.36 4.7c.21 1 .1 3.21-2.84 3.13-1.8-.06-3.57-2.89-2-4.45A8.28 8.28 0 0 0 60.66 76s3 2.29 2.89 3.73 1 .5.83-1a5.64 5.64 0 0 1 .36 4.1zm27.36-5.12a1.68 1.68 0 0 1 0 1.52c-.41.76-.93 0-.46-2.79.7-4.14-3.52-5.17-3.52-5.17 3.45 2.86.95 4.61.37 3.31-.65-1.49-2.15-1.93-3.74-4.52a9.6 9.6 0 0 1-1.17-5.78c-2.88 1.49-4.37 8.23-2.13 13.92s-1 6-.85 4.38S78 79.9 78 79.9c.75 2.23-1.17 6.18 0 9.33s6.94 3.69 8.43 3.59c6.43-.42 6.31-4.61 5.64-6s-.51-5.13.57-6.44-.54-2.67-.54-2.67zm-3.56 5.12a8.75 8.75 0 0 0-.36 4.7c.21 1 .1 3.21-2.84 3.13-1.8-.06-3.57-2.89-2-4.45A8.26 8.26 0 0 0 84.47 76s3 2.29 2.89 3.73 1 .5.82-1a5.58 5.58 0 0 1 .36 4.1z"/><path d="M35.32 37.05h69.17m-69.17 2.39h69.17" fill="none" stroke="#636d82" stroke-miterlimit="10" stroke-width=".46"/><path fill="#8a91a1" d="M20.82 23.87h98.36v7.7H20.82z"/><path class="cls-1" d="M117.2 32.78H22.69l-1.87-1.32h98.25l-1.87 1.32z"/><path fill="#c0c4cd" d="M117.2 22.64H22.69l-1.87 1.32h98.25l-1.87-1.32z"/></svg>