<svg id="Calque_1" data-name="Calque 1" xmlns="http://www.w3.org/2000/svg" viewBox="0 0 140 120"><defs><style>.cls-1{fill:#d8dae0}.cls-2{fill:#c0c4cd}.cls-3{fill:#8a91a1}.cls-5{fill:#ffa929}.cls-6{fill:#3b4863}.cls-8{stroke:#c0c4cd;stroke-miterlimit:10;fill:none;stroke-linecap:round;stroke-width:.51px}</style></defs><path class="cls-1" d="M37 19.95h55.39v85.96H37z"/><path class="cls-2" d="M37 19.95l15.92-5.86H103l-10.61 5.86H37z"/><path class="cls-3" d="M92.39 105.91V19.95L103 14.09v80.98l-10.61 10.84z"/><path fill="#636d82" d="M58.32 81.98h15.24V99.2H58.32z"/><circle class="cls-5" cx="61.5" cy="93.88" r="1.33"/><circle class="cls-5" cx="66.08" cy="93.88" r="1.33"/><circle class="cls-5" cx="70.67" cy="93.88" r="1.33"/><ellipse class="cls-6" cx="59.49" cy="101.84" rx="1.91" ry="1.33"/><ellipse class="cls-6" cx="66.08" cy="101.84" rx="1.91" ry="1.33"/><ellipse class="cls-6" cx="72.67" cy="101.84" rx="1.91" ry="1.33"/><path class="cls-2" d="M62.3 85.11h7.84v4.12H62.3z"/><path class="cls-6" d="M58.32 81.98l1.84-.67 14.32.08v16.92l-.92.89V81.96l-15.24.02zm22.6-33.17a14.38 14.38 0 0 1-10.6 13.87 14.17 14.17 0 0 1-3.77.5A14.36 14.36 0 0 1 52.2 48.81a14.21 14.21 0 0 1 1.58-6.56 14.36 14.36 0 0 1 27.14 6.56z"/><path d="M72.62 57.46c-.43.63-2.68 1.16-6.25 1.12-3.13 0-5.36-.49-5.82-1.14a.32.32 0 0 0-.09.21c0 .66 2.74 1.2 6.12 1.2s6.11-.54 6.11-1.2a.3.3 0 0 0-.07-.19z" stroke-width=".55" stroke="#c0c4cd" stroke-miterlimit="10" fill="#8a91a1"/><path class="cls-3" d="M72.62 57.46a.33.33 0 0 0 .07-.27v-17.4H60.46v17.4a.4.4 0 0 0 .09.25m0 0c.46.65 2.69 1.1 5.82 1.14 3.57 0 5.82-.49 6.25-1.12"/><path class="cls-1" d="M66.58 41c-2.18 0-6.28-.25-6.28-1.2s4.1-1.19 6.28-1.19 6.28.25 6.28 1.19-4.11 1.2-6.28 1.2z"/><path class="cls-2" d="M66.58 38.77c3.37 0 6.11.46 6.11 1s-2.74 1-6.11 1-6.12-.46-6.12-1 2.74-1 6.12-1m0-.33c-1.08 0-6.45.06-6.45 1.35s5.37 1.36 6.45 1.36S73 41.09 73 39.79s-5.37-1.35-6.44-1.35z"/><path class="cls-8" d="M60.46 44.78c0 .57 2.74 1 6.12 1s6.11-.45 6.11-1m-12.23 4.45c0 .57 2.74 1 6.12 1s6.11-.46 6.11-1"/><path d="M60.65 39.34c-.29.18-.52.15-.43.8s2.84 1 6.36 1 6.26-.5 6.32-1-.08-.63-.2-.68" stroke-width=".33" fill="none" stroke-linecap="round" stroke="#c0c4cd" stroke-miterlimit="10"/><path class="cls-8" d="M60.46 53.69c0 .57 2.74 1 6.12 1s6.11-.46 6.11-1"/><path class="cls-6" d="M63.64 40.18c-.13 0-1.28 0-1.28-.39s1.15-.38 1.28-.38 1.29 0 1.29.38-1.16.39-1.29.39z"/><path class="cls-5" d="M63.64 39.52c.65 0 1.18.12 1.18.27s-.53.28-1.18.28-1.17-.12-1.17-.28.53-.27 1.17-.27m0-.22c-.42 0-1.39.05-1.39.49s1 .5 1.39.5 1.4 0 1.4-.5-1-.49-1.4-.49z"/></svg>