<svg xmlns="http://www.w3.org/2000/svg" viewBox="0 0 140 120"><defs><style>.cls-2{fill:#8a91a1}.cls-3,.cls-4,.cls-8{fill:none;stroke-miterlimit:10}.cls-3{stroke:#a7d5ef;stroke-width:.32px}.cls-3,.cls-8{stroke-linecap:round}.cls-4{stroke:#d8dae0;stroke-width:1.36px}.cls-5{fill:#d8dae0}.cls-6{fill:#1887c9}.cls-7{fill:#a7d5ef;opacity:.65;mix-blend-mode:hard-light}.cls-8{stroke:#fee1b3;stroke-width:.68px}.cls-9{fill:#ffa929}.cls-11{fill:#bfe2f4}.cls-13{fill:#c0c4cd}</style></defs><g style="isolation:isolate"><g id="Calque_1" data-name="Calque 1"><path class="cls-2" d="M58.82 17.31h34.06v84.6H58.82z"/><path class="cls-3" d="M77.75 29.65v16.19m.84-13.15v16.19m.85-19.48v16.19m.84-15.77v16.19m0 2.61v16.19m-1.6-13.74v16.19m-1.01-20.49v16.19m1.68-16.53v16.19m2.53-15.85v16.19m.93-15.89v17.66m-1.77-5.06v16.19m-1.43-11.05V81m-1.44-11.89V85.3m4.22-17.87v16.19m-.85-6.83v16.18m-2.61-13.49v16.19m1.69-15.76v16.18m.5-65.85v17.71m1.01-18.55v16.19m.76-15.68V46.1m.93 3.41v17.16m-.42 2.7v16.18m.51-53.7v16.18m1.01.26v16.19m.67-21v16.19m.13-30.29v11.57m.5-7.84v11.57m.64-15.43v11.58M77.12 29v11.57m-1.65-11.76v11.57m.45-5.94v11.57m-.7-4.24v11.58m.82-6.14v11.57m-.57-4.8v11.57m1.14-6.58v11.58m.82-6.71v11.58m3.61-25.93v9.42m-2.28 9.49v9.42m3.04-13.53v9.42m3.79-11.26v9.42m-.25 1.02v9.42m-9.42-15.43v9.42m1.13.51v9.42m.03-44.94v16.19m-.59-28.12v16.19m8.01 21.62v16.19m.5-53.71v16.19"/><path class="cls-4" d="M80.87 27.45c-.09-1.9-.36-5.25.09-5.25s7.13.13 8.12.13.6 38.45.6 38.45h1.47"/><ellipse class="cls-5" cx="80.94" cy="27.87" rx="7.4" ry=".65"/><path class="cls-6" d="M62.67 16.83c-.84-.06-.14 10.67-.68 13.38s.47 1.91 1.08 2a14.38 14.38 0 0 0 2.11.14S64.71 17 62.67 16.83z"/><path class="cls-7" d="M60.45 18.17h30.8v79.69h-30.8z"/><path class="cls-2" d="M63.39 51.82h.97v12.64h-.97z"/><path class="cls-6" d="M62.67 16.83c1.36.14.95 17.73 1.22 19.09s9.92.68 10.73.68.41-19.5-.13-19.91-11.82.14-11.82.14z"/><path class="cls-8" d="M64.37 35s7.67.81 10.12.13m-10.12-1.04s7.67.81 10.12.13"/><path class="cls-2" d="M23.24 17.31H57.3v84.6H23.24z"/><path class="cls-4" d="M45.29 27.45c-.09-1.9-.36-5.25.09-5.25s7.13.13 8.12.13.6 38.45.6 38.45h1.47"/><path class="cls-3" d="M42.17 30.16v16.19m.84-13.15v16.18m.85-19.47V46.1m.84-15.77v16.19m0 2.61v16.19m-1.6-13.74v16.18m-1.01-20.48v16.18m1.68-16.52v16.19m2.53-15.85v16.18m.93-15.89v17.66m-1.77-5.05v16.18m-1.44-11.04v16.19m-1.43-11.89v16.19m4.22-17.88v16.19m-.85-6.83v16.19m-2.61-13.49v16.19m1.69-15.77V96.6m.5-65.85v17.71m1.01-18.55V46.1m.76-15.69V46.6m.93 3.42v17.15m-.42 2.7v16.19m.5-53.71v16.19m1.02.25v16.19m.67-20.99v16.19m.13-30.29v11.57m.5-7.84v11.57m.64-15.43v11.57m-9.74-11.82v11.57m-1.65-11.76v11.57m.45-5.95v11.58m-.7-4.24v11.57m.82-6.13v11.57m-.57-4.81v11.58m1.14-6.58v11.57m.82-6.7v11.57m3.61-25.93v9.43m-2.28 9.48v9.42m3.04-13.53v9.42m3.79-11.25v9.42m-.25 1.01v9.42m-9.42-15.43v9.43m1.13.5v9.43m.03-44.94v16.18m-.59-28.12v16.19m8 21.63v16.19m.51-53.71v16.19"/><ellipse class="cls-5" cx="45.36" cy="27.87" rx="7.4" ry=".65"/><path class="cls-9" d="M27.09 16.83c-.84-.06-.14 10.67-.68 13.38s.47 1.91 1.08 2a14.38 14.38 0 0 0 2.11.14S29.12 17 27.09 16.83z"/><path class="cls-7" d="M24.87 18.17h30.8v79.69h-30.8z"/><path class="cls-2" d="M27.81 51.82h.97v12.64h-.97z"/><path class="cls-9" d="M27.09 16.83c1.36.14.95 17.73 1.22 19.09s9.92.68 10.73.68.41-19.5-.13-19.91-11.82.14-11.82.14z"/><path class="cls-8" d="M28.78 35s7.68.81 10.13.13m-10.13-1.04s7.68.81 10.13.13"/><path d="M107 76.61s.11-6.32 0-7.07 2.41-1.5 2.41.58" stroke-width="1.25" stroke="#8a91a1" stroke-linecap="round" fill="none" stroke-miterlimit="10"/><path class="cls-5" d="M117.17 104.81H92.88A19.27 19.27 0 0 1 73.66 85.6c0-10.57 8.65-8.07 19.22-8.07h24.29c10.57 0 19.22-2.5 19.22 8.07a19.27 19.27 0 0 1-19.22 19.21z"/><path class="cls-6" d="M89.8 78.53c-2.25 0-9.9-.81-11.65 1.08s1.83 2.16 4.49 2.16h48.17c2.25 0 2.42-3.5-2.74-3.33-2.07.07-34.53.09-38.27.09z"/><path class="cls-11" d="M81.83 80.79c-.71-.55-1.26-2.05-.39-2.36a8.16 8.16 0 0 1 3 .16s-1-2-.08-2 2.92-.08 3.15 1.1c0 0 .48-1.57 3.08-1.8s5.13.57 5.41 2.11a4.42 4.42 0 0 1 2.44-3.62c2.45-1.33 5.37.71 5.37.71s.16-2.91 1.73-3.07 2 1 1.58 1.73a3.37 3.37 0 0 1 4.11-.08c2.13 1.58 1.49 2.91 1.49 2.91s1.9-3.69 3.95-2.51 1.89 2.43 1.89 2.43.4-1.8 1.58-2a3.21 3.21 0 0 1 2 .24s-.39-1.73 1-2 2.76.63 2.37 1.81l-.4 1.18s1.5-1.65 2.21-.08 1.58 2.6.79 2.83c0 0 1.27-.86 1.5.55a4.91 4.91 0 0 1-.23 2.52H84.12z"/><ellipse class="cls-11" cx="92.04" cy="73.41" rx="1" ry=".87"/><ellipse class="cls-11" cx="103.86" cy="68.79" rx=".33" ry=".58"/><ellipse class="cls-11" cx="100.28" cy="72.58" rx="1.16" ry=".87"/><ellipse class="cls-11" cx="118.21" cy="71.49" rx="1.04" ry=".79"/><ellipse class="cls-11" cx="115.09" cy="66.17" rx=".25" ry=".12"/><ellipse class="cls-11" cx="129.86" cy="75.15" rx="1.04" ry=".87"/><ellipse class="cls-11" cx="113.31" cy="71.37" rx="1.77" ry="2.11"/><ellipse class="cls-11" cx="88.24" cy="75.92" rx="2.22" ry="1.33"/><path class="cls-6" d="M109.1 71l-.25 4.41s-.36 2.33.22 2.66 2.55.64 2.55-.28-1.77-6.79-1.77-6.79z"/><ellipse class="cls-11" cx="108.86" cy="78.26" rx=".93" ry=".98"/><ellipse class="cls-11" cx="111.59" cy="78.48" rx=".8" ry=".54"/><ellipse class="cls-11" cx="110.57" cy="78.75" rx=".33" ry=".5"/><path d="M17.8 66v-8.2c0-.84 2.58-1.26 2.61.32v.91" stroke-width="1.26" stroke="#8a91a1" stroke-linecap="round" fill="none" stroke-miterlimit="10"/><path class="cls-13" d="M13.98 70.5h6.83v32.38h-6.83z"/><rect class="cls-2" x="15.43" y="62.96" width="1.47" height="2.28" rx=".74"/><rect class="cls-2" x="18.63" y="62.96" width="1.47" height="2.28" rx=".74"/><path class="cls-13" d="M20.56 72.35h-6.07c-1.87 0-10.88-2.53-10.88-4.4 0-1.88 4.28-3.4 6.16-3.4H25.7c1.88 0 5.48 1.52 5.48 3.4 0 1.87-8.75 4.4-10.62 4.4z"/><path class="cls-6" d="M17.52 65.35h-8a9.49 9.49 0 0 0-3.45 1.52c0 .26 21.25.17 22.09.17s-1.1-1.6-1.77-1.69-8.87 0-8.87 0z"/><path d="M20.19 60l-.14 3.89s-.2 2 .12 2.34 1.4.56 1.4-.24-1-6.06-1-6.06z" fill="#67b8e3"/><ellipse class="cls-11" cx="19.76" cy="65.64" rx=".64" ry=".48"/><ellipse class="cls-11" cx="21.68" cy="65.45" rx=".57" ry=".43"/><ellipse class="cls-11" cx="21.31" cy="66.06" rx=".57" ry=".48"/><ellipse class="cls-11" cx="19.39" cy="65.85" rx=".47" ry=".4"/><ellipse class="cls-11" cx="20.54" cy="66.14" rx=".44" ry=".3"/><ellipse class="cls-11" cx="20.28" cy="65.5" rx=".18" ry=".27"/></g></g></svg>