<svg id="Calque_1" data-name="Calque 1" xmlns="http://www.w3.org/2000/svg" viewBox="0 0 140 120"><defs><style>.cls-4{fill:#74f0a7}.cls-5{fill:none;stroke-miterlimit:10;stroke-linecap:round;stroke:#3b4863;stroke-width:3.42px}</style></defs><rect x="37" y="19.29" width="66" height="76.52" rx="1.49" fill="#3b4863"/><path fill="#636d82" d="M40.78 37.97h58.43v35.18H40.78z"/><path fill="#8a91a1" d="M51.3 73.15l17.15-4.11 6.68.07 15.32 4.04H51.3z"/><path class="cls-4" d="M78 57.66a1.39 1.39 0 0 1 0 1.23c-.33.61-.76 0-.38-2.26.57-3.34-2.84-4.17-2.84-4.17 2.79 2.31.77 3.72.3 2.67-.53-1.2-1.73-1.56-3-3.65a7.67 7.67 0 0 1-.94-4.66c-2.33 1.2-3.53 6.64-1.72 11.23s-.78 4.88-.69 3.54-2.07-2.16-2.07-2.16c.6 1.79-1 5 0 7.53s5.6 3 6.8 2.9c5.19-.34 5.1-3.73 4.56-4.89s-.42-4.14.46-5.2-.48-2.11-.48-2.11zm-2.88 4.13a7.07 7.07 0 0 0-.29 3.79c.17.83.08 2.6-2.29 2.53-1.46 0-2.89-2.33-1.64-3.59a6.68 6.68 0 0 0 .93-8.24s2.42 1.85 2.34 3 .83.41.66-.82a4.51 4.51 0 0 1 .24 3.33z"/><path class="cls-4" d="M68.4 57.66a1.39 1.39 0 0 1 0 1.23c-.33.61-.76 0-.38-2.26.57-3.34-2.84-4.17-2.84-4.17 2.79 2.31.77 3.72.3 2.67-.53-1.2-1.73-1.56-3-3.65a7.67 7.67 0 0 1-.94-4.66C59.19 48 58 53.46 59.8 58.05s-.78 4.88-.69 3.54S57 59.43 57 59.43c.6 1.79-.95 5 0 7.53s5.6 3 6.8 2.9c5.19-.34 5.1-3.73 4.56-4.89s-.42-4.14.46-5.2-.42-2.11-.42-2.11zm-2.88 4.13a7.07 7.07 0 0 0-.29 3.79c.17.83.08 2.6-2.29 2.53-1.46 0-2.89-2.33-1.64-3.59a6.68 6.68 0 0 0 .93-8.24s2.42 1.85 2.34 3 .83.41.66-.82a4.51 4.51 0 0 1 .29 3.33zm22.1-4.13a1.39 1.39 0 0 1 0 1.23c-.33.61-.76 0-.38-2.26.57-3.34-2.84-4.17-2.84-4.17 2.79 2.31.77 3.72.3 2.67-.53-1.2-1.73-1.56-3-3.65a7.67 7.67 0 0 1-.94-4.66C78.41 48 77.21 53.46 79 58.05s-.78 4.88-.69 3.54-2.07-2.16-2.07-2.16c.6 1.79-1 5 0 7.53s5.6 3 6.8 2.9c5.19-.34 5.1-3.73 4.56-4.89s-.42-4.14.46-5.2-.44-2.11-.44-2.11zm-2.88 4.13a7.07 7.07 0 0 0-.29 3.79c.17.83.08 2.6-2.29 2.53-1.46 0-2.89-2.33-1.64-3.59a6.68 6.68 0 0 0 .93-8.24s2.42 1.85 2.34 3 .83.41.66-.82a4.51 4.51 0 0 1 .29 3.33z"/><path class="cls-5" d="M44.62 100.71l10.97-7.26h28.82"/><path class="cls-5" d="M95.39 100.71l-10.98-7.26H55.59"/><rect x="40.67" y="78.71" width="58.67" height="11.97" rx="1.97" stroke="#636d82" stroke-width=".37" stroke-miterlimit="10" fill="#3b4863"/><path d="M41.84 24.91h55.84m-55.84 1.94h55.84" stroke="#636d82" stroke-width=".37" fill="none" stroke-miterlimit="10"/></svg>