<svg xmlns="http://www.w3.org/2000/svg" viewBox="0 0 140 120"><defs><style>.cls-2{fill:#8a91a1}.cls-6{fill:#e13f79}.cls-10{fill:#c0c4cd}</style></defs><g style="isolation:isolate"><g id="Calque_1" data-name="Calque 1"><path class="cls-2" d="M64.86 18.68h34.06v84.6H64.86z"/><path d="M84.21 30.75v16.19m.84-13.15v16.18m.85-19.47v16.19m.84-15.77v16.19m0 2.61v16.19m-1.6-13.74v16.18m-1.01-20.48v16.18m1.68-16.52v16.19m2.53-15.85v16.18m.93-15.89v17.67m-1.77-5.06v16.18m-1.43-11.04V82.1m-1.44-11.89V86.4m4.22-17.88v16.19m-.84-6.83v16.19m-2.62-13.49v16.19M87.08 81v16.19m.5-65.85v17.71M88.6 30.5v16.19M89.35 31v16.19m.93 3.42v17.15m-.42 2.7v16.19m.51-53.71v16.19m1.01.25v16.19m.67-20.99v16.19m-8.51-18.38v16.18m-.59-28.11v16.18m8.01 21.63v16.19m.5-53.71v16.19" stroke-linecap="round" stroke="#a7d5ef" stroke-width=".32" fill="none" stroke-miterlimit="10"/><path d="M86.91 28.82c-.09-1.9-.36-5.25.09-5.25s7.13.13 8.13.13.59 38.45.59 38.45h1.48" stroke="#d8dae0" stroke-width="1.36" fill="none" stroke-miterlimit="10"/><ellipse cx="86.98" cy="29.24" rx="7.4" ry=".65" fill="#d8dae0"/><path class="cls-6" d="M68.71 18.2c-.84-.06-.14 10.67-.68 13.38s.48 1.91 1.09 2a14.2 14.2 0 0 0 2.1.14s-.47-15.38-2.51-15.52z"/><path style="mix-blend-mode:hard-light" fill="#a7d5ef" opacity=".65" d="M66.49 19.54h30.8v79.69h-30.8z"/><path class="cls-2" d="M69.43 53.19h.97v12.64h-.97z"/><path class="cls-6" d="M68.71 18.2c1.36.14 1 17.73 1.22 19.09s9.92.68 10.74.68.4-19.5-.14-19.91-11.82.14-11.82.14z"/><path d="M70.41 36.41s7.67.81 10.12.13m-10.12-1.08s7.67.81 10.12.13" stroke="#fee1b3" stroke-width=".68" stroke-linecap="round" fill="none" stroke-miterlimit="10"/><path d="M55.27 66.55v-8.2c0-.84 2.58-1.26 2.61.32v.9" stroke="#8a91a1" stroke-width="1.26" stroke-linecap="round" fill="none" stroke-miterlimit="10"/><path class="cls-10" d="M51.45 71.07h6.83v32.38h-6.83z"/><rect class="cls-2" x="52.9" y="63.53" width="1.47" height="2.28" rx=".74"/><rect class="cls-2" x="56.1" y="63.53" width="1.47" height="2.28" rx=".74"/><path class="cls-10" d="M58 72.92h-6c-1.87 0-10.88-2.53-10.88-4.4 0-1.88 4.28-3.4 6.16-3.4h15.89c1.88 0 5.48 1.52 5.48 3.4 0 1.87-8.75 4.4-10.65 4.4z"/><path d="M57.86 60.76s-1 1.76-.16 1.93.99-.38.16-1.93zM55 65.92h-8a9.47 9.47 0 0 0-3.46 1.52c0 .25 21.25.17 22.09.17s-1.1-1.6-1.77-1.69-8.86 0-8.86 0z" fill="#1887c9"/></g></g></svg>