<svg id="Calque_1" data-name="Calque 1" xmlns="http://www.w3.org/2000/svg" viewBox="0 0 140 120"><defs><style>.cls-2{fill:#fff}.cls-3{fill:#3b4863}.cls-5{fill:#39a14f}</style></defs><path d="M85 51.19c-.2-.09-23.47-14-23.47-14L39 50.57v29.8a1.84 1.84 0 0 0 1.84 1.84h43.73a1.89 1.89 0 0 0 .72-.15 1.82 1.82 0 0 0 1.08-1.67v-28.9a3.75 3.75 0 0 1-1.37-.3zM55.84 80.37V57.31h10.59v23.06z" fill="#ced1d8"/><path class="cls-2" d="M55.84 57.31h10.59v23.06H55.84z"/><ellipse class="cls-3" cx="64.66" cy="68.84" rx="1.25" ry=".63"/><path d="M113 44.08v27c0 1-.49 1.45-1.84 1.84L85.33 82a1.84 1.84 0 0 0 1.08-1.68V51.48a3.89 3.89 0 0 0 1-.13z" fill="#c0c4cd"/><path class="cls-5" d="M114.93 38.18L88.5 25.49a1.93 1.93 0 0 0-1.21-.14l-23.76 5.12a2.09 2.09 0 0 0-.74.23L33.91 47.89a1.53 1.53 0 0 0-.53 2.11 1.51 1.51 0 0 0 1.31.75 1.56 1.56 0 0 0 .8-.22l5.27-3.14 20.73-12.34 23.9 14.28a1.8 1.8 0 0 0 1 .31 1.75 1.75 0 0 0 .51-.07l26.1-7.4 1.62-.46a1.87 1.87 0 0 0 1.38-1.65 1.89 1.89 0 0 0-1.07-1.88z"/><path class="cls-2" d="M96.76 66.43l-6.29 2V55.77l6.29-1.72v12.38zm11.48-3.67l-5.96 1.98.07-12.26 5.89-1.66v11.94z"/><path class="cls-5" d="M16.93 92.51v-5.56h96.24l16.24-15.94v4.41l-16.24 17.09H16.93z"/><path d="M127.11 74.45a12.59 12.59 0 0 1-2.14 1.4c-.27 0-.37 1.6-.5 1.71-.32.25-2.74 1.43-2.74 1.8v.53l-.1-.3v.5s-.06-.43-.2-.1-1 .84-1 1.11-.58.82-.61 1a2.63 2.63 0 0 1-1.46.59c-.24-.1-.3 1.27-.3 1.27s.06-.57-.24-.57.07 1 0 .73-.5-.36-.37-.2a1.86 1.86 0 0 1 .14.77s-.37-.63-.47-.16-.74 1.07-1.1 1-.94 1.14-1.07 1.34-.4.2-.67-.07-.47.61-.47.61-.53-.07-.43.06-.07.87-.07.87-.07-1.07-.37-.57a.86.86 0 0 0 .13 1l-.73-.73s.94 1.3.27.67-3.48.4-3.48.4l-.47-.17v.3a.54.54 0 0 0-.37-.1c-.2 0 .14.23.14.23a5.33 5.33 0 0 0-1.14-.63c-.27 0-1.14.73-1.37.73s-2.44-.33-2.44-.33-.5.5-.27.33-.23-.36-.23-.36l-.27.36-.16-.26-.57.23s.36-.07 0-.23-.43.1-.43.1a1.22 1.22 0 0 0-.64-.17 5.45 5.45 0 0 1-2.57-.17c-.63-.4-3.57.54-3.57.54l-.74-.5v.43l-.17-.23a.22.22 0 0 1-.23.16 8.84 8.84 0 0 1-1.9-.66c-.41-.24-2.64.7-2.91.73s-1.1-.53-1.31-.63-.23.5-.23.5-.3-.67-.47-.47.1.6.1.6-.5-.73-.46-.57-.1.64-.17.34-.7-.4-.7-.4l.23.23s-3-.33-3.27-.4a29.63 29.63 0 0 0-3.11.43s-1-.46-1.2-.33a.65.65 0 0 0-.21.37l-.2-.5-.06.5-.44-.4s.27.43-.06.26-4.11-.26-4.72-.4a40.7 40.7 0 0 0-4.87.34 6.79 6.79 0 0 1-2.08-.5l.27.43-.67-.4s.4.47-.2.23-4.14.27-4.51.34-3.94-.4-4.08-.44-.1.4-.1.4l-.16-.3v.3a1.06 1.06 0 0 0-.47-.26 3.15 3.15 0 0 0-1.77.2c-.34.2-.9-.2-1.07-.47s-.44.83-.5.43-.27-.33-.27-.33v.37l-.2-.4v.63s-.06-.43-.87-.43-2.9.33-3.17.3a36.9 36.9 0 0 0-4.51-.2.82.82 0 0 0-.47.33l-.23-.53-.24.56-.13-.53-.07.33s-.16-.4-.63-.16a38.46 38.46 0 0 1-4.35.58 12.32 12.32 0 0 1-1.6-.13 3.38 3.38 0 0 0-1.4-.2c-.79 0-.07 0-.59.13a1.89 1.89 0 0 1-1.15-.25v.33l-.22-.31-.2.13v-.23l-.14.31v-.47s.31.13-.62.28-.7.2-.72 0-1.44.02-1.44.02l-.3.11-.23-.23-.08.12-.09-.25s-.08.47-.08.54-.32-.17-.5-.45-1.79.76-2.22.58-1.19-.4-1.26-.2.42.37.3.4-.63-.4-.63-.4l-.05.6-.09-.72-.16.4v-.3s-.19.24-.17 0-.48-.1-.62 0-.15-.39-.22-.44-.65.07-.88 0-.28.35-.28.35l-.14-.32-.12.27a.17.17 0 0 0-.18-.2c-.2 0-.72.68-.72.68s-.55-.2-.68-.45-.42.23-.5.23-.64.1-.47-.21-.22-.14-.29.06-.93 0-.93 0l.53-.4h-.93s.74-.65.14-.68c-.43 0-.77 0-.81.06.17-.23.18-.4.28-.39a5.06 5.06 0 0 0-.9-.31c-.34-.09-.52-.21.23-.14s.81-.16.05-.45-.47-.5-.47-.5 0 .2.55.29-.86-.94-.86-.94c-.2-.74.63.15.33-.25-.57-.76.13.09-.57-1.2.5.93.6.43.6.43a1.55 1.55 0 0 0-.7-1c-.23-.11.51.1.82.26s-.27-.79-.27-.79a.44.44 0 0 0 .14.27c.12.08.72-.43.42-.66s-.58-1-.36-.78.6.6.75.35.15-.9-.17-1.07.29-.13.37.3.14-.51-.1-.83.35 0 .42.77c-.23-1.26.1-1.21-.08-1.35s.47.55.45.68c-.19.93.32.49.42-.18.15-1-1.28-1.31.61-.48l-.05-.81s.62.63.93.53c.53-.16-.08-1.35-.08-1.35a1.36 1.36 0 0 0 1.08.93.68.68 0 0 1-.12-.73c-.09.25.47.53.47.53-.32-.3.15-1.08.15-1.08a4.84 4.84 0 0 0 .38 1s.26 0 .12-.37a10.58 10.58 0 0 0-.5-1.14c.17 0 .64.42.74.74a1.37 1.37 0 0 0 .49.58s-.22.11-.34-.65a4.89 4.89 0 0 1 0-1.41 1.84 1.84 0 0 1 .15.86c0 .7.67 1 .62.82l-.34-1.2.53 1.14h.21c-.58-.69-.34-1.58-.33-1.34a3.47 3.47 0 0 0 .75 1.26 7.13 7.13 0 0 0-.19-1.49c.19.2.29 1.58.54 1.43s-.23-1.12-.23-1.12c.49.25.62 1.07.69 1a8.16 8.16 0 0 0-.3-1.46c.23.14.4 1.49.59 1.36S23.78 76 23.78 76c.43.15.93 2.64 1 2.28s-.59-1.73-.59-1.73a2.68 2.68 0 0 1 .81 1.4 4.53 4.53 0 0 1 0-1.3s.2 1.32.33 1.28a8.37 8.37 0 0 0 0-1.81c.28.47.16 1.87.37 1.7s.2-1.49.2-1.49-.09 1.53.29 1.45.07-1.07.07-1.07l.3.91.13-.12a1.85 1.85 0 0 1-.32-1.2 2.16 2.16 0 0 0 .64 1.1 18.94 18.94 0 0 0-.73-2c.25.18 1.45 3.21 1 2s-.2-1.36-.2-1.36c0 .7.76 2.12.49 1.06a2.42 2.42 0 0 1-.08-1.43s.23 1.15.33 1.37.06-.56.06-.56a3.46 3.46 0 0 1 .1.69l.29-.09a4.16 4.16 0 0 1-.35-1.2c-.06.33.84 1.62.6 1s0-.9 0-.9c.05.85.32 1 .32 1a.52.52 0 0 0 .07-.92 1.46 1.46 0 0 1-.41-1.39 5.15 5.15 0 0 0 .76 1.64c-.61-1.35-.32-1.79-.32-1.79-.11.54.76 1.93.76 1.93l-.15-.85.45.94V75s.2 1.23.36 1.12-.08-1.83-.08-1.83a5.91 5.91 0 0 1 .25 1.3c0 .35.62.74.41.37a6.63 6.63 0 0 1-.21-1.82s.34 1.54.45 1.39a12 12 0 0 0-.13-2s.22 1 .24 1.27.71 1.86.3.43.3-1.41.3-1.41c-.41.74.55 1.81.55 1.81l.12-.07a.77.77 0 0 1-.19-.72c-.08.25.43.56.43.56-.33-.3-.11-1-.11-1a2.87 2.87 0 0 0 .63.88s.17.09 0-.32a5.74 5.74 0 0 0-.67-1.12c.18 0 .65.42.75.74a1.3 1.3 0 0 0 .49.58s-.22.11-.35-.65a11.37 11.37 0 0 1-.1-1.7 3.29 3.29 0 0 1 .24 1.15c0 .7.68 1 .63.82s-.35-1.2-.35-1.2l.54 1.14h.21c-.58-.69-.35-1.58-.33-1.34a3.21 3.21 0 0 0 .75 1.26 7.13 7.13 0 0 0-.13-1.56c.18.2.28 1.58.53 1.43s-.22-1.12-.22-1.12c.48.25.61 1.08.68 1a8 8 0 0 0-.3-1.45c.24.13.41 1.49.59 1.36s-.61-2.3-.61-2.3c.42.15.93 2.64 1 2.28s-.58-1.73-.58-1.73a3.12 3.12 0 0 1 .81 1.4 4.17 4.17 0 0 1 0-1.3s.19 1.33.32 1.28a8.28 8.28 0 0 0 0-1.8c.28.46.17 1.86.38 1.69s.2-1.49.2-1.49-.1 1.54.28 1.45.08-1.06.08-1.06l.29.9.14-.11a1.89 1.89 0 0 1-.32-1.21c0 .35.58 1.18.64 1.1a15.05 15.05 0 0 0-.29-1.64c.25.17.09-.16.34.75v7.63l.42 1.77a3.89 3.89 0 0 1 .28-2c-.23 1.92.49 1.91.49 1.91a1 1 0 0 1 0-1c-.2.29.33.87.33.87-.3-.5.27-1.36.27-1.36a3.7 3.7 0 0 0 .45 1.35s.17.18.16-.38a7.29 7.29 0 0 0-.36-1.67 1.74 1.74 0 0 1 .65 1.23 1.75 1.75 0 0 0 .39.91s-.32 0-.18-.94a14.59 14.59 0 0 1 .54-2.19 4.6 4.6 0 0 1-.15 1.55c-.24.89.47 1.48.46 1.27s0-1.64 0-1.64l.29 1.64.25.14c-.46-1.1.18-2.12.11-1.82a4.41 4.41 0 0 0 .45 1.88 9.4 9.4 0 0 0 .38-2c.15.32-.27 2.09.11 2s.15-1.49.15-1.49c.52.5.36 1.59.49 1.48a10.67 10.67 0 0 0 .19-1.94c.24.26-.08 2 .2 1.94s.16-3.07.16-3.07c.48.35.13 3.68.4 3.26s0-2.4 0-2.4a4 4 0 0 1 .47 2.08 5.44 5.44 0 0 1 .55-1.62s-.28 1.73-.1 1.73a10.89 10.89 0 0 0 .66-2.28c.17.69-.53 2.4-.2 2.28s.84-1.8.84-1.8-.72 1.89-.21 1.94.51-1.31.51-1.31v1.25l.22-.09a2.53 2.53 0 0 1 .03-1.62 2.87 2.87 0 0 0 .34 1.61 26.57 26.57 0 0 0-.12-2.86c.25.32.57 4.6.47 2.86s.3-1.78.3-1.78c-.26.89.12 3 .2 1.52s.45-1.82.45-1.82-.16 1.53-.12 1.84.3-.68.3-.68a5.19 5.19 0 0 1-.15.91h.4a5.3 5.3 0 0 1 0-1.65c-.21.39.41 2.37.36 1.47s.41-1.12.41-1.12c-.27 1.1 0 1.38 0 1.38a.69.69 0 0 0 .5-1.14 1.91 1.91 0 0 1 0-1.89 6.79 6.79 0 0 0 .37 2.35c-.24-1.93.3-2.38.3-2.38-.35.64.19 2.73.19 2.73l.14-1.14.19 1.36.46-1.81s-.23 1.62 0 1.56.61-2.34.61-2.34a8 8 0 0 1-.19 1.73c-.16.44.48 1.18.36.63a8.83 8.83 0 0 1 .48-2.34s-.17 2.06 0 1.91a16 16 0 0 0 .61-2.54s-.11 1.39-.19 1.69.16 2.61.22.66a2.86 2.86 0 0 1 1.14-2.55c-.8.76-.24 3.39-.24 3.39h.18a1 1 0 0 1 0-1c-.2.28.32.87.32.87-.29-.5.28-1.37.28-1.37a3.73 3.73 0 0 0 .44 1.36s.18.18.17-.38a7.29 7.29 0 0 0-.39-1.67 1.73 1.73 0 0 1 .64 1.22 1.75 1.75 0 0 0 .39.92s-.32 0-.18-1a15.1 15.1 0 0 1 .55-2.18 4.43 4.43 0 0 1-.16 1.54c-.23.89.47 1.49.47 1.27v-1.63l.22 1.63.25.14c-.46-1.09.18-2.12.11-1.82a4.42 4.42 0 0 0 .45 1.89 9.58 9.58 0 0 0 .37-2c.16.32-.26 2.09.12 2s.15-1.49.15-1.49c.51.51.36 1.59.49 1.48a10.53 10.53 0 0 0 .18-1.94c.25.26-.07 2 .21 1.94s.16-3.07.16-3.07c.47.35.13 3.68.4 3.27a6.65 6.65 0 0 0 0-2.41 3.7 3.7 0 0 1 .46 2.08 5.65 5.65 0 0 1 .56-1.62s-.28 1.74-.1 1.74a10.94 10.94 0 0 0 .7-2.33c.18.7-.52 2.41-.19 2.28s.84-1.8.84-1.8-.72 1.9-.22 1.94.52-1.31.52-1.31v1.26l.22-.1a2.42 2.42 0 0 1 .07-1.64 2.81 2.81 0 0 0 .37 1.64 26.65 26.65 0 0 0-.12-2.87c.25.32.57 4.6.47 2.86s.29-1.77.29-1.77c-.25.88.13 3 .2 1.52a3.11 3.11 0 0 1 .46-1.83s-.16 1.53-.12 1.84.3-.68.3-.68a5.19 5.19 0 0 1-.15.91h.4a5.37 5.37 0 0 1 0-1.65c-.2.39.42 2.37.37 1.48S68 80 68 80c-.27 1.1 0 1.38 0 1.38a.69.69 0 0 0 .45-1.14 1.92 1.92 0 0 1 0-1.9 6.75 6.75 0 0 0 .32 2.35c-.24-1.93.3-2.37.3-2.37-.35.64.18 2.72.18 2.72l.15-1.13.2 1.36.46-1.82s-.23 1.63 0 1.56.62-2.33.62-2.33a8.77 8.77 0 0 1-.19 1.73c-.17.43.48 1.18.36.62a8.53 8.53 0 0 1 .45-2.36s-.17 2.06 0 1.92A16.33 16.33 0 0 0 72 78s-.12 1.4-.19 1.7.16 2.61.21.65a2.87 2.87 0 0 1 1.14-2.54c-.8.75-.31 3.17-.31 3.17v.09c0 .31.3-1.6.3-1.6a6.7 6.7 0 0 1 0 1.83h.19a4.91 4.91 0 0 1 .09-1.65c0 .68.41 2.37.37 1.47s.4-1.11.4-1.11c-.26 1.09 0 1.37 0 1.37a1.18 1.18 0 0 0 .22-1 3.12 3.12 0 0 1 .25-2 6.79 6.79 0 0 0 .33 2.36c-.24-1.93.3-2.38.3-2.38-.35.65.19 2.73.19 2.73l.18-1.09.19 1.35.46-1.81s-.23 1.63 0 1.56.61-2.34.61-2.34a8 8 0 0 1-.19 1.73c-.16.44.48 1.18.37.63a8.51 8.51 0 0 1 .44-2.36s-.16 2.06 0 1.91a15 15 0 0 0 .62-2.54s-.12 1.39-.2 1.69.16 2.62.22.66a2.88 2.88 0 0 1 1.14-2.55c-.8.76-.24 3.39-.24 3.39h.18a1 1 0 0 1 0-1c-.2.29.33.87.33.87-.3-.5.27-1.36.27-1.36a3.7 3.7 0 0 0 .45 1.35s.17.18.16-.38a7.29 7.29 0 0 0-.39-1.67 1.7 1.7 0 0 1 .65 1.23 1.75 1.75 0 0 0 .39.91s-.32.05-.18-.95a14.67 14.67 0 0 1 .54-2.18 4.48 4.48 0 0 1-.16 1.55c-.23.88.48 1.48.47 1.27s0-1.64 0-1.64l.22 1.63.25.14c-.46-1.09.18-2.11.11-1.81A4.41 4.41 0 0 0 83 81.1a9.4 9.4 0 0 0 .38-2c.15.31-.27 2.08.11 2s.15-1.49.15-1.49c.52.51.36 1.6.49 1.49a10.78 10.78 0 0 0 .19-2c.24.26-.08 2 .2 1.94s.16-3.07.16-3.07c.47.36.13 3.68.4 3.27a6.65 6.65 0 0 0 0-2.41 4 4 0 0 1 .37 2.17 5.57 5.57 0 0 1 .55-1.67s-.28 1.74-.1 1.74l.57.53a3.17 3.17 0 0 1-.34-1.6c.35 1.56.91 1.35.91 1.35a.83.83 0 0 1-.24-.77c-.08.28.49.59.49.59-.36-.31-.16-1.14-.16-1.14a3.16 3.16 0 0 0 .72.94s.18.09 0-.35a6.39 6.39 0 0 0-.77-1.19c.19 0 .72.43.84.78a1.45 1.45 0 0 0 .55.6s-.23.13-.39-.68a11.4 11.4 0 0 1-.18-1.85 3.75 3.75 0 0 1 .3 1.24c.06.76.78 1 .72.86s-.42-1.28-.42-1.28l.62 1.21h.23c-.66-.72-.44-1.7-.41-1.44a3.53 3.53 0 0 0 .86 1.34 7.56 7.56 0 0 0-.25-1.66c.2.2.36 1.7.63 1.52s-.29-1.2-.29-1.2c.54.26.71 1.14.79 1a8.88 8.88 0 0 0-.39-1.56c.26.13.5 1.6.69 1.45s-.71-2.43-.71-2.43c.46.14 1.1 2.83 1.2 2.43s-.7-1.85-.7-1.85a3 3 0 0 1 .93 1.48 4.78 4.78 0 0 1 0-1.41s.26 1.43.4 1.38a9 9 0 0 0-.12-2c.33.5.25 2 .48 1.83s.16-1.63.16-1.63 0 1.67.36 1.57S93 78 93 78l.35 1 .15-.13a2 2 0 0 1-.4-1.3c0 .39.69 1.26.74 1.17a21.71 21.71 0 0 0-.84-2.2c.27.18 1.7 3.42 1.14 2.09s-.26-1.46-.26-1.46c0 .76.91 2.27.58 1.13a2.47 2.47 0 0 1-.15-1.54 14.15 14.15 0 0 0 .41 1.46c.12.24 0-.61 0-.61a4.9 4.9 0 0 1 .13.75l.31-.11a4.42 4.42 0 0 1-.37-1.25c-.05.36 1 1.73.69 1.05s0-1 0-1c.09.93.39 1.07.39 1.07a.56.56 0 0 0 0-1 1.58 1.58 0 0 1-.49-1.49 5.49 5.49 0 0 0 .89 1.74c-.71-1.43-.42-1.93-.42-1.93-.09.6.89 2.07.89 2.07l-.19-.92.52 1L97 76s.26 1.32.43 1.21-.16-2-.16-2a6.87 6.87 0 0 1 .33 1.4c0 .38.69.78.45.38a7.19 7.19 0 0 1-.3-2s.44 1.65.54 1.48a13.3 13.3 0 0 0-.22-2.14s.29 1.11.32 1.37.83 2 .34.45a2.37 2.37 0 0 1 .2-2.3c-.42.81.74 2.71.74 2.71l.13-.09a.8.8 0 0 1-.24-.77c-.08.28.49.59.49.59-.37-.31-.16-1.14-.16-1.14.07.34.72.94.72.94s.18.08 0-.35a6 6 0 0 0-.76-1.19c.19 0 .72.43.84.78a1.45 1.45 0 0 0 .55.6s-.23.13-.4-.68a12.13 12.13 0 0 1-.17-1.85 3.75 3.75 0 0 1 .3 1.24c.06.76.77 1 .71.86s-.42-1.28-.42-1.28l.62 1.21h.23c-.65-.73-.43-1.7-.41-1.44a3.66 3.66 0 0 0 .87 1.34 8.21 8.21 0 0 0-.26-1.66c.21.2.37 1.69.64 1.52s-.29-1.2-.29-1.2c.54.25.71 1.14.78 1a8.91 8.91 0 0 0-.38-1.56c.26.13.49 1.6.69 1.45S103 72.6 103 72.6c.47.14 1.11 2.83 1.21 2.43s-.7-1.86-.7-1.86a3.07 3.07 0 0 1 .93 1.49 4.43 4.43 0 0 1 0-1.41s.25 1.43.4 1.38a9 9 0 0 0-.12-2c.33.49.25 2 .47 1.83s.16-1.63.16-1.63 0 1.67.37 1.57 0-1.16 0-1.16l.35 1 .14-.13a2.07 2.07 0 0 1-.39-1.3c0 .39.68 1.25.74 1.17s-.88-2.19-.88-2.19c.28.18 1.7 3.42 1.15 2.09s-.26-1.46-.26-1.46c0 .76.9 2.26.57 1.13a2.5 2.5 0 0 1-.14-1.54 14.15 14.15 0 0 0 .41 1.46c.11.23 0-.61 0-.61a4.31 4.31 0 0 1 .14.75l.3-.11a4.33 4.33 0 0 1-.42-1.29c-.06.36 1 1.73.69 1s0-1 0-1c.09.93.38 1.07.38 1.07a.56.56 0 0 0 0-1 1.6 1.6 0 0 1-.5-1.49 5.71 5.71 0 0 0 1 1.81c-.71-1.43-.41-1.93-.41-1.93-.1.6.89 2.07.89 2.07l-.19-.92.52 1-.14-1.54s.27 1.33.44 1.21a7.37 7.37 0 0 0-.16-2 6.86 6.86 0 0 1 .32 1.4c0 .38.7.78.46.38a6.87 6.87 0 0 1-.3-2s.43 1.66.54 1.49a13.43 13.43 0 0 0-.22-2.15s.29 1.12.32 1.37.83 2 .34.46a2.39 2.39 0 0 1 .19-2.3c-.41.81.74 2.7.74 2.7l.15-.09-.22-1.07a3 3 0 0 1 .23-1.54c-.18 1.46.37 1.46.37 1.46a.75.75 0 0 1 0-.74c-.16.21.24.66.24.66-.22-.38.22-1 .22-1a2.85 2.85 0 0 0 .33 1s.13.13.13-.29a5.59 5.59 0 0 0-.29-1.27 1.28 1.28 0 0 1 .48.93 1.36 1.36 0 0 0 .29.7s-.24 0-.13-.72a11.71 11.71 0 0 1 .43-1.66 3.34 3.34 0 0 1-.13 1.18c-.18.67.35 1.13.35 1v-1.25l.16 1.25.19.11c-.34-.84.15-1.61.09-1.38a3.35 3.35 0 0 0 .33 1.43 7.43 7.43 0 0 0 .3-1.52c.11.24-.21 1.59.07 1.52s.13-1.13.13-1.13c.39.39.26 1.21.36 1.13a8.07 8.07 0 0 0 .15-1.48c.19.2-.07 1.55.15 1.48a8.87 8.87 0 0 0 .14-2.33c.36.27.07 2.8.28 2.48a5.19 5.19 0 0 0 0-1.83 3 3 0 0 1 .34 1.59 4.31 4.31 0 0 1 .43-1.23s-.23 1.32-.09 1.32a8.14 8.14 0 0 0 .52-1.73c.13.52-.42 1.82-.17 1.73s.65-1.36.65-1.36-.56 1.43-.17 1.47.4-1 .4-1v1l.16-.07a1.88 1.88 0 0 1 .07-1.25 2.15 2.15 0 0 0 .27 1.25c.07-.06-.07-2.18-.07-2.18.18.25.4 3.5.34 2.18s.23-1.35.23-1.35c-.2.67.07 2.24.14 1.16a2.37 2.37 0 0 1 .36-1.39s-.13 1.16-.11 1.4.24-.51.24-.51a4.34 4.34 0 0 1-.12.69h.3a4 4 0 0 1 0-1.25c-.15.29.3 1.8.27 1.12s.32-.85.32-.85c-.21.83 0 1.05 0 1.05a.52.52 0 0 0 .35-.86c-.43-.72 0-.94 0-.94-.15.41.26 1.29.26 1.29-.17-1.47.21-1.31.21-1.31-.27.49.16 1.57.16 1.57l.12-.85.14 1 .36-1.38s-.19 1.24 0 1.19.48-1.77.48-1.77a6.1 6.1 0 0 1-.15 1.31c-.13.33.35.9.27.48a3.12 3.12 0 0 1 .26-1.27s0 1 .1.93a6.66 6.66 0 0 0 .38-1.41 4.5 4.5 0 0 1-.06.77c0 .23 0 2 .16.5.07-.83.66-.8.66-.8-.62.58 0 1.45 0 1.45a9.94 9.94 0 0 1 .61-1.38 7.86 7.86 0 0 0-.21.9c0 .29.13.76.33.27s.37-.6.3-.35.42.63.35.23a2.41 2.41 0 0 1 .19-1c0 .14.15 1.69.25 1.17a2.39 2.39 0 0 1 .43-.93 2.29 2.29 0 0 0-.23.91c0 .41.3.17.26-.13s0-1 .1-.47.51.72.39.7-.37-1.08.12-1.2c-.46.6.48 1.29.43 1.17a10 10 0 0 1 0-1.19s.18 1.36.18.89.13-.9.13-.53v.65a.9.9 0 0 1 .37-.63c.18 0 .28-.13 0 .09a.32.32 0 0 0-.09.47c.15.22.3 0 .59-.2s.32-.3.18 0-.5.52-.35.65.76-.13.76-.13-.48.42-.68.42-.1.16-.1.16h.37a1.9 1.9 0 0 1-.44.14c-.08 0-.11.18-.11.18h-.17s.53.14.73 0 .22.18 0 .23a1.76 1.76 0 0 1-.38 0 1.32 1.32 0 0 0 .26.23c.1 0-.38 0-.36.14a.56.56 0 0 0 .18.33s-.45-.23-.47-.35.22.47.3.52-.27 0-.38-.1-.19.18-.19.18l-.1-.13s0 .35-.08.42-.3-.07-.3-.07a.4.4 0 0 1-.23.28c-.22.12-.57 0-.52.24a2 2 0 0 1 .05.42l-.14-.32-.11.35-.09-.2s0 .42.09.45-.25.08-.29-.12.03.53.03.53z" fill="#71b051"/><path class="cls-5" d="M15.8 44.67a7.68 7.68 0 0 0 .76-.74c.2-.26.9-1.1.49-1.64s-1.36-1.21-1.72-1.72c-.56-.79-.84-4.67 0-5.53a5.28 5.28 0 0 1 2.64-1.84c1-.15 3.94.24 4.53.09s.47.12.3.26.17.3.17.3a6.61 6.61 0 0 0-.32.65c0 .12.47 1.63.47 2a11.65 11.65 0 0 0 .74 2c.18.42 0 .62-.44.62s-.15.77-.18 1.13a7.6 7.6 0 0 1-.12 1.45c-.12.33-2 .11-2.12.81s-.19 1.54 1.63 2a5.14 5.14 0 0 1-3.51 1.68 5.48 5.48 0 0 1-3.32-1.52z"/><path class="cls-3" d="M25.46 48.69l-.38-.09c-.38 1.61-.5 11.94.51 19.77v.21c-4.35.86-12.8.12-12.8.12a140 140 0 0 0-.87-19.83v-.24h-.38v.26a140.23 140.23 0 0 1 .87 19.64c-.86-1-3.12-4.32-2.66-10 .23-2.91.44-11 1-11.87s3.8-1.6 5.51-2.58a4.79 4.79 0 0 0 6.27.17c1.59.94 3.54 1.17 3.89 1.7 1 1.49 1.5 12.88 1.5 13.17.18 5.4-1.48 8.17-1.93 8.78-.99-7.68-.89-17.65-.53-19.21z"/><path d="M21.84 97c0-4.38 3.12-25.46 3.75-28.44-4.31.9-12.86.18-12.86.18s2.3 26.05 2 28.46a3.7 3.7 0 0 0 1.93.12C17 96 18.59 73.85 18.63 73.57s.79-1 .83.44.44 22.6.44 22.87 1.94.12 1.94.12z" fill="#5e5e5e"/><path class="cls-3" d="M14.87 97.44a16.29 16.29 0 0 0-2.08 1.08c-.79.47-.58 1-.27 1a25 25 0 0 0 4.17-.39c.37-.19.43-.56.27-1.37-.06-.22-2.09-.32-2.09-.32zm7.05-.24a13.85 13.85 0 0 1 1.9 1c.79.47.58 1 .26 1a24.12 24.12 0 0 1-4.22-.2c-.37-.18-.37-.74-.21-1.55.05-.28 2.27-.25 2.27-.25zM17 42.13c.21.8-2.31-1.8-2.24-2.29a30 30 0 0 0-.32-3c0-.37.32-2 .74-2.21s1.27-1.22 2.06-1.43 3.9.21 4.69.05a2.12 2.12 0 0 1 1.4.21c.16.06-.21.59-.21.59s.15.59-.32.65-1.53.37-1.68.37-1.48.56-1.22 1.35-1.56 1.91-1.5 2.58c.15 1.66-.76.81-.72.1s-1.35-.3-.73 1.19c.35.81-.06 1.39.05 1.84z"/></svg>