<svg id="Calque_1" data-name="Calque 1" xmlns="http://www.w3.org/2000/svg" viewBox="0 0 140 120"><defs><style>.cls-1{fill:#3f4144}.cls-3{fill:#3b4863}.cls-4{fill:#ffa929}</style></defs><rect class="cls-1" x="91.64" y="97.38" width="1.39" height="3.33" rx=".34"/><rect class="cls-1" x="105.62" y="97.38" width="1.39" height="3.33" rx=".34"/><path d="M100.71 100.33c-5.65.43-12-2.27-12-7.79V47.59c0-5.52 4.89-8 10.55-8.07 5.59-.08 9.91 2.15 9.91 7.56v44.1c-.03 5.41-2.86 8.72-8.46 9.15z" fill="#d8dae0"/><path class="cls-3" d="M96.08 88.55h5.18v5.69h-5.18z"/><circle class="cls-4" cx="98.74" cy="92.61" r=".42"/><circle class="cls-4" cx="99.93" cy="92.61" r=".42"/><circle class="cls-4" cx="97.55" cy="92.61" r=".42"/><path fill="#c0c4cd" d="M97.44 89.85h2.47v1.3h-2.47z"/><path class="cls-4" d="M33.56 41.31a7.54 7.54 0 0 0 .83-.8c.21-.28 1-1.19.53-1.77s-1.48-1.31-1.86-1.86c-.61-.86-.91-5.06 0-6a5.73 5.73 0 0 1 2.85-2c1.09-.16 4.26.26 4.9.1s.51.13.32.29.19.32.19.32a6.43 6.43 0 0 0-.35.7c0 .13.51 1.77.51 2.12a11.88 11.88 0 0 0 .8 2.14c.2.45 0 .68-.48.68s-.16.83-.19 1.22a8.18 8.18 0 0 1-.16 1.55c-.13.35-2.13.11-2.3.87s-.19 1.67 1.77 2.14a5.54 5.54 0 0 1-3.79 1.82 6 6 0 0 1-3.57-1.52z"/><path class="cls-3" d="M44 45.66l-.41-.1c-.41 1.75-.55 12.91.54 21.39v.23c-4.71.93-13.84.13-13.84.13a152.53 152.53 0 0 0-.95-21.46v-.25h-.41v.27a149.85 149.85 0 0 1 .94 21.26c-.96-1.13-3.4-4.65-2.87-10.78.26-3.15.48-11.87 1.06-12.84s4.11-1.73 6-2.79a5.18 5.18 0 0 0 6.78.18c1.73 1 3.84 1.27 4.22 1.84C46 44.35 46.6 56.68 46.6 57c.19 5.84-1.61 8.84-2.09 9.51-1.02-8.38-.89-19.17-.51-20.85z"/><path d="M40.1 97.88c0-4.75 3.37-27.55 4-30.77-4.65 1-13.91.2-13.91.2s2.49 28.17 2.2 30.78a4 4 0 0 0 2.09.13c.3-1.41 2.06-25.34 2.1-25.64s.85-1.07.9.47.52 24.44.52 24.74 2.1.09 2.1.09z" fill="#5e5e5e"/><path class="cls-3" d="M32.56 98.39a20 20 0 0 0-2.25 1.17c-.86.52-.63 1.09-.29 1.14a27.07 27.07 0 0 0 4.51-.43c.4-.19.46-.59.29-1.48-.06-.28-2.26-.4-2.26-.4zm7.62-.26a16.29 16.29 0 0 1 2.06 1c.85.52.62 1.09.28 1.14a28.31 28.31 0 0 1-4.57-.22c-.4-.2-.39-.8-.22-1.69.05-.25 2.45-.23 2.45-.23zm-5.31-59.57c.23.87-2.5-2-2.42-2.47a31.37 31.37 0 0 0-.35-3.26c0-.4.35-2.17.8-2.39s1.37-1.32 2.23-1.55 4.22.23 5.08.06a2.19 2.19 0 0 1 1.51.23c.17.06-.23.63-.23.63s.16.65-.34.71-1.65.4-1.82.4-1.6.6-1.32 1.46-1.7 2.08-1.64 2.76c.17 1.79-.81.88-.77.1s-1.46-.32-.79 1.29c.38.92-.06 1.55.06 2.03z"/><path class="cls-4" d="M52.47 41.31a7.73 7.73 0 0 0 .82-.8c.21-.28 1-1.19.53-1.77s-1.47-1.31-1.82-1.86c-.61-.86-.91-5.06 0-6a5.77 5.77 0 0 1 2.85-2c1.09-.16 2.73.47 3.37.31s.77.22.57.38.8-.11.8-.11a3.49 3.49 0 0 1 .33.83c0 .13.51 1.77.51 2.12a12.59 12.59 0 0 0 .41 2.51c.19.45.32.69-.13.69s-.21.49-.24.87a9 9 0 0 1-.26 1.66c-.12.36-1.91 0-2.08.75s-.2 1.67 1.77 2.14c0 0-1.9 3.34-4 3.24s-3.43-2.96-3.43-2.96zM59 97.88c0-4.75 3.37-27.55 4.06-30.77-4.66 1-13.91.2-13.91.2s2.49 28.17 2.2 30.78a4 4 0 0 0 2.09.13c.3-1.41.59-25.47 2.09-25.64.31 0 1.89-1.11 1.94.44s-.57 24.47-.57 24.77 2.1.09 2.1.09z"/><path class="cls-3" d="M62 45.37l-.41-.1C61.13 47 62 58.47 63.06 67c0 0 1.22 10.13 1.17 10.14-4.71.93-15.47 0-15.47 0 .38-7.4 1.35-26.84.84-31.69v-.26h-.41v.27c.52 4.8-.05 14.33-.43 21.66-.92-1.12-1.82-7.91-1.32-14 .26-3.15.3-9 .88-10s2.74-1.32 4.59-2.38c.08 3.47 4.87 3.84 6.78.18 1.73 1 2.87 1 3.24 1.54 1.07 1.61 1.63 13.94 1.63 14.25.19 5.84-.64 9.13-1.12 9.8-1.05-8.38-1.88-19.46-1.44-21.14zM51.47 98.39a20.87 20.87 0 0 0-2.26 1.17c-.85.52-.63 1.09-.28 1.14a27.07 27.07 0 0 0 4.51-.43c.4-.19.45-.59.28-1.48-.06-.28-2.25-.4-2.25-.4zm7.62-.26a15.62 15.62 0 0 1 2 1c.86.52.63 1.09.29 1.14a28.31 28.31 0 0 1-4.57-.22c-.4-.2-.4-.8-.23-1.69.11-.25 2.51-.23 2.51-.23zm-7.84-57.97c0-.89-.57-3.74-.49-4.26s.25-2.67.25-3.07a8 8 0 0 1 1.68-2.95 8.2 8.2 0 0 1 1.93-1c.86-.23 1.31.14 2.16 0a5.36 5.36 0 0 1 2.52.44 5.34 5.34 0 0 1 1.24 1.84c.16.62 1 8.41.39 8.46-.16 0-2.46 1-2.91.13-.35-.73.68-1.72.84-3.42.18-2-.25-3.84-.45-3.85-.52 0-3.26.08-4.16 0-1.07-.13-1.45 1.43-1.39 2.11.11 1.12-.17 2.6.49 3.48.51.69.81 1.17.59 1.74-.36.86-2.7.68-2.69.35z"/><path class="cls-4" d="M70 61a5.48 5.48 0 0 0 .56-.53c.14-.19.65-.8.35-1.18s-.73-.9-1-1.26c-.41-.58-.86-3.37-.27-4a5.29 5.29 0 0 1 2.55-1 7.06 7.06 0 0 1 2.73.62c0 .08.5 2.88 0 4a5.94 5.94 0 0 1-.86 1.25c-.18.17-.32 0-.43.48s0 1.14 1.29 1.46c0 0-1.27 2.23-2.66 2.17S70 61 70 61zm4.37 37.82c0-3.17 2.25-18.41 2.71-20.56-3.11.66-9.29.13-9.29.13S69.45 97.22 69.26 99a2.67 2.67 0 0 0 1.39.09c.2-1 .4-17 1.4-17.14.2 0 1.27-.73 1.29.3S73 98.56 73 98.76s1.37.06 1.37.06z"/><path class="cls-3" d="M76.34 63.74l-.27-.07c-.28 1.16.28 8.82 1 14.48 0 0 .82 6.77.78 6.78-3.14.62-10.33 0-10.33 0 .25-4.94.9-17.93.56-21.17v-.17h-.28v.18c.35 3.21 0 9.57-.28 14.47-.62-.74-1.22-5.28-.89-9.38.17-2.1.2-6 .59-6.69s1.83-.88 3.07-1.59c0 2.32 3.25 2.56 4.53.12 1.15.68 1.91.65 2.16 1 .71 1.07 1.09 9.31 1.09 9.52.13 3.9-.43 6.1-.75 6.55-.69-5.51-1.24-12.91-.98-14.03zm-7 35.42a12.3 12.3 0 0 0-1.51.78c-.57.35-.42.73-.19.77a19.64 19.64 0 0 0 3-.29c.27-.13.31-.4.19-1-.03-.18-1.49-.26-1.49-.26zm5.09-.16a9.2 9.2 0 0 1 1.37.69c.57.34.42.72.19.76a18.5 18.5 0 0 1-3-.15c-.27-.14-.27-.54-.15-1.13-.02-.17 1.59-.17 1.59-.17zm-4.25-40.38a4 4 0 0 1-1-2.17c.07-.42-.19-.82-.19-1.09s.23-1.45.53-1.6.92-.88 1.49-1 .86.09 1.43 0a5.75 5.75 0 0 1 1.49 0 4.27 4.27 0 0 1 1 .65 4.91 4.91 0 0 1-.84 5.55 8.5 8.5 0 0 0 .63-1.31c.44-1.37.34-4.3-1.3-3.33a3.21 3.21 0 0 1-1.93-.11c-.62-.23-1.42.53-1.48 1.25a3.85 3.85 0 0 0 .83 3.71c.4.49-.48-.42-.66-.55zM69.13 54c-.19-.22-.41-.88-1.18-.66a1.71 1.71 0 0 0-1.11 1.81c0 .79 1 3.32.16 3.88s-.8.63-.33.66 1.12.11 1.43-.44a9.77 9.77 0 0 0 .73-3.95c-.18-1 .3-1.3.3-1.3z"/><path class="cls-3" d="M75.32 54c.2-.22.42-.88 1.19-.66a1.7 1.7 0 0 1 1.1 1.81c0 .79-1 3.32-.15 3.88s.79.63.33.66-1.12.11-1.43-.44a9.61 9.61 0 0 1-.73-3.95c.18-1-.31-1.3-.31-1.3z"/><path fill="none" stroke="#3b4863" stroke-linecap="round" stroke-miterlimit="10" stroke-width="1.32" d="M83.49 101.24l29.61-60.99"/></svg>