<svg id="Calque_1" data-name="Calque 1" xmlns="http://www.w3.org/2000/svg" viewBox="0 0 140 120"><defs><style>.cls-1{fill:#ffa929}.cls-2{fill:#fff}</style></defs><path class="cls-1" d="M81.55 88.66l-49 8.93C41.41 96 47 86 45.06 75.36S34.37 57.37 25.51 59l49-8.94c8.86-1.62 17.62 5.71 19.56 16.37S90.39 87 81.55 88.66z"/><path class="cls-2" d="M32.56 97.59C23.71 99.22 15 91.88 13 81.21S16.65 60.6 25.51 59s17.61 5.7 19.55 16.36S41.41 96 32.56 97.59z"/><path class="cls-1" d="M29.76 96.91a13.4 13.4 0 0 1-9-3.78A21.57 21.57 0 0 1 14.32 81c-1.85-10.1 3-19.49 10.79-20.91S40.76 65.7 42.6 75.81a21.68 21.68 0 0 1-1.73 13.65c-2 4-5.25 6.57-9.06 7.27a11.83 11.83 0 0 1-2.05.18zm-2.62-35.76a10 10 0 0 0-1.8.16c-7.11 1.3-11.49 10-9.77 19.44a20.31 20.31 0 0 0 6 11.44c3 2.74 6.56 3.91 10 3.29s6.31-3 8.16-6.6A20.37 20.37 0 0 0 41.35 76c-1.57-8.59-7.73-14.85-14.21-14.85z"/><path class="cls-1" d="M29.39 90c-4.06 0-8-4.26-9-10.07-1.15-6.31 1.49-12.1 5.9-12.91a7.17 7.17 0 0 1 6.35 2.4A14.6 14.6 0 0 1 36.31 77c1.15 6.31-1.49 12.1-5.89 12.9a6.06 6.06 0 0 1-1.03.1zm-2.11-21.8a4.43 4.43 0 0 0-.81.07c-3.72.68-5.91 5.81-4.88 11.43s4.89 9.64 8.6 9 5.9-5.8 4.87-11.42a13.22 13.22 0 0 0-3.38-6.93 6.28 6.28 0 0 0-4.4-2.2z"/><path class="cls-1" d="M28.89 83.67c-1.68 0-3.3-1.94-3.8-4.66a7.46 7.46 0 0 1 .2-3.71 2.86 2.86 0 0 1 2.08-2.1c1.82-.34 3.66 1.7 4.19 4.63.53 2.92-.47 5.48-2.28 5.81a2.56 2.56 0 0 1-.39.03zm-1.13-9.24h-.16c-.46.08-.86.54-1.11 1.26a6.23 6.23 0 0 0-.15 3.07c.43 2.34 1.78 3.78 2.71 3.61s1.69-2 1.26-4.33-1.63-3.61-2.55-3.61z"/><path fill="none" stroke="#8a91a1" stroke-linecap="round" stroke-miterlimit="10" stroke-width=".9" d="M89.5 61.92l-16.41 3"/><path class="cls-2" d="M53.51 67.19a.63.63 0 0 1-.62-.52.62.62 0 0 1 .51-.74l39.2-7.16a.65.65 0 0 1 .73.51.62.62 0 0 1-.51.74l-39.2 7.16zm12 37.81c-8.86 1.61-17.62-5.73-19.57-16.39S49.59 68 58.45 66.39 76.07 72.1 78 82.76 74.35 103.38 65.51 105z"/><path class="cls-1" d="M62.7 104.32a13.42 13.42 0 0 1-9-3.79 21.6 21.6 0 0 1-6.44-12.15c-1.85-10.11 3-19.49 10.79-20.92 3.82-.69 7.74.59 11 3.6a21.63 21.63 0 0 1 6.44 12.16 21.59 21.59 0 0 1-1.73 13.64c-2 4-5.25 6.57-9.06 7.27a11.85 11.85 0 0 1-2 .19zm-2.61-35.77a10 10 0 0 0-1.81.16c-7.11 1.3-11.49 10-9.77 19.44a20.34 20.34 0 0 0 6 11.44c3 2.75 6.56 3.92 10 3.29s6.31-3 8.16-6.59a20.39 20.39 0 0 0 1.61-12.85 20.31 20.31 0 0 0-6-11.44 12.21 12.21 0 0 0-8.19-3.45z"/><path class="cls-1" d="M62.33 97.36c-4.06 0-8-4.26-9-10.08-1.15-6.31 1.5-12.1 5.9-12.9a7.15 7.15 0 0 1 6.35 2.4 15.53 15.53 0 0 1 2.92 16 7.13 7.13 0 0 1-5.09 4.48 5.21 5.21 0 0 1-1.08.1zm-2.1-21.81a4.47 4.47 0 0 0-.82.08c-3.72.68-5.9 5.8-4.88 11.42s4.88 9.65 8.6 9a5.91 5.91 0 0 0 4.16-3.75 14.28 14.28 0 0 0-2.67-14.6 6.25 6.25 0 0 0-4.39-2.15z"/><path class="cls-1" d="M61.83 91.08c-1.68 0-3.3-2-3.8-4.67a7.48 7.48 0 0 1 .2-3.71 2.88 2.88 0 0 1 2.08-2.1c1.83-.33 3.66 1.71 4.19 4.63.5 2.93-.5 5.48-2.28 5.77a1.72 1.72 0 0 1-.39.08zm-1.13-9.24h-.16c-.45.08-.86.55-1.11 1.27a6.18 6.18 0 0 0-.15 3.06c.43 2.35 1.78 3.8 2.71 3.61s1.69-2 1.26-4.33c-.4-2.2-1.63-3.61-2.55-3.61z"/><path class="cls-2" d="M53.74 65.74C44.89 67.35 36.13 60 34.19 49.36s3.65-20.62 12.51-22.23 17.62 5.71 19.56 16.38-3.66 20.61-12.52 22.23z"/><path class="cls-1" d="M51.52 64.84a13.45 13.45 0 0 1-9-3.78 21.63 21.63 0 0 1-6.44-12.16c-1.85-10.11 3-19.49 10.79-20.91s15.65 5.64 17.49 15.75a21.62 21.62 0 0 1-1.73 13.65c-2 4-5.25 6.57-9.06 7.26a10.86 10.86 0 0 1-2.05.19zM48.9 29.07a10 10 0 0 0-1.8.17c-7.11 1.29-11.49 10-9.77 19.43a20.4 20.4 0 0 0 6 11.45c3 2.74 6.56 3.91 10 3.28s6.31-3 8.16-6.59A20.37 20.37 0 0 0 63.11 44c-1.57-8.66-7.72-14.93-14.21-14.93z"/><path class="cls-1" d="M50.55 58.1a7.54 7.54 0 0 1-5.3-2.49A14.6 14.6 0 0 1 41.53 48c-1.15-6.31 1.49-12.1 5.89-12.9a7.13 7.13 0 0 1 6.35 2.4 14.54 14.54 0 0 1 3.73 7.6 14.57 14.57 0 0 1-.81 8.42A7.1 7.1 0 0 1 51.6 58a5.33 5.33 0 0 1-1.05.1zm-2.08-21.81a4.56 4.56 0 0 0-.82.08c-3.71.67-5.9 5.8-4.87 11.42a13.22 13.22 0 0 0 3.38 6.93 5.9 5.9 0 0 0 5.21 2A5.87 5.87 0 0 0 55.53 53a13.29 13.29 0 0 0 .72-7.67 13.37 13.37 0 0 0-3.38-6.92 6.27 6.27 0 0 0-4.4-2.12z"/><path class="cls-1" d="M50.07 51.82a3.09 3.09 0 0 1-2.3-1.26 7.45 7.45 0 0 1-1.49-3.41 7.37 7.37 0 0 1 .19-3.71 2.91 2.91 0 0 1 2.09-2.1 2.85 2.85 0 0 1 2.69 1.23 7.53 7.53 0 0 1 1.5 3.4 7.48 7.48 0 0 1-.2 3.71 2.86 2.86 0 0 1-2.08 2.1 1.87 1.87 0 0 1-.4.04zM49 42.57h-.16c-.46.08-.87.54-1.12 1.27a6.82 6.82 0 0 0 1.08 5.88 1.68 1.68 0 0 0 1.49.79c.45-.08.86-.54 1.11-1.27a6.18 6.18 0 0 0 .15-3.06 6.29 6.29 0 0 0-1.22-2.82 1.91 1.91 0 0 0-1.33-.79z"/><path class="cls-1" d="M102.73 56.8l-49 8.94c8.87-1.62 14.47-11.57 12.53-22.23s-10.7-18-19.56-16.38l30.24-5.52a22.25 22.25 0 0 0-6.36-1.49L70.43 17a47.36 47.36 0 0 1 8.77.14A20.1 20.1 0 0 1 85.79 20l9.89-1.8c8.85-1.61 17.61 5.72 19.56 16.38s-3.65 20.6-12.51 22.22zm11.75 39.26l-24.25 4.43a18.07 18.07 0 0 1-4 4 50.23 50.23 0 0 1-7.94 3.73l-1.07-2.75A25.44 25.44 0 0 0 82 102l-16.53 3C74.35 103.38 80 93.43 78 82.76s-10.7-18-19.56-16.37l49-9c8.85-1.61 17.61 5.73 19.55 16.39s-3.65 20.67-12.51 22.28z"/><path class="cls-2" d="M76.77 66.58a.64.64 0 0 1-.63-.52.65.65 0 0 1 .51-.74l29-5.3a.65.65 0 0 1 .74.51.63.63 0 0 1-.51.74l-29 5.3zm-.53 3.53a.62.62 0 0 1-.62-.52.64.64 0 0 1 .51-.74l9.87-1.8a.65.65 0 0 1 .74.51.64.64 0 0 1-.51.74l-9.87 1.8zM84 72.64a.62.62 0 0 1-.62-.52.64.64 0 0 1 .51-.74l28.25-5.16a.65.65 0 0 1 .73.51.62.62 0 0 1-.51.74l-28.23 5.16zm22 .36a.64.64 0 0 1-.12-1.26l16.42-3a.66.66 0 0 1 .74.52.63.63 0 0 1-.51.73l-16.42 3zm-23.89 4.9a.64.64 0 0 1-.63-.52.65.65 0 0 1 .51-.74l19.19-3.5a.64.64 0 0 1 .23 1.25l-19.19 3.5zm6.18 5.93a.65.65 0 0 1-.63-.53.63.63 0 0 1 .51-.73l25.3-4.57a.64.64 0 0 1 .23 1.25l-25.3 4.57zm4.82 4.11a.63.63 0 0 1-.62-.52.64.64 0 0 1 .51-.74L118.58 82a.66.66 0 0 1 .74.51.64.64 0 0 1-.51.74l-25.58 4.68zM81.9 94.72a.63.63 0 0 1-.62-.52.64.64 0 0 1 .51-.74L97 90.68a.66.66 0 0 1 .74.51.64.64 0 0 1-.51.74L82 94.71zm22.3-4.07a.63.63 0 0 1-.62-.52.64.64 0 0 1 .51-.74l15.22-2.78a.65.65 0 0 1 .74.51.64.64 0 0 1-.51.74l-15.22 2.78zM87.15 98.5a.64.64 0 0 1-.15-1.26l29.78-5.44a.64.64 0 0 1 .73.51.62.62 0 0 1-.51.74l-29.73 5.44zM65 27.32a.62.62 0 0 1-.62-.52.64.64 0 0 1 .51-.74l29-5.3a.66.66 0 0 1 .74.51.64.64 0 0 1-.51.74l-29 5.3zm-.51 3.53a.64.64 0 0 1-.63-.52.65.65 0 0 1 .51-.74l9.88-1.8a.64.64 0 0 1 .73.51.62.62 0 0 1-.51.74l-9.87 1.8zm7.77 2.53a.65.65 0 0 1-.63-.52.64.64 0 0 1 .51-.74L100.39 27a.65.65 0 0 1 .74.51.64.64 0 0 1-.51.74l-28.25 5.12zm22.01.32a.62.62 0 0 1-.62-.52.63.63 0 0 1 .51-.74l16.41-3a.65.65 0 0 1 .74.51.63.63 0 0 1-.51.74l-16.41 3zm-23.92 4.94a.62.62 0 0 1-.62-.52.64.64 0 0 1 .51-.74l19.19-3.5a.63.63 0 0 1 .22 1.25l-19.18 3.5zm6.18 5.92a.63.63 0 0 1-.11-1.25l25.29-4.62a.64.64 0 0 1 .23 1.25l-25.29 4.61zm4.83 4.12a.63.63 0 0 1-.62-.52.62.62 0 0 1 .51-.74l25.57-4.67a.64.64 0 0 1 .74.51.63.63 0 0 1-.51.74l-25.57 4.67zm-11.21 6.78A.64.64 0 0 1 70 54.2l15.22-2.78a.64.64 0 0 1 .73.51.62.62 0 0 1-.51.74l-15.18 2.78zm22.3-4.07a.63.63 0 0 1-.62-.52.62.62 0 0 1 .51-.74l15.22-2.78a.64.64 0 0 1 .73.51.62.62 0 0 1-.51.74l-15.22 2.78zM75.4 59.23a.64.64 0 0 1-.63-.52.63.63 0 0 1 .51-.73l29.78-5.44a.64.64 0 1 1 .23 1.25l-29.78 5.43z"/></svg>