<svg id="Calque_1" data-name="Calque 1" xmlns="http://www.w3.org/2000/svg" viewBox="0 0 140 120"><defs><style>.cls-1{fill:#c0c4cd}.cls-2{fill:#3b4863}.cls-4{fill:#8a91a1}.cls-7{fill:#74f0a7}.cls-9{fill:#0288d1}.cls-10{fill:#67b8e3}.cls-11{fill:#a7d5ef}</style></defs><path class="cls-1" d="M37.21 20.21h55.21v85.68H37.21z"/><path class="cls-2" d="M79.84 89.3a14.32 14.32 0 0 1-10.56 13.82 14.1 14.1 0 0 1-3.76.5A14.32 14.32 0 1 1 79.84 89.3z"/><path class="cls-1" d="M70.68 99c0 .68-2.31 1.23-5.15 1.23s-5.16-.55-5.16-1.23-.09-1.11.15-1.4c-.19-.54-.15-10-.15-10a4.34 4.34 0 0 1 4.34-4.34h1.63a4.34 4.34 0 0 1 4.34 4.34s0 9.69-.15 10.07c.26.19.15 1.33.15 1.33z"/><ellipse cx="65.48" cy="80.35" rx="2.21" ry="2.03" stroke="#ffa929" stroke-width=".3" fill="none" stroke-miterlimit="10"/><path class="cls-4" d="M66.83 80.62v2.62c0 .15-.6.28-1.35.28s-1.36-.13-1.36-.28v-2.62c0 .16.61.29 1.36.29s1.35-.13 1.35-.29z"/><path class="cls-2" d="M60.91 98.65v-.32a.15.15 0 0 1 .2-.14 7.35 7.35 0 0 0 1.64.42.14.14 0 0 1 .13.14v.34a.14.14 0 0 1-.16.15 7.31 7.31 0 0 1-1.72-.45.17.17 0 0 1-.09-.14zm9.27-.32v.3a.15.15 0 0 1-.1.14 9.5 9.5 0 0 1-1.61.46.16.16 0 0 1-.18-.15v-.34a.14.14 0 0 1 .13-.15 7.72 7.72 0 0 0 1.55-.4.16.16 0 0 1 .21.14zm-6.29.56v.35a.13.13 0 0 0 .13.14 16.69 16.69 0 0 0 3.11 0 .15.15 0 0 0 .14-.15v-.33a.16.16 0 0 0-.16-.15 19.71 19.71 0 0 1-3.06 0 .16.16 0 0 0-.16.14zm2.94-18.27c0 .16-.6.29-1.35.29s-1.36-.13-1.36-.29.61-.28 1.36-.28 1.35.12 1.35.28z"/><path fill="#d8dae0" d="M37.21 20.21l15.87-5.85H103l-10.58 5.85H37.21z"/><path class="cls-4" d="M92.42 105.89V20.21L103 14.36v80.72l-10.58 10.81z"/><path fill="#636d82" d="M77.34 20.11h15.2v17.17h-15.2z"/><circle class="cls-7" cx="80.52" cy="31.98" r="1.32"/><circle class="cls-7" cx="85.08" cy="31.98" r="1.32"/><circle class="cls-7" cx="89.65" cy="31.98" r="1.32"/><path class="cls-1" d="M81.31 23.24h7.81v4.11h-7.81z"/><path class="cls-2" d="M77.34 20.11l1.84-.66 14.28.07V36.4l-.92.88V20.1l-15.2.01z"/><path d="M37 29.67s10-.29 15.18 0 3.43 8.58 3.43 14.3c0 6.72 3.57 4.57 18.88 4.57 5.5 0 5.72 4.86-.29 5.15s-14 .57-17.16.57c-5.15 0-4.29 4.29-.86 4.29s16.3-.28 19-.28c3.65 0 3.58 4.29.57 4.29H57c-3.36 0-3.15 4.07 0 4.07s17.37-.14 19.23-.14-.21 6 3.65 6 12.37-.21 12.37-.21" stroke="#d8dae0" stroke-width="2.86" fill="none" stroke-miterlimit="10"/><circle class="cls-9" cx="38.43" cy="29.61" r=".7"/><circle class="cls-9" cx="41.5" cy="29.61" r=".7"/><circle class="cls-9" cx="44.57" cy="29.61" r=".7"/><circle class="cls-9" cx="47.65" cy="29.61" r=".7"/><circle class="cls-9" cx="50.72" cy="29.61" r=".7"/><circle class="cls-9" cx="53.83" cy="29.97" r=".7"/><circle class="cls-9" cx="55.34" cy="32.15" r=".7"/><circle class="cls-9" cx="55.73" cy="34.8" r=".7"/><circle class="cls-9" cx="55.87" cy="37.48" r=".7"/><circle class="cls-9" cx="55.8" cy="40.05" r=".7"/><circle class="cls-9" cx="55.73" cy="42.63" r=".7"/><circle class="cls-9" cx="55.66" cy="45.2" r=".7"/><circle class="cls-9" cx="56.59" cy="47.77" r=".7"/><circle class="cls-9" cx="59.16" cy="48.81" r=".7"/><circle class="cls-9" cx="61.98" cy="48.92" r=".7"/><circle class="cls-9" cx="64.56" cy="48.88" r=".7"/><circle class="cls-9" cx="67.13" cy="48.85" r=".7"/><circle class="cls-9" cx="69.71" cy="48.81" r=".7"/><circle class="cls-9" cx="72.28" cy="48.77" r=".7"/><circle class="cls-9" cx="74.85" cy="48.74" r=".7"/><circle class="cls-9" cx="77.54" cy="49.2" r=".7"/><circle class="cls-9" cx="78.68" cy="50.85" r=".7"/><circle class="cls-9" cx="77.93" cy="52.85" r=".7"/><circle class="cls-9" cx="75.82" cy="53.49" r=".7"/><circle class="cls-9" cx="73.28" cy="53.78" r=".7"/><circle class="cls-9" cx="70.89" cy="53.85" r=".7"/><circle class="cls-10" cx="68.49" cy="53.92" r=".7"/><circle class="cls-9" cx="66.1" cy="53.99" r=".7"/><circle class="cls-9" cx="63.7" cy="54.07" r=".7"/><circle class="cls-10" cx="61.31" cy="54.14" r=".7"/><circle class="cls-10" cx="58.91" cy="54.21" r=".7"/><circle class="cls-7" cx="56.51" cy="54.28" r=".7"/><circle class="cls-10" cx="54.05" cy="54.96" r=".7"/><circle class="cls-9" cx="53.37" cy="56.89" r=".7"/><circle class="cls-7" cx="54.94" cy="58.5" r=".7"/><circle class="cls-10" cx="57.34" cy="58.71" r=".7"/><circle class="cls-9" cx="59.77" cy="58.75" r=".7"/><circle class="cls-10" cx="62.06" cy="58.68" r=".7"/><circle class="cls-11" cx="64.34" cy="58.61" r=".7"/><circle class="cls-7" cx="66.63" cy="58.53" r=".7"/><circle class="cls-10" cx="68.92" cy="58.46" r=".7"/><circle class="cls-11" cx="71.21" cy="58.39" r=".7"/><circle class="cls-7" cx="73.5" cy="58.32" r=".7"/><circle class="cls-10" cx="75.78" cy="58.25" r=".7"/><circle class="cls-11" cx="77.75" cy="59.46" r=".7"/><circle class="cls-7" cx="77.75" cy="61.64" r=".7"/><circle class="cls-10" cx="75.86" cy="62.57" r=".7"/><circle class="cls-7" cx="73.6" cy="62.65" r=".7"/><circle class="cls-7" cx="71.35" cy="62.65" r=".7"/><circle class="cls-10" cx="69.13" cy="62.61" r=".7"/><circle class="cls-7" cx="66.92" cy="62.57" r=".7"/><circle class="cls-11" cx="64.65" cy="62.59" r=".7"/><circle class="cls-7" cx="62.44" cy="62.5" r=".7"/><circle class="cls-7" cx="60.17" cy="62.61" r=".7"/><circle class="cls-7" cx="57.96" cy="62.57" r=".7"/><circle class="cls-11" cx="55.87" cy="62.69" r=".7"/><circle class="cls-7" cx="54.62" cy="64.33" r=".7"/><circle class="cls-7" cx="55.44" cy="66.22" r=".7"/><circle class="cls-7" cx="57.73" cy="66.79" r=".7"/><circle class="cls-7" cx="60.09" cy="66.79" r=".7"/><circle class="cls-7" cx="62.45" cy="66.79" r=".7"/><circle class="cls-7" cx="64.81" cy="66.79" r=".7"/><circle class="cls-7" cx="67.16" cy="66.7" r=".7"/><circle class="cls-7" cx="69.53" cy="66.69" r=".7"/><circle class="cls-7" cx="71.91" cy="66.63" r=".7"/><circle class="cls-7" cx="74.25" cy="66.61" r=".7"/><circle class="cls-7" cx="76.57" cy="66.65" r=".7"/><circle class="cls-7" cx="77.29" cy="68.76" r=".7"/><circle class="cls-7" cx="77.76" cy="70.95" r=".7"/><circle class="cls-7" cx="79.29" cy="72.52" r=".7"/><circle class="cls-7" cx="81.48" cy="72.57" r=".7"/><circle class="cls-7" cx="83.67" cy="72.67" r=".7"/><circle class="cls-7" cx="86.15" cy="72.71" r=".7"/><circle class="cls-7" cx="88.44" cy="72.71" r=".7"/><circle class="cls-7" cx="90.63" cy="72.62" r=".7"/></svg>