<svg id="Calque_1" data-name="Calque 1" xmlns="http://www.w3.org/2000/svg" viewBox="0 0 140 120"><defs><style>.cls-1{fill:#ffa929}.cls-2{fill:#7e7e7e}.cls-5{fill:#f9be70}</style></defs><path class="cls-1" d="M84.2 82.17a14.22 14.22 0 0 1-14.72 14.21 3.05 3.05 0 0 1-.43 0 14.3 14.3 0 0 1-13.31-13.9 14.05 14.05 0 0 1 2.71-8.67 22.33 22.33 0 0 0 4.42-13.07v-.15h14.2a22.14 22.14 0 0 0 1.12 6.92 22.43 22.43 0 0 0 3.24 6.23 14.12 14.12 0 0 1 2.77 8.43z"/><rect class="cls-2" x="62.86" y="55.6" width="14.37" height="3.5" rx="1.01" transform="rotate(-180 70.045 57.35)"/><rect class="cls-2" x="62.86" y="50.99" width="14.37" height="3.5" rx="1.01" transform="rotate(-180 70.045 52.745)"/><rect x="65.63" y="47.69" width="8.66" height="2.18" rx=".63" transform="rotate(-180 69.965 48.78)" fill="#1887c9"/><path stroke="#1887c9" stroke-width="1.42" fill="none" stroke-miterlimit="10" d="M70.11 48.08V0"/><path class="cls-5" d="M70 94.77l-.52.06a2.41 2.41 0 0 1-.38 0 12.91 12.91 0 0 1-12-12.55 12.72 12.72 0 0 1 2.45-7.83 20.18 20.18 0 0 0 4-11.81v-.14h2.28c-.48 2.17-1.67 7.82-2.76 15C61.66 86.7 70 94.77 70 94.77z"/><path class="cls-1" d="M97.33 59.36a8.72 8.72 0 0 1-9 8.72 2.26 2.26 0 0 1-.26 0 8.77 8.77 0 0 1-8.17-8.53 8.66 8.66 0 0 1 1.66-5.32 13.68 13.68 0 0 0 2.71-8v-.09H93a13.54 13.54 0 0 0 2.68 8.07 8.72 8.72 0 0 1 1.65 5.15z"/><rect class="cls-2" x="84.24" y="43.06" width="8.82" height="2.15" rx=".62" transform="rotate(-180 88.65 44.13)"/><rect class="cls-2" x="84.24" y="40.23" width="8.82" height="2.15" rx=".62" transform="rotate(-180 88.65 41.305)"/><rect x="85.94" y="38.2" width="5.32" height="1.34" rx=".39" transform="rotate(-180 88.6 38.87)" fill="#e13f79"/><path stroke-width=".87" stroke="#e13f79" fill="none" stroke-miterlimit="10" d="M88.69 38.44V0"/><path class="cls-5" d="M88.65 67.1h-.32a1.92 1.92 0 0 1-.24 0 7.89 7.89 0 0 1-5.88-12.51 12.36 12.36 0 0 0 2.45-7.25v-.08h1.41c-.3 1.34-1 4.8-1.7 9.19-.87 5.69 4.28 10.65 4.28 10.65z"/><path class="cls-1" d="M60.13 59.36a8.72 8.72 0 0 1-9 8.72 2.26 2.26 0 0 1-.26 0 8.77 8.77 0 0 1-8.17-8.53 8.66 8.66 0 0 1 1.66-5.32 13.68 13.68 0 0 0 2.71-8v-.09h8.72a13.54 13.54 0 0 0 2.68 8.07 8.72 8.72 0 0 1 1.66 5.15z"/><rect class="cls-2" x="47.04" y="43.06" width="8.82" height="2.15" rx=".62" transform="rotate(-180 51.45 44.13)"/><rect class="cls-2" x="47.04" y="40.23" width="8.82" height="2.15" rx=".62" transform="rotate(-180 51.45 41.305)"/><rect class="cls-1" x="48.74" y="38.2" width="5.32" height="1.34" rx=".39" transform="rotate(-180 51.4 38.87)"/><path stroke="#ffa929" stroke-width=".87" fill="none" stroke-miterlimit="10" d="M51.49 38.44V0"/><path class="cls-5" d="M51.45 67.1h-.32a1.92 1.92 0 0 1-.24 0A7.89 7.89 0 0 1 45 54.62a12.36 12.36 0 0 0 2.45-7.25v-.08h1.41c-.3 1.34-1 4.8-1.7 9.19-.86 5.66 4.29 10.62 4.29 10.62z"/></svg>