<svg id="Calque_1" data-name="Calque 1" xmlns="http://www.w3.org/2000/svg" viewBox="0 0 140 120"><defs><style>.cls-1{fill:#c0c4cd}.cls-4{fill:#fff}</style></defs><rect class="cls-1" x="15.31" y="23.23" width="11.23" height="73.54" rx="1.5"/><rect class="cls-1" x="28.33" y="23.23" width="11.23" height="73.54" rx="1.5"/><rect class="cls-1" x="41.35" y="23.23" width="11.23" height="73.54" rx="1.5"/><rect class="cls-1" x="54.36" y="23.23" width="11.23" height="73.54" rx="1.5"/><rect class="cls-1" x="67.38" y="23.23" width="11.23" height="73.54" rx="1.5"/><rect class="cls-1" x="80.39" y="23.23" width="11.23" height="73.54" rx="1.5"/><rect class="cls-1" x="93.41" y="23.23" width="11.23" height="73.54" rx="1.5"/><rect class="cls-1" x="106.43" y="23.23" width="11.23" height="73.54" rx="1.5"/><path d="M119.3 80.38h3.89a1.5 1.5 0 0 1 1.5 1.5v12.76a1.5 1.5 0 0 1-1.5 1.5h-3.89V80.38z" fill="#3b4863"/><path d="M119.4 26.82h2a1.5 1.5 0 0 1 1.5 1.5v2.89a1.5 1.5 0 0 1-1.5 1.5h-2v-5.89z" fill="#ffa929"/><circle class="cls-4" cx="121.89" cy="84.07" r="1.5"/><circle class="cls-4" cx="121.89" cy="87.96" r="1"/></svg>