<svg id="Calque_1" data-name="Calque 1" xmlns="http://www.w3.org/2000/svg" viewBox="0 0 140 120"><defs><style>.cls-1{fill:#74f0a7}.cls-2{fill:#7e7e7e}.cls-4{fill:#f9be70}</style></defs><path class="cls-1" d="M75.62 74.25a13 13 0 0 1-13.49 13 2.54 2.54 0 0 1-.39 0 13.11 13.11 0 0 1-12.2-12.73A12.88 12.88 0 0 1 52 66.6a20.46 20.46 0 0 0 4-12v-.13h13a20.24 20.24 0 0 0 1 6.34 20.72 20.72 0 0 0 3 5.71 13 13 0 0 1 2.62 7.73z"/><rect class="cls-2" x="56.06" y="49.9" width="13.17" height="3.21" rx=".93" transform="rotate(-180 62.65 51.51)"/><rect class="cls-2" x="56.06" y="45.68" width="13.17" height="3.21" rx=".93" transform="rotate(-180 62.65 47.285)"/><rect class="cls-1" x="58.61" y="42.65" width="7.94" height="2" rx=".58" transform="rotate(-180 62.575 43.655)"/><path stroke="#ffa929" stroke-width="1.3" fill="none" stroke-miterlimit="10" d="M62.71 43.01V0"/><path class="cls-4" d="M62.65 85.81h-.48a2 2 0 0 1-.35 0A11.78 11.78 0 0 1 53 67.17a18.5 18.5 0 0 0 3.7-10.82v-.12h2.09c-.44 2-1.53 7.16-2.54 13.72-1.25 8.46 6.4 15.86 6.4 15.86z"/><path class="cls-1" d="M90.47 53.09a8.73 8.73 0 0 1-9 8.73h-.26A8.79 8.79 0 0 1 73 53.28 8.64 8.64 0 0 1 74.67 48a13.71 13.71 0 0 0 2.71-8v-.09h8.71a13.51 13.51 0 0 0 .69 4.25 14.06 14.06 0 0 0 2 3.82 8.68 8.68 0 0 1 1.69 5.11z"/><rect class="cls-2" x="77.37" y="36.79" width="8.82" height="2.15" rx=".62" transform="rotate(-180 81.78 37.865)"/><rect class="cls-2" x="77.37" y="33.96" width="8.82" height="2.15" rx=".62" transform="rotate(-180 81.78 35.04)"/><rect x="79.07" y="31.94" width="5.32" height="1.34" rx=".39" transform="rotate(-180 81.735 32.605)" fill="#3b4863"/><path stroke="#3b4863" stroke-width=".87" fill="none" stroke-miterlimit="10" d="M81.82 32.18V0"/><path class="cls-4" d="M81.78 60.83h-.55a7.93 7.93 0 0 1-7.39-7.7 7.83 7.83 0 0 1 1.51-4.81 12.38 12.38 0 0 0 2.45-7.22V41h1.4c-.3 1.34-1 4.8-1.7 9.19-.86 5.69 4.28 10.64 4.28 10.64z"/></svg>