<svg xmlns="http://www.w3.org/2000/svg" viewBox="0 0 120 80"><defs><style>.cls-1{isolation:isolate;}.cls-2{fill:#9ad5e5;}.cls-13,.cls-3{fill:none;}.cls-3{stroke:#484747;stroke-linecap:round;stroke-width:0.55px;}.cls-12,.cls-13,.cls-3{stroke-miterlimit:10;}.cls-4{fill:#84c1dc;}.cls-12,.cls-5{fill:#bfe2f4;}.cls-6{fill:#90c7df;}.cls-7{fill:#f3f8fe;}.cls-8{fill:#1d1d1b;}.cls-9{fill:#2b2b28;}.cls-10{fill:#2a2b29;}.cls-11{fill:#c9c9c9;}.cls-12{stroke:#67b8e3;stroke-width:0.67px;}.cls-13{stroke:#9f9d9d;stroke-width:0.34px;}.cls-14,.cls-16{fill:#9f9d9d;}.cls-15{fill:#fff;}.cls-16{mix-blend-mode:multiply;}.cls-17{fill:#f0f0ef;}</style></defs><g class="cls-1"><g id="Calque_1" data-name="Calque 1"><rect class="cls-2" x="25.3" y="21.29" width="66.75" height="35.12" rx="3.7" transform="translate(19.63 97.39) rotate(-89.81)"/><line class="cls-3" x1="74.87" y1="10.61" x2="74.86" y2="12.97"/><line class="cls-3" x1="74.85" y1="18.24" x2="74.84" y2="20.6"/><line class="cls-3" x1="74.82" y1="29.86" x2="74.81" y2="32.22"/><line class="cls-3" x1="74.74" y1="62.4" x2="74.73" y2="64.76"/><rect class="cls-4" x="51.07" y="0.07" width="15.73" height="31.95" rx="2.26" transform="translate(42.7 74.92) rotate(-89.81)"/><rect class="cls-4" x="37" y="32.01" width="43.7" height="31.95" rx="2.05" transform="translate(10.68 106.68) rotate(-89.81)"/><rect class="cls-5" x="50.86" y="-0.41" width="15.73" height="31.95" rx="2.26" transform="translate(42.97 74.24) rotate(-89.81)"/><rect class="cls-5" x="36.8" y="31.53" width="43.7" height="31.95" rx="2.05" transform="translate(10.95 106) rotate(-89.81)"/><path class="cls-6" d="M44.62,29.18c.55.08,7,.5,7.92.9s.13.8-1,.8-6.68.21-7,.13S44,29.1,44.62,29.18Z"/><path class="cls-6" d="M44.65,18.77c.54.08,7,.5,7.91.91s.14.79-1,.79-6.68.21-7,.13S44,18.69,44.65,18.77Z"/><path class="cls-7" d="M44.48,28.51c.54.07,7,.5,7.91.9s.14.79-1,.79-6.68.22-7,.14S43.86,28.43,44.48,28.51Z"/><path class="cls-7" d="M44.5,18.1c.55.07,7,.5,7.92.9s.13.79-1,.79-6.68.22-7,.14S43.88,18,44.5,18.1Z"/><rect class="cls-8" x="41.55" y="66.44" width="4.92" height="8.81" transform="translate(-26.95 114.68) rotate(-89.85)"/><rect class="cls-8" x="32.73" y="35.82" width="22.64" height="44.45" transform="translate(-14.11 101.94) rotate(-89.85)"/><rect class="cls-9" x="33.84" y="36.85" width="20.41" height="42.37" transform="translate(-14.11 101.94) rotate(-89.85)"/><rect class="cls-10" x="34.76" y="73.25" width="18.57" height="0.87" rx="0.43"/><rect class="cls-11" x="63.49" y="44.5" width="31.65" height="27.63" rx="0.98" transform="translate(20.71 137.41) rotate(-89.79)"/><circle class="cls-12" cx="79.3" cy="61.44" r="9.3"/><line class="cls-13" x1="65.53" y1="49.32" x2="93.11" y2="49.34"/><circle class="cls-13" cx="90.04" cy="46.01" r="0.98"/><ellipse class="cls-14" cx="85.71" cy="46.04" rx="1.3" ry="1.21" transform="translate(39.35 131.58) rotate(-89.79)"/><path class="cls-15" d="M78.39,69.57a9.56,9.56,0,0,0,2.82-.51,8.43,8.43,0,0,0,2.5-1.27,6.55,6.55,0,0,0,1.84-2.05,7.47,7.47,0,0,0,.84-2.61,13.24,13.24,0,0,0,.09-2.81,8.87,8.87,0,0,0-.69-2.7,7.66,7.66,0,0,0-4-3.85,8,8,0,0,1,2.6,1.33,7.14,7.14,0,0,1,1.86,2.29,10.14,10.14,0,0,1,.79,5.82,7.92,7.92,0,0,1-1,2.84A6.48,6.48,0,0,1,84,68.21,8.68,8.68,0,0,1,78.39,69.57Z"/><rect class="cls-16" x="84.22" y="58.78" width="2.01" height="6.84" rx="0.57" transform="translate(22.71 147.19) rotate(-89.79)"/><rect class="cls-17" x="84.42" y="58.38" width="2.01" height="6.57" rx="0.54" transform="translate(23.45 146.86) rotate(-89.79)"/></g></g></svg>