<svg xmlns="http://www.w3.org/2000/svg" viewBox="0 0 120 80"><defs><style>.cls-1{isolation:isolate;}.cls-2{fill:#9ad5e5;}.cls-10,.cls-19,.cls-3,.cls-30,.cls-31,.cls-32,.cls-33,.cls-40,.cls-43,.cls-44{fill:none;}.cls-3{stroke:#484747;stroke-width:0.55px;}.cls-3,.cls-43,.cls-44{stroke-linecap:round;}.cls-10,.cls-19,.cls-26,.cls-27,.cls-3,.cls-30,.cls-31,.cls-32,.cls-33,.cls-40,.cls-43,.cls-44,.cls-9{stroke-miterlimit:10;}.cls-4{fill:#84c1dc;}.cls-5,.cls-9{fill:#bfe2f4;}.cls-6{fill:#90c7df;}.cls-29,.cls-7{fill:#f3f8fe;}.cls-8{fill:#c9c9c9;}.cls-9{stroke:#67b8e3;stroke-width:0.67px;}.cls-10{stroke:#9f9d9d;stroke-width:0.34px;}.cls-11,.cls-13{fill:#9f9d9d;}.cls-12{fill:#fff;}.cls-13{mix-blend-mode:multiply;}.cls-14{fill:#f0f0ef;}.cls-15{fill:#1d1d1b;}.cls-16{fill:#2b2b28;}.cls-17{fill:#2a2b29;}.cls-18{fill:#ddf0fc;}.cls-19{stroke:#647475;stroke-width:0.32px;}.cls-20{fill:#6899a3;}.cls-21{fill:#c7d3db;}.cls-22{fill:#bdc3c9;}.cls-23{fill:#b9b9b9;}.cls-24{fill:#747473;}.cls-25{fill:#5c5c5b;}.cls-26{fill:#a6d0d0;}.cls-26,.cls-27,.cls-30,.cls-31,.cls-32,.cls-33{stroke:#646e83;}.cls-26,.cls-27{stroke-width:0.53px;}.cls-27{fill:#8992a2;}.cls-28{fill:#ecedf0;}.cls-28,.cls-29{mix-blend-mode:lighten;}.cls-30{stroke-width:0.07px;}.cls-31{stroke-width:0.08px;}.cls-32{stroke-width:0.08px;}.cls-33{stroke-width:0.08px;}.cls-34{fill:#503815;}.cls-35{fill:#ffa929;}.cls-36{fill:#d28b18;}.cls-37{fill:#202020;}.cls-38{fill:#757574;}.cls-39{fill:#5e5f5f;}.cls-40{stroke:#5e5f5f;stroke-width:0.08px;}.cls-41{fill:#354e54;}.cls-42{fill:#9ab6bc;}.cls-43,.cls-44{stroke:#808788;stroke-width:0.08px;}.cls-44{stroke-dasharray:0.08 0.17;}.cls-45{fill:#616160;}.cls-46{fill:#cfcfcf;}.cls-47{fill:#ec6854;}.cls-48{fill:#e84a4e;}.cls-49{fill:#d41516;}.cls-50{fill:#4a4a49;}</style></defs><g class="cls-1"><g id="Calque_1" data-name="Calque 1"><rect class="cls-2" x="14.57" y="22.09" width="66.75" height="35.12" rx="3.7" transform="translate(8.14 87.46) rotate(-89.81)"/><line class="cls-3" x1="64.14" y1="11.41" x2="64.14" y2="13.77"/><line class="cls-3" x1="64.12" y1="19.04" x2="64.12" y2="21.4"/><line class="cls-3" x1="64.09" y1="30.66" x2="64.09" y2="33.02"/><line class="cls-3" x1="64.01" y1="63.2" x2="64.01" y2="65.56"/><rect class="cls-4" x="40.34" y="0.87" width="15.73" height="31.95" rx="2.26" transform="translate(31.21 64.99) rotate(-89.81)"/><rect class="cls-4" x="26.28" y="32.81" width="43.7" height="31.95" rx="2.05" transform="translate(-0.81 96.75) rotate(-89.81)"/><rect class="cls-5" x="40.14" y="0.39" width="15.73" height="31.95" rx="2.26" transform="translate(31.48 64.31) rotate(-89.81)"/><rect class="cls-5" x="26.07" y="32.33" width="43.7" height="31.95" rx="2.05" transform="translate(-0.54 96.07) rotate(-89.81)"/><path class="cls-6" d="M33.9,30c.54.08,7,.5,7.91.9s.14.8-1,.8-6.68.21-7,.13S33.28,29.9,33.9,30Z"/><path class="cls-6" d="M33.92,19.57c.55.08,7,.5,7.92.91s.13.79-1,.79-6.68.21-7,.13S33.3,19.49,33.92,19.57Z"/><path class="cls-7" d="M33.75,29.31c.55.07,7,.5,7.92.9s.13.79-1,.79-6.68.22-7,.14S33.13,29.23,33.75,29.31Z"/><path class="cls-7" d="M33.78,18.9c.55.07,7,.5,7.91.9s.14.79-1,.79-6.68.22-7,.14S33.16,18.82,33.78,18.9Z"/><rect class="cls-8" x="77.77" y="43.09" width="31.65" height="27.63" rx="0.98" transform="translate(36.35 150.29) rotate(-89.79)"/><circle class="cls-9" cx="93.59" cy="60.04" r="9.3"/><line class="cls-10" x1="79.82" y1="47.92" x2="107.4" y2="47.94"/><circle class="cls-10" cx="104.33" cy="44.61" r="0.98"/><ellipse class="cls-11" cx="99.99" cy="44.64" rx="1.3" ry="1.21" transform="translate(54.98 144.46) rotate(-89.79)"/><path class="cls-12" d="M92.67,68.17a9.56,9.56,0,0,0,2.82-.51A8.43,8.43,0,0,0,98,66.39a6.67,6.67,0,0,0,1.84-2,7.26,7.26,0,0,0,.84-2.62,13.2,13.2,0,0,0,.09-2.81,8.87,8.87,0,0,0-.68-2.69,7.66,7.66,0,0,0-4-3.85,7.85,7.85,0,0,1,2.59,1.32,7,7,0,0,1,1.86,2.3,10.23,10.23,0,0,1,.8,5.82,8.2,8.2,0,0,1-1,2.84,6.48,6.48,0,0,1-2.07,2.16A8.72,8.72,0,0,1,92.67,68.17Z"/><rect class="cls-13" x="98.5" y="57.38" width="2.01" height="6.84" rx="0.57" transform="translate(38.35 160.08) rotate(-89.79)"/><rect class="cls-14" x="98.71" y="56.97" width="2.01" height="6.57" rx="0.54" transform="translate(39.08 159.75) rotate(-89.79)"/><rect class="cls-15" x="32.29" y="67.51" width="4.92" height="8.81" transform="translate(-37.25 106.49) rotate(-89.85)"/><rect class="cls-15" x="23.47" y="36.88" width="22.64" height="44.45" transform="translate(-24.41 93.74) rotate(-89.85)"/><rect class="cls-16" x="24.58" y="37.92" width="20.41" height="42.37" transform="translate(-24.41 93.74) rotate(-89.85)"/><rect class="cls-17" x="25.5" y="74.32" width="18.57" height="0.87" rx="0.43"/><rect class="cls-18" x="49.41" y="41.23" width="33.7" height="32.71" rx="0.23" transform="translate(-0.07 0.08) rotate(-0.07)"/><line class="cls-19" x1="49.38" y1="47.37" x2="83.06" y2="47.33"/><rect class="cls-20" x="62.26" y="43.21" width="7.56" height="3.02" rx="0.13" transform="translate(-0.06 0.08) rotate(-0.07)"/><circle class="cls-21" cx="61.22" cy="43.67" r="0.43"/><circle class="cls-21" cx="61.22" cy="44.75" r="0.43"/><circle class="cls-21" cx="61.22" cy="45.83" r="0.43"/><circle class="cls-21" cx="70.75" cy="43.66" r="0.43"/><circle class="cls-21" cx="70.75" cy="44.74" r="0.43"/><circle class="cls-21" cx="70.75" cy="45.82" r="0.43"/><circle class="cls-21" cx="55.67" cy="44.29" r="0.97"/><circle class="cls-21" cx="76.82" cy="44.26" r="0.97"/><path class="cls-22" d="M82.8,73.89l-33,0a.31.31,0,0,1-.32-.31l0-26.24,33.67,0,0,26.23A.31.31,0,0,1,82.8,73.89Z"/><rect class="cls-23" x="62.78" y="48.04" width="6.58" height="1.78" transform="translate(-0.06 0.08) rotate(-0.07)"/><rect class="cls-24" x="63.22" y="48.44" width="5.79" height="0.98" rx="0.25" transform="translate(-0.06 0.08) rotate(-0.07)"/><path class="cls-25" d="M69,48.78H63.22v-.19a.15.15,0,0,1,.15-.15h5.48a.15.15,0,0,1,.15.15v.2Z"/><rect class="cls-26" x="67.61" y="57.07" width="11.43" height="19.5" rx="0.39" transform="translate(5.32 139.06) rotate(-89.07)"/><polygon class="cls-27" points="63.49 72.38 59.62 77.44 86.9 77.95 82.98 72.7 63.49 72.38"/><rect class="cls-28" x="67.29" y="61.28" width="3.09" height="7.22" transform="translate(2.83 132.66) rotate(-89.07)"/><rect class="cls-29" x="70.17" y="59.96" width="7.53" height="15.82" transform="translate(4.87 140.7) rotate(-89.07)"/><line class="cls-30" x1="64.68" y1="72.69" x2="61.79" y2="77.25"/><line class="cls-30" x1="65.71" y1="72.67" x2="63.46" y2="77.2"/><line class="cls-30" x1="66.7" y1="72.68" x2="65.14" y2="77.38"/><line class="cls-30" x1="67.61" y1="72.66" x2="66.58" y2="77.25"/><line class="cls-30" x1="68.79" y1="72.76" x2="68.07" y2="77.39"/><line class="cls-30" x1="69.7" y1="72.69" x2="69.28" y2="77.52"/><line class="cls-30" x1="70.85" y1="72.71" x2="70.62" y2="77.47"/><line class="cls-30" x1="71.99" y1="72.73" x2="71.79" y2="77.52"/><line class="cls-30" x1="73.13" y1="72.75" x2="72.9" y2="77.5"/><line class="cls-30" x1="74.27" y1="72.77" x2="74.08" y2="77.52"/><line class="cls-30" x1="75.41" y1="72.79" x2="75.64" y2="77.51"/><line class="cls-30" x1="76.33" y1="72.76" x2="77.12" y2="77.54"/><line class="cls-30" x1="77.35" y1="72.78" x2="78.91" y2="77.6"/><line class="cls-30" x1="78.42" y1="72.8" x2="80.55" y2="77.63"/><line class="cls-30" x1="79.83" y1="72.82" x2="82.49" y2="77.62"/><line class="cls-30" x1="81.46" y1="72.89" x2="84.5" y2="77.77"/><line class="cls-30" x1="63.23" y1="73.05" x2="83.62" y2="73.45"/><line class="cls-30" x1="62.73" y1="73.76" x2="83.66" y2="74.1"/><line class="cls-31" x1="61.91" y1="74.59" x2="84.59" y2="74.95"/><line class="cls-32" x1="61.32" y1="75.64" x2="85.45" y2="76.03"/><line class="cls-33" x1="60.62" y1="76.51" x2="86.12" y2="76.92"/><path class="cls-34" d="M48.89,68.33a4.07,4.07,0,0,1,3.18-1.9c1.06,0,2.76.64,3.21,1.76s-.84,1.54-.84,1.54Z"/><path class="cls-35" d="M57.19,76.66a13.21,13.21,0,0,1-6.94.82,17.2,17.2,0,0,1-2-.33c-.54-2.74.34-8,.47-8.8l1.38,0,5.36-.1,1.06,0-.8,1.24A36.32,36.32,0,0,1,57.19,76.66Z"/><path class="cls-36" d="M50.11,76.83a5.14,5.14,0,0,1,.14.65,17.2,17.2,0,0,1-2-.33c-.54-2.74.34-8,.47-8.8l1.38,0C49.92,69.09,49.2,73.56,50.11,76.83Z"/><path class="cls-37" d="M49.07,68.57c-.38-.18-1.21.11-1.67.16a2.29,2.29,0,0,0-1.53,1.87,7.62,7.62,0,0,0,2.36,4.09c1,.66.52-.13.4-.43s-1.61-1.8-1.82-2.78S46.62,70.35,47,70a3.93,3.93,0,0,1,2-.67C49.2,69.32,49.14,68.61,49.07,68.57Z"/><polygon class="cls-36" points="55.68 69.43 55.45 68.66 56.33 68.43 55.68 69.43"/><rect class="cls-15" x="54.39" y="35.38" width="3.83" height="5.87" transform="matrix(0, -1, 1, 0, 17.83, 94.51)"/><rect class="cls-15" x="47.52" y="13.55" width="17.62" height="29.59" transform="translate(27.82 84.59) rotate(-89.83)"/><rect class="cls-16" x="48.39" y="14.24" width="15.89" height="28.21" transform="translate(27.86 84.61) rotate(-89.87)"/><rect class="cls-17" x="50.15" y="40.18" width="12.36" height="0.67" rx="0.31"/><rect class="cls-38" x="64.83" y="24.53" width="11.67" height="21.41" rx="0.21" transform="translate(34.84 105.6) rotate(-89.52)"/><rect class="cls-37" x="64.83" y="24.49" width="11.46" height="21.23" rx="0.21" transform="translate(34.86 105.36) rotate(-89.52)"/><rect class="cls-39" x="64.36" y="28.54" width="8.3" height="13.09" transform="translate(32.85 103.3) rotate(-89.52)"/><rect class="cls-40" x="64.01" y="27.18" width="9.93" height="15.83" rx="0.21" transform="translate(33.31 103.77) rotate(-89.52)"/><path class="cls-41" d="M75.76,39.31,75.83,31c0-.14.21-.12.21,0s.21,3.81.19,4.17-.31,3.94-.31,4S75.76,39.41,75.76,39.31Z"/><path class="cls-42" d="M75.68,39.33l.07-8.3c0-.14.2-.12.2,0s.21,3.8.19,4.16-.31,3.94-.31,4.05S75.68,39.43,75.68,39.33Z"/><circle class="cls-42" cx="78.95" cy="31.75" r="0.97"/><circle class="cls-42" cx="78.93" cy="34.47" r="0.97"/><circle class="cls-42" cx="77.89" cy="36.64" r="0.25"/><circle class="cls-42" cx="78.93" cy="36.65" r="0.25"/><circle class="cls-42" cx="79.96" cy="36.66" r="0.25"/><circle class="cls-42" cx="77.88" cy="37.61" r="0.25"/><circle class="cls-42" cx="78.92" cy="37.61" r="0.25"/><circle class="cls-42" cx="79.95" cy="37.62" r="0.25"/><circle class="cls-42" cx="77.88" cy="38.57" r="0.25"/><circle class="cls-42" cx="78.91" cy="38.58" r="0.25"/><circle class="cls-42" cx="79.94" cy="38.59" r="0.25"/><circle class="cls-42" cx="77.87" cy="39.54" r="0.25"/><circle class="cls-42" cx="78.9" cy="39.55" r="0.25"/><circle class="cls-42" cx="79.93" cy="39.55" r="0.25"/><line class="cls-43" x1="62.16" y1="31.11" x2="62.2" y2="31.11"/><line class="cls-44" x1="62.37" y1="31.11" x2="74.8" y2="31.21"/><line class="cls-43" x1="74.88" y1="31.21" x2="74.92" y2="31.22"/><line class="cls-43" x1="62.16" y1="31.54" x2="62.2" y2="31.54"/><line class="cls-44" x1="62.37" y1="31.54" x2="74.79" y2="31.65"/><line class="cls-43" x1="74.88" y1="31.65" x2="74.92" y2="31.65"/><line class="cls-43" x1="62.16" y1="31.97" x2="62.2" y2="31.98"/><line class="cls-44" x1="62.36" y1="31.98" x2="74.79" y2="32.08"/><line class="cls-43" x1="74.87" y1="32.08" x2="74.92" y2="32.08"/><line class="cls-43" x1="62.15" y1="32.41" x2="62.19" y2="32.41"/><line class="cls-44" x1="62.36" y1="32.41" x2="74.79" y2="32.51"/><line class="cls-43" x1="74.87" y1="32.52" x2="74.91" y2="32.52"/><line class="cls-43" x1="62.15" y1="32.84" x2="62.19" y2="32.84"/><line class="cls-44" x1="62.36" y1="32.84" x2="74.78" y2="32.95"/><line class="cls-43" x1="74.87" y1="32.95" x2="74.91" y2="32.95"/><line class="cls-43" x1="62.14" y1="33.27" x2="62.19" y2="33.28"/><line class="cls-44" x1="62.35" y1="33.28" x2="74.78" y2="33.38"/><line class="cls-43" x1="74.86" y1="33.38" x2="74.9" y2="33.38"/><line class="cls-43" x1="62.14" y1="33.71" x2="62.18" y2="33.71"/><line class="cls-44" x1="62.35" y1="33.71" x2="74.78" y2="33.81"/><line class="cls-43" x1="74.86" y1="33.82" x2="74.9" y2="33.82"/><line class="cls-43" x1="62.14" y1="34.14" x2="62.18" y2="34.14"/><line class="cls-44" x1="62.35" y1="34.14" x2="74.77" y2="34.25"/><line class="cls-43" x1="74.86" y1="34.25" x2="74.9" y2="34.25"/><line class="cls-43" x1="62.13" y1="34.58" x2="62.17" y2="34.58"/><line class="cls-44" x1="62.34" y1="34.58" x2="74.77" y2="34.68"/><line class="cls-43" x1="74.85" y1="34.68" x2="74.89" y2="34.68"/><line class="cls-43" x1="62.13" y1="35.01" x2="62.17" y2="35.01"/><line class="cls-44" x1="62.34" y1="35.01" x2="74.76" y2="35.11"/><line class="cls-43" x1="74.85" y1="35.12" x2="74.89" y2="35.12"/><line class="cls-43" x1="62.13" y1="35.44" x2="62.17" y2="35.44"/><line class="cls-44" x1="62.33" y1="35.44" x2="74.76" y2="35.55"/><line class="cls-43" x1="74.84" y1="35.55" x2="74.89" y2="35.55"/><line class="cls-43" x1="62.12" y1="35.88" x2="62.16" y2="35.88"/><line class="cls-44" x1="62.33" y1="35.88" x2="74.76" y2="35.98"/><line class="cls-43" x1="74.84" y1="35.98" x2="74.88" y2="35.98"/><line class="cls-43" x1="62.12" y1="36.31" x2="62.16" y2="36.31"/><line class="cls-44" x1="62.33" y1="36.31" x2="74.75" y2="36.42"/><line class="cls-43" x1="74.84" y1="36.42" x2="74.88" y2="36.42"/><line class="cls-43" x1="62.12" y1="36.74" x2="62.16" y2="36.74"/><line class="cls-44" x1="62.32" y1="36.74" x2="74.75" y2="36.85"/><line class="cls-43" x1="74.83" y1="36.85" x2="74.88" y2="36.85"/><line class="cls-43" x1="62.11" y1="37.18" x2="62.15" y2="37.18"/><line class="cls-44" x1="62.32" y1="37.18" x2="74.75" y2="37.28"/><line class="cls-43" x1="74.83" y1="37.28" x2="74.87" y2="37.28"/><line class="cls-43" x1="62.11" y1="37.61" x2="62.15" y2="37.61"/><line class="cls-44" x1="62.32" y1="37.61" x2="74.74" y2="37.72"/><line class="cls-43" x1="74.83" y1="37.72" x2="74.87" y2="37.72"/><line class="cls-43" x1="62.1" y1="38.04" x2="62.15" y2="38.04"/><line class="cls-44" x1="62.31" y1="38.04" x2="74.74" y2="38.15"/><line class="cls-43" x1="74.82" y1="38.15" x2="74.86" y2="38.15"/><line class="cls-43" x1="62.1" y1="38.48" x2="62.14" y2="38.48"/><line class="cls-44" x1="62.31" y1="38.48" x2="74.74" y2="38.58"/><line class="cls-43" x1="74.82" y1="38.58" x2="74.86" y2="38.58"/><line class="cls-43" x1="62.1" y1="38.91" x2="62.14" y2="38.91"/><line class="cls-44" x1="62.31" y1="38.91" x2="74.73" y2="39.02"/><line class="cls-43" x1="74.82" y1="39.02" x2="74.86" y2="39.02"/><path class="cls-45" d="M63,29.27a2.19,2.19,0,0,0,0,.59c0,.05.73-.32.73-.32Z"/><path class="cls-45" d="M72.9,29.54a.74.74,0,0,0,.25.42c.12.1.37-.38.37-.49S72.9,29.54,72.9,29.54Z"/><path class="cls-45" d="M75.23,28.64c0,.15,0,.5-.07.47a2.23,2.23,0,0,1-.28-.36Z"/><path class="cls-46" d="M62.68,24.2s0-.16.45-.34a17.94,17.94,0,0,1,2.15-.58c.14,0,9.16.21,9.42.22s.45,0,.38.1-2,1.36-2,1.36l-10.37-.55Z"/><path class="cls-47" d="M75.08,23.6l-1.67,1-.18,5a4.32,4.32,0,0,0,2-1C75.24,27.12,75.08,23.6,75.08,23.6Z"/><path class="cls-48" d="M62.68,24.2c-.11.57,0,4.15,0,4.56s.37.88,1.15.88l9.42,0c.48,0,.34-.85.35-1.52V24.54Z"/><rect class="cls-49" x="72.52" y="26.56" width="3.95" height="0.34" rx="0.17" transform="translate(47.49 101.12) rotate(-89.79)"/><path class="cls-15" d="M73.86,25.4c0-.09,0-.27,0-.27l.74,0,1.1-.45a1,1,0,0,1,0,.23,3.79,3.79,0,0,1-1.05.58Z"/><path class="cls-50" d="M73.85,25.13A10.63,10.63,0,0,1,75,24.65a4.4,4.4,0,0,1,.73.07,4.9,4.9,0,0,1-1.12.62C74.47,25.32,73.75,25.2,73.85,25.13Z"/><path class="cls-45" d="M64.18,23.85l1.23-.38h0l8.31.23a0,0,0,0,1,0,.09l-.63.43h0l-8.91-.28A0,0,0,0,1,64.18,23.85Z"/></g></g></svg>