<svg id="Calque_1" data-name="Calque 1" xmlns="http://www.w3.org/2000/svg" viewBox="0 0 140 120"><defs><style>.cls-2{fill:#c0c4cd}.cls-3{fill:#8a91a1}.cls-5{fill:#74f0a7}.cls-6{fill:#3b4863}</style></defs><path fill="#d8dae0" d="M37 19.95h55.39v85.96H37z"/><path class="cls-2" d="M37 19.95l15.92-5.86H103l-10.61 5.86H37z"/><path class="cls-3" d="M92.39 105.91V19.95L103 14.09v80.98l-10.61 10.84z"/><path fill="#636d82" d="M58.32 81.98h15.24V99.2H58.32z"/><circle class="cls-5" cx="61.5" cy="93.88" r="1.33"/><circle class="cls-5" cx="66.08" cy="93.88" r="1.33"/><circle class="cls-5" cx="70.67" cy="93.88" r="1.33"/><ellipse class="cls-6" cx="59.49" cy="101.84" rx="1.91" ry="1.33"/><ellipse class="cls-6" cx="66.08" cy="101.84" rx="1.91" ry="1.33"/><ellipse class="cls-6" cx="72.67" cy="101.84" rx="1.91" ry="1.33"/><path class="cls-2" d="M62.3 85.11h7.84v4.12H62.3z"/><path class="cls-6" d="M58.32 81.98l1.84-.67 14.32.08v16.92l-.92.89V81.96l-15.24.02zm22.6-33.46a14.37 14.37 0 0 1-10.6 13.87 14.17 14.17 0 0 1-3.77.5A14.36 14.36 0 0 1 52.2 48.52 14.14 14.14 0 0 1 53.78 42a14.36 14.36 0 0 1 27.14 6.55z"/><path class="cls-2" d="M71.73 58.28c0 .69-2.32 1.24-5.18 1.24s-5.17-.52-5.17-1.22-.09-1.12.15-1.41c-.18-.54-.14-10.07-.14-10.07a4.35 4.35 0 0 1 4.35-4.36h1.63a4.36 4.36 0 0 1 4.36 4.36s0 9.72-.15 10.1c.25.19.15 1.36.15 1.36z"/><ellipse cx="66.51" cy="39.55" rx="2.21" ry="2.04" fill="none" stroke="#ffa929" stroke-miterlimit="10" stroke-width=".3"/><path class="cls-3" d="M67.87 39.82v2.62c0 .16-.61.29-1.36.29s-1.37-.13-1.37-.29v-2.62c0 .16.62.28 1.37.28s1.36-.1 1.36-.28z"/><path class="cls-6" d="M61.93 57.9v-.32a.14.14 0 0 1 .2-.13 7.47 7.47 0 0 0 1.64.41.14.14 0 0 1 .13.15v.33a.14.14 0 0 1-.16.15A7.49 7.49 0 0 1 62 58a.15.15 0 0 1-.07-.1zm9.29-.32v.31a.14.14 0 0 1-.09.13 8.73 8.73 0 0 1-1.63.46.14.14 0 0 1-.17-.15V58a.15.15 0 0 1 .12-.15 6.61 6.61 0 0 0 1.57-.4.16.16 0 0 1 .2.13zm-6.31.57v.34a.15.15 0 0 0 .13.15 16.9 16.9 0 0 0 3.13 0 .16.16 0 0 0 .14-.15v-.33a.15.15 0 0 0-.16-.15 23 23 0 0 1-3.08 0 .15.15 0 0 0-.16.14zm2.96-18.33c0 .16-.61.28-1.36.28s-1.37-.12-1.37-.28.62-.29 1.37-.29 1.36.13 1.36.29z"/></svg>