<svg id="Calque_1" data-name="Calque 1" xmlns="http://www.w3.org/2000/svg" viewBox="0 0 120 80"><defs><style>.cls-1{fill:#9ad5e5;}.cls-2{fill:none;stroke:#484747;stroke-linecap:round;stroke-miterlimit:10;stroke-width:0.55px;}.cls-3{fill:#84c1dc;}.cls-4{fill:#bfe2f4;}.cls-5{fill:#90c7df;}.cls-6{fill:#f3f8fe;}.cls-7{fill:#1d1d1b;}.cls-8{fill:#2b2b28;}.cls-9{fill:#2a2b29;}</style></defs><rect class="cls-1" x="15.67" y="21.15" width="66.75" height="35.12" rx="3.7" transform="translate(10.17 87.63) rotate(-89.81)"/><line class="cls-2" x1="65.24" y1="10.48" x2="65.24" y2="12.84"/><line class="cls-2" x1="65.22" y1="18.11" x2="65.22" y2="20.47"/><line class="cls-2" x1="65.19" y1="29.73" x2="65.19" y2="32.09"/><line class="cls-2" x1="65.11" y1="62.27" x2="65.11" y2="64.63"/><rect class="cls-3" x="41.44" y="-0.07" width="15.73" height="31.95" rx="2.26" transform="translate(33.24 65.17) rotate(-89.81)"/><rect class="cls-3" x="27.38" y="31.88" width="43.7" height="31.95" rx="2.05" transform="translate(1.22 96.92) rotate(-89.81)"/><rect class="cls-4" x="41.24" y="-0.54" width="15.73" height="31.95" rx="2.26" transform="translate(33.51 64.48) rotate(-89.81)"/><rect class="cls-4" x="27.17" y="31.4" width="43.7" height="31.95" rx="2.05" transform="translate(1.49 96.24) rotate(-89.81)"/><path class="cls-5" d="M35,29.05c.55.07,7,.5,7.91.9s.14.8-1,.79-6.68.22-7,.14S34.38,29,35,29.05Z"/><path class="cls-5" d="M35,18.64c.55.07,7,.5,7.92.9s.14.8-1,.79-6.68.22-7,.14S34.4,18.56,35,18.64Z"/><path class="cls-6" d="M34.85,28.37c.55.08,7,.5,7.92.9s.14.8-1,.8-6.68.21-7,.13S34.23,28.29,34.85,28.37Z"/><path class="cls-6" d="M34.88,18c.55.07,7,.5,7.92.9s.13.79-1,.79-6.68.21-7,.13S34.26,17.88,34.88,18Z"/><rect class="cls-7" x="70.63" y="64.9" width="8.81" height="4.92" transform="translate(0.17 -0.19) rotate(0.15)"/><rect class="cls-7" x="52.85" y="43.24" width="44.45" height="22.64" transform="translate(0.14 -0.19) rotate(0.15)"/><rect class="cls-8" x="64.87" y="33.37" width="20.41" height="42.37" transform="translate(129.82 -20.38) rotate(90.15)"/><rect class="cls-9" x="65.79" y="69.77" width="18.57" height="0.87" rx="0.43"/></svg>