<svg id="Calque_1" data-name="Calque 1" xmlns="http://www.w3.org/2000/svg" viewBox="0 0 140 120"><defs><style>.cls-1{fill:#ffa929}</style></defs><path class="cls-1" d="M58.41 99.91l4.4 6.64a31.38 31.38 0 0 0 15.23 0l3.55-6.29z"/><path d="M73.83 103.79c-12 .65-25.56-3.41-25.56-11.69V24.62c0-8.28 10.39-12 22.41-12.11 11.89-.13 21 3.22 21 11.34v66.21c.05 8.11-5.96 13.09-17.85 13.73z" fill="#d8dae0"/><path fill="#3b4863" d="M64.12 82.27h11.76v12.9H64.12z"/><circle class="cls-1" cx="70.15" cy="91.47" r=".95"/><circle class="cls-1" cx="72.85" cy="91.47" r=".95"/><circle class="cls-1" cx="67.45" cy="91.47" r=".95"/><path fill="#c0c4cd" d="M67.2 85.21h5.59v2.94H67.2z"/></svg>