<svg id="Calque_1" data-name="Calque 1" xmlns="http://www.w3.org/2000/svg" viewBox="0 0 140 120"><defs><style>.cls-2{fill:#3b4863}.cls-4{fill:#c0c4cd}.cls-7{fill:#74f0a7}</style></defs><path fill="#d8dae0" d="M37 19.95h55.39v85.96H37z"/><path class="cls-2" d="M80.9 48.52a14.37 14.37 0 1 1-28.73 0A14.15 14.15 0 0 1 53.76 42a14.36 14.36 0 0 1 27.14 6.52z"/><path d="M64.89 54.29a.23.23 0 0 1-.19.39c-.87-.1-2.37-.66-3-3.32-.88-3.85 5.26-8.36 2.41-13 0 0 7 2.8 7.3 10.57.17 3.87-2.38 5.19-3.83 6.6a3.13 3.13 0 0 0-.74 2.85.24.24 0 0 1-.23.27h-.4a.23.23 0 0 1-.22-.31 4.69 4.69 0 0 0 0-2.51.25.25 0 0 1 .13-.27 3.54 3.54 0 0 0 .34-.17 5 5 0 0 0 2.15-2.75c.67-2 .2-3.51-.47-4.17.09.42.52 2.7-.62 2.53s-.13-1.09-.16-2.59c0-1.12-.6-2.64-1.47-2.87 0 0 1.27 1.77-1 4.71-1.47 2.08-.63 3.42 0 4.04z" fill="#fff"/><path class="cls-4" d="M37 19.95l15.92-5.86H103l-10.61 5.86H37z"/><path fill="#8a91a1" d="M92.39 105.91V19.95L103 14.09v80.98l-10.61 10.84z"/><path fill="#636d82" d="M58.32 81.98h15.24V99.2H58.32z"/><circle class="cls-7" cx="61.5" cy="93.88" r="1.33"/><circle class="cls-7" cx="66.08" cy="93.88" r="1.33"/><circle class="cls-7" cx="70.67" cy="93.88" r="1.33"/><ellipse class="cls-2" cx="59.49" cy="101.84" rx="1.91" ry="1.33"/><ellipse class="cls-2" cx="66.08" cy="101.84" rx="1.91" ry="1.33"/><ellipse class="cls-2" cx="72.67" cy="101.84" rx="1.91" ry="1.33"/><path class="cls-4" d="M62.3 85.11h7.84v4.12H62.3z"/><path class="cls-2" d="M58.32 81.98l1.84-.67 14.32.08v16.92l-.92.89V81.96l-15.24.02z"/></svg>