<svg id="Calque_1" data-name="Calque 1" xmlns="http://www.w3.org/2000/svg" viewBox="0 0 140 120"><defs><style>.cls-1{fill:#74f0a7}.cls-2{fill:#7e7e7e}.cls-5{fill:#f9be70}</style></defs><path class="cls-1" d="M67 70.46a12.45 12.45 0 0 1-12.9 12.45 2.26 2.26 0 0 1-.37 0 12.52 12.52 0 0 1-11.65-12.18 12.34 12.34 0 0 1 2.38-7.59 19.57 19.57 0 0 0 3.87-11.46v-.13h12.44a19.43 19.43 0 0 0 3.83 11.52 12.43 12.43 0 0 1 2.4 7.39z"/><rect class="cls-2" x="48.32" y="47.17" width="12.6" height="3.07" rx=".89" transform="rotate(-180 54.62 48.71)"/><rect class="cls-2" x="48.32" y="43.14" width="12.6" height="3.07" rx=".89" transform="rotate(-180 54.62 44.675)"/><rect x="50.75" y="40.24" width="7.59" height="1.91" rx=".55" transform="rotate(-180 54.55 41.195)" fill="#e13f79"/><path stroke="#e13f79" stroke-width="1.24" fill="none" stroke-miterlimit="10" d="M54.68 40.59V0"/><path class="cls-5" d="M54.62 81.51h-.8a11.33 11.33 0 0 1-10.54-11 11.21 11.21 0 0 1 2.15-6.86 17.72 17.72 0 0 0 3.5-10.36v-.11h2c-.43 1.91-1.47 6.85-2.43 13.12-1.23 8.13 6.12 15.21 6.12 15.21z"/><path class="cls-1" d="M79.87 47.36a8.73 8.73 0 0 1-9 8.72 2.26 2.26 0 0 1-.26 0 8.79 8.79 0 0 1-8.17-8.53 8.67 8.67 0 0 1 1.67-5.32 13.68 13.68 0 0 0 2.71-8v-.09h8.71a13.56 13.56 0 0 0 .69 4.25 14.06 14.06 0 0 0 2 3.82 8.66 8.66 0 0 1 1.65 5.15z"/><rect class="cls-2" x="66.77" y="31.06" width="8.82" height="2.15" rx=".62" transform="rotate(-180 71.18 32.13)"/><rect class="cls-2" x="66.77" y="28.23" width="8.82" height="2.15" rx=".62" transform="rotate(-180 71.18 29.305)"/><rect x="68.47" y="26.2" width="5.32" height="1.34" rx=".39" transform="rotate(-180 71.135 26.87)" fill="#1887c9"/><path stroke-width=".87" stroke="#1887c9" fill="none" stroke-miterlimit="10" d="M71.22 26.44V0"/><path class="cls-5" d="M71.18 55.1h-.55a7.93 7.93 0 0 1-7.39-7.71 7.82 7.82 0 0 1 1.51-4.8 12.43 12.43 0 0 0 2.45-7.25v-.08h1.4c-.3 1.34-1 4.8-1.7 9.19-.9 5.69 4.28 10.65 4.28 10.65z"/><path stroke="#70af50" stroke-width=".87" fill="none" stroke-miterlimit="10" d="M37.49 31.11V0"/><path class="cls-1" d="M46.13 52a8.72 8.72 0 0 1-9 8.72h-.26a8.77 8.77 0 0 1-8.17-8.52 8.64 8.64 0 0 1 1.66-5.32 13.68 13.68 0 0 0 2.71-8v-.09h8.72a13.6 13.6 0 0 0 2.68 8.07A8.7 8.7 0 0 1 46.13 52z"/><rect class="cls-2" x="33.04" y="35.72" width="8.82" height="2.15" rx=".62" transform="rotate(-180 37.45 36.8)"/><rect class="cls-2" x="33.04" y="32.9" width="8.82" height="2.15" rx=".62" transform="rotate(-180 37.45 33.97)"/><rect x="34.74" y="30.87" width="5.32" height="1.34" rx=".39" transform="rotate(-180 37.4 31.54)" fill="#70af50"/><path class="cls-5" d="M37.45 59.76h-.56A7.89 7.89 0 0 1 31 47.29 12.36 12.36 0 0 0 33.46 40h1.41c-.3 1.33-1 4.8-1.7 9.19-.87 5.62 4.28 10.57 4.28 10.57z"/><path stroke="#ffa929" stroke-width=".87" fill="none" stroke-miterlimit="10" d="M102.69 27.91V0"/><path class="cls-1" d="M111.33 48.83a8.72 8.72 0 0 1-9 8.72H102A8.77 8.77 0 0 1 93.87 49a8.64 8.64 0 0 1 1.66-5.32 13.68 13.68 0 0 0 2.71-8v-.09H107a13.6 13.6 0 0 0 2.68 8.07 8.7 8.7 0 0 1 1.65 5.17z"/><rect class="cls-2" x="98.24" y="32.52" width="8.82" height="2.15" rx=".62" transform="rotate(-180 102.65 33.6)"/><rect class="cls-2" x="98.24" y="29.7" width="8.82" height="2.15" rx=".62" transform="rotate(-180 102.65 30.77)"/><rect class="cls-1" x="99.94" y="27.67" width="5.32" height="1.34" rx=".39" transform="rotate(-180 102.6 28.34)"/><path class="cls-5" d="M102.65 56.56h-.56a7.89 7.89 0 0 1-5.88-12.5 12.36 12.36 0 0 0 2.45-7.25v-.08h1.41c-.3 1.33-1 4.8-1.7 9.19-.87 5.69 4.28 10.64 4.28 10.64z"/><path class="cls-1" d="M100.52 82.74A14 14 0 0 1 86 96.71a3 3 0 0 1-.42 0A14 14 0 0 1 75.2 74.52a21.88 21.88 0 0 0 4.35-12.85v-.14h14a21.81 21.81 0 0 0 4.25 12.92 13.93 13.93 0 0 1 2.72 8.29z"/><rect class="cls-2" x="79.54" y="56.62" width="14.13" height="3.45" rx="1" transform="rotate(-180 86.605 58.34)"/><rect class="cls-2" x="79.54" y="52.09" width="14.13" height="3.45" rx="1" transform="rotate(-180 86.605 53.81)"/><rect x="82.27" y="48.84" width="8.52" height="2.15" rx=".62" transform="rotate(-180 86.525 49.915)" fill="#3b4863"/><path stroke="#3b4863" stroke-width="1.39" fill="none" stroke-miterlimit="10" d="M86.67 49.23V0"/><path class="cls-5" d="M86.6 95.13l-.51.06a2.41 2.41 0 0 1-.38 0 12.65 12.65 0 0 1-9.42-20 19.75 19.75 0 0 0 3.93-11.61v-.18h2.24c-.47 2.14-1.64 7.69-2.72 14.72-1.38 9.07 6.86 17.01 6.86 17.01z"/></svg>