<svg id="Calque_1" data-name="Calque 1" xmlns="http://www.w3.org/2000/svg" viewBox="0 0 140 120"><defs><style>.cls-2{fill:#ffa929}</style></defs><path d="M23 61.91a25.19 25.19 0 0 1 4.48-14.4v28.82A25.27 25.27 0 0 1 23 61.91zm10.25-20.42v40.85a25.68 25.68 0 0 1-4.14-3.87V45.36a25.77 25.77 0 0 1 4.14-3.87zM39 38.28v47.28a23 23 0 0 1-4.14-2.1V40.38a24.38 24.38 0 0 1 4.14-2.1zm5.82-1.55V87.1a25.91 25.91 0 0 1-4.14-.94V37.67a28.28 28.28 0 0 1 4.14-.94zm5.79-.16v50.69c-.73.07-1.45.1-2.19.1s-1.33 0-2-.08V36.56c.64-.05 1.3-.08 2-.08s1.46.03 2.19.09zm5.77 1.18v48.33a24.74 24.74 0 0 1-4.14 1V36.76a25.76 25.76 0 0 1 4.14.99zm5.79 2.78v42.78A23.47 23.47 0 0 1 58 85.48V38.36a23.47 23.47 0 0 1 4.17 2.17zm5.77 5.1V78.2a24.76 24.76 0 0 1-4.14 4V41.67a24.64 24.64 0 0 1 4.14 3.96zm5.91 16.28A25.39 25.39 0 0 1 69.58 76V47.8a25.38 25.38 0 0 1 4.27 14.11z" fill="#636d82"/><circle class="cls-2" cx="48.4" cy="62" r="3.22"/><path class="cls-2" d="M48.52 57.33s-13.38-19-.59-18.45.59 18.45.59 18.45zm-4.09 4.34s-19 13.38-18.45.58 18.45-.58 18.45-.58zm3.96 4.82s13.37 19 .58 18.45-.58-18.45-.58-18.45zm4.02-4.27s19-13.38 18.45-.59-18.45.59-18.45.59z"/><path d="M25.52 103.44h-5.07a2 2 0 1 1 0-4h5.07a2 2 0 1 1 0 4zm94.24 0h-5.07a2 2 0 0 1 0-4h5.07a2 2 0 0 1 0 4zm3.49-77.94H16.75a1.33 1.33 0 0 0-1.35 1.33v69.46a1.34 1.34 0 0 0 1.35 1.34h106.5a1.35 1.35 0 0 0 1.35-1.34V26.83a1.34 1.34 0 0 0-1.35-1.33zM27.46 76.33a25.46 25.46 0 0 1 0-28.82zm5.79 6a25.27 25.27 0 0 1-4.14-3.87V45.37a25.45 25.45 0 0 1 4.14-3.89zM39 85.55a22.37 22.37 0 0 1-4.14-2.1V40.37a28.71 28.71 0 0 1 4.14-2.1zm5.79 1.55a26.41 26.41 0 0 1-4.14-.94V37.67a27.56 27.56 0 0 1 4.14-.93zm5.79.17c-.72.07-1.45.08-2.17.08a18.81 18.81 0 0 1-2-.08V36.55c.66 0 1.32-.06 2-.06s1.45 0 2.17.08zm5.79-1.18a24.72 24.72 0 0 1-4.16 1V36.76a25.74 25.74 0 0 1 4.16 1zm5.79-2.78A23.85 23.85 0 0 1 58 85.48V38.35a24.61 24.61 0 0 1 4.16 2.18zM68 78.2a26 26 0 0 1-4.14 4V41.67A25.77 25.77 0 0 1 68 45.62zm1.58-2.2V47.79a25.48 25.48 0 0 1 0 28.24z" fill="#c0c4cd"/></svg>