<svg data-name="Calque 1" xmlns="http://www.w3.org/2000/svg" viewBox="0 0 140 120"><path d="M5.56 44.39l35.76-7.72a1.29 1.29 0 0 1 .94.15l59.86 34.47a1.31 1.31 0 0 1-.3 2.4l-34 9.65L5.18 46.8a1.31 1.31 0 0 1 .38-2.41zm41.09-6.53L106 72.08a1.32 1.32 0 0 0 1 .13l28.4-7.94a1.31 1.31 0 0 0 .22-2.44L71.91 30.37a1.28 1.28 0 0 0-.86-.11L47 35.44a1.31 1.31 0 0 0-.35 2.42z" fill="#3b4863"/><path d="M66.27 89.77L4.43 52.87a1.72 1.72 0 0 1 1.76-2.95l60.58 36.15 67.34-18.7a1.72 1.72 0 1 1 .91 3.31z" fill="#c0c4cd"/><path d="M66.77 80a.62.62 0 0 1-.32-.09L11.17 47.83a.65.65 0 0 1 .65-1.13L67.1 78.77a.65.65 0 0 1-.33 1.23zM77 77.54a.66.66 0 0 1-.33-.09L21.43 45.38a.65.65 0 1 1 .65-1.12l55.28 32.06a.66.66 0 0 1-.36 1.22zm11.07-2.98a.68.68 0 0 1-.33-.09L32.47 42.4a.65.65 0 0 1-.24-.89.66.66 0 0 1 .89-.24L88.4 73.34a.65.65 0 0 1 .24.89.67.67 0 0 1-.57.33zm9.64-2.15a.72.72 0 0 1-.32-.08L42.11 40.26a.65.65 0 1 1 .66-1.13L98 71.2a.65.65 0 0 1 .24.89.65.65 0 0 1-.53.32zm11.83-2.53a.72.72 0 0 1-.32-.08l-56.76-32a.67.67 0 0 1-.25-.89.66.66 0 0 1 .89-.25l56.76 32a.65.65 0 0 1-.32 1.22zM116.3 67a.68.68 0 0 1-.31-.08L60 36.21a.64.64 0 0 1-.26-.88.66.66 0 0 1 .89-.26l56 30.65a.65.65 0 0 1 .26.89.63.63 0 0 1-.59.39zm6.23-2.18a.6.6 0 0 1-.31-.08l-56-30.65a.65.65 0 1 1 .59-1.09l56 30.65a.64.64 0 0 1 .25.88.63.63 0 0 1-.53.29zm7.97-1.56a.82.82 0 0 1-.3-.07L72 33.3a.65.65 0 0 1 .59-1.16L130.8 62a.64.64 0 0 1 .28.87.65.65 0 0 1-.58.39z" fill="#636d82"/></svg>