<svg id="Calque_1" data-name="Calque 1" xmlns="http://www.w3.org/2000/svg" viewBox="0 0 140 120"><defs><style>.cls-2{fill:#74f0a7}.cls-3{fill:#8a91a1}</style></defs><path d="M95.78 41.1a25.61 25.61 0 0 1-4.91 15.7 40.43 40.43 0 0 0-8 23.69v.26H57.12a39.88 39.88 0 0 0-2-12.54 40.72 40.72 0 0 0-5.87-11.28 25.64 25.64 0 0 1-5-15.27v-1.17h51.5c.02.2.03.41.03.61z" fill="#d8dae0"/><path class="cls-2" d="M95.75 40.49h-51.5a25.78 25.78 0 0 1 51.5 0z"/><rect class="cls-3" x="56.83" y="83.45" width="26.04" height="6.35" rx="2.62"/><rect class="cls-3" x="56.83" y="91.8" width="26.04" height="6.35" rx="2.62"/><rect class="cls-2" x="62.15" y="100.18" width="15.7" height="3.96" rx="1.87"/></svg>