<svg id="Calque_1" data-name="Calque 1" xmlns="http://www.w3.org/2000/svg" viewBox="0 0 140 120"><defs><style>.cls-1{fill:#3f4144}.cls-3{fill:#3b4863}.cls-4{fill:##74f0a7}.cls-6{fill:#5e5e5e}</style></defs><rect class="cls-1" x="108.14" y="96.45" width="1.83" height="4.26" rx=".44"/><rect class="cls-1" x="126.51" y="96.45" width="1.83" height="4.26" rx=".44"/><path d="M120.07 100.22c-7.44.56-15.82-2.91-15.82-10V32.71c0-7.06 6.43-10.21 13.87-10.32 7.35-.11 13 2.74 13 9.66v56.46c.02 6.92-3.7 11.17-11.05 11.71z" fill="#d8dae0"/><path class="cls-3" d="M115.26 88.72h5.18v5.69h-5.18z"/><circle class="cls-4" cx="117.92" cy="92.78" r=".42"/><circle class="cls-4" cx="119.11" cy="92.78" r=".42"/><circle class="cls-4" cx="116.73" cy="92.78" r=".42"/><path fill="#c0c4cd" d="M116.62 90.02h2.47v1.3h-2.47z"/><path class="cls-4" d="M41.9 41.31a7.54 7.54 0 0 0 .83-.8c.21-.28 1-1.19.53-1.77s-1.48-1.31-1.86-1.86c-.61-.86-.91-5.06 0-6a5.73 5.73 0 0 1 2.85-2c1.09-.16 4.26.26 4.9.1s.51.13.32.29.19.32.19.32a6.43 6.43 0 0 0-.35.7c0 .13.51 1.77.51 2.12a11.88 11.88 0 0 0 .8 2.14c.2.45 0 .68-.48.68s-.16.83-.19 1.22a8.18 8.18 0 0 1-.16 1.55c-.12.35-2.13.11-2.29.87s-.2 1.67 1.76 2.14a5.54 5.54 0 0 1-3.79 1.82 6 6 0 0 1-3.57-1.52z"/><path class="cls-3" d="M52.36 45.66l-.41-.1c-.41 1.75-.55 12.91.55 21.39v.23c-4.71.93-13.84.13-13.84.13a154.24 154.24 0 0 0-.94-21.46v-.25h-.41v.27a149.85 149.85 0 0 1 .94 21.26c-.93-1.12-3.37-4.68-2.88-10.81.26-3.15.48-11.87 1.06-12.84s4.11-1.73 6-2.79a5.18 5.18 0 0 0 6.78.18c1.73 1 3.84 1.27 4.22 1.84 1.06 1.61 1.62 13.94 1.62 14.24.19 5.84-1.61 8.84-2.08 9.51-1.14-8.33-.97-19.12-.61-20.8z"/><path class="cls-6" d="M48.44 97.88c0-4.75 3.37-27.55 4.05-30.77-4.65 1-13.9.2-13.9.2s2.48 28.17 2.19 30.78a4 4 0 0 0 2.09.13c.3-1.41 2.06-25.34 2.1-25.64s.86-1.07.9.47.47 24.44.47 24.74 2.1.09 2.1.09z"/><path class="cls-3" d="M40.9 98.39a20 20 0 0 0-2.25 1.17c-.86.52-.63 1.09-.29 1.14a27.07 27.07 0 0 0 4.51-.43c.4-.19.46-.59.29-1.48-.06-.28-2.26-.4-2.26-.4zm7.62-.26a16.29 16.29 0 0 1 2.06 1c.85.52.63 1.09.28 1.14a28.31 28.31 0 0 1-4.57-.22c-.4-.2-.39-.8-.22-1.69.06-.25 2.45-.23 2.45-.23zm-5.31-59.57c.23.87-2.5-2-2.42-2.47a31.53 31.53 0 0 0-.34-3.26c0-.4.34-2.17.79-2.39s1.37-1.32 2.23-1.55 4.22.23 5.08.06a2.19 2.19 0 0 1 1.51.23c.18.06-.22.63-.22.63s.15.65-.35.71-1.65.4-1.82.4-1.6.6-1.32 1.46-1.7 2.08-1.64 2.76c.17 1.79-.81.88-.77.1s-1.46-.32-.79 1.29c.38.92-.06 1.55.06 2.03z"/><path class="cls-4" d="M96.79 62.45a5.24 5.24 0 0 1-.53-.51c-.13-.18-.63-.77-.34-1.14s1-.85 1.2-1.2c.39-.55.58-3.26 0-3.86a3.82 3.82 0 0 0-1.84-1.28c-.7-.1-2.74.17-3.16.07s-.33.08-.2.18-.13.21-.13.21a4.52 4.52 0 0 1 .23.45c0 .08-.33 1.14-.33 1.36a7.29 7.29 0 0 1-.52 1.39c-.12.29 0 .43.31.43s.11.54.13.78a5.7 5.7 0 0 0 .08 1c.08.22 1.37.07 1.48.56s.13 1.07-1.14 1.38a3.62 3.62 0 0 0 2.45 1.17 3.81 3.81 0 0 0 2.31-.99z"/><path class="cls-3" d="M90.06 65.26l.26-.07A68.92 68.92 0 0 1 90 79v.14c3 .6 8.92.09 8.92.09a97.41 97.41 0 0 1 .6-13.82v-.17h.27v.17a96.87 96.87 0 0 0-.61 13.69 9.53 9.53 0 0 0 1.85-7c-.16-2-.31-7.64-.68-8.27s-2.65-1.11-3.84-1.8a3.33 3.33 0 0 1-4.37.12c-1.11.65-2.47.82-2.71 1.18-.68 1-1 9-1 9.18-.12 3.76 1 5.69 1.35 6.12a70.14 70.14 0 0 0 .28-13.37z"/><path class="cls-6" d="M92.58 98.89c0-3.06-2.17-17.74-2.61-19.82 3 .63 9 .13 9 .13S97.33 97.34 97.51 99a2.61 2.61 0 0 1-1.34.09c-.19-.91-1.32-16.33-1.35-16.52s-.55-.69-.58.3-.3 15.75-.3 15.94-1.36.08-1.36.08z"/><path class="cls-3" d="M97.44 99.22a12.07 12.07 0 0 1 1.45.75c.55.33.4.7.18.74a18.23 18.23 0 0 1-2.9-.28c-.26-.13-.3-.39-.19-1 .02-.14 1.46-.21 1.46-.21zm-4.91-.17a10 10 0 0 0-1.32.66c-.56.33-.41.7-.19.74a17.37 17.37 0 0 0 3-.15c.25-.13.25-.51.14-1.08-.09-.22-1.63-.17-1.63-.17zM96 60.68c-.15.56 1.61-1.25 1.56-1.59a20 20 0 0 1 .22-2.1c0-.25-.22-1.39-.51-1.54s-.89-.84-1.44-1-2.72.15-3.27 0a1.45 1.45 0 0 0-1 .15c-.11 0 .14.41.14.41s-.1.41.22.46 1 .4 1.15.4.65 0 .46.53 1.32 1.62 1.47 2c.09.24.47.11.5.07.19-.25.94-.21.51.83-.27.7-.01 1.07-.01 1.38z"/><path class="cls-4" d="M60.81 41.31a7.73 7.73 0 0 0 .82-.8c.21-.28 1-1.19.53-1.77s-1.47-1.31-1.86-1.86c-.61-.86-.91-5.06 0-6a5.77 5.77 0 0 1 2.85-2c1.09-.16 2.73.47 3.37.31s.77.22.57.38.8-.11.8-.11a3.49 3.49 0 0 1 .33.83c0 .13.51 1.77.51 2.12a12.59 12.59 0 0 0 .41 2.51c.2.45.32.69-.13.69s-.21.49-.24.87a9.91 9.91 0 0 1-.25 1.66c-.13.36-1.92 0-2.09.75s-.2 1.67 1.77 2.14c0 0-1.9 3.34-4 3.24s-3.39-2.96-3.39-2.96zm6.53 56.57c0-4.75 3.38-27.55 4.06-30.77-4.66 1-13.91.2-13.91.2s2.51 28.17 2.2 30.78a4 4 0 0 0 2.09.13c.3-1.41.59-25.47 2.1-25.64.3 0 1.89-1.11 1.93.44s-.56 24.47-.56 24.77 2.09.09 2.09.09z"/><path class="cls-3" d="M70.3 45.37l-.42-.1c-.41 1.73.43 13.2 1.52 21.73 0 0 1.22 10.13 1.17 10.14-4.7.93-15.47 0-15.47 0 .38-7.4 1.36-26.84.84-31.69v-.26h-.41v.27c.52 4.8 0 14.33-.42 21.66-.93-1.12-1.83-7.91-1.33-14 .26-3.15.3-9 .88-10s2.74-1.32 4.59-2.38c.08 3.47 4.88 3.84 6.78.18 1.73 1 2.87 1 3.24 1.54 1.07 1.61 1.63 13.94 1.63 14.25.19 5.84-.64 9.13-1.12 9.8-1.05-8.38-1.88-19.46-1.48-21.14zM59.81 98.39a20.87 20.87 0 0 0-2.26 1.17c-.85.52-.62 1.09-.28 1.14a27.07 27.07 0 0 0 4.51-.43c.4-.19.45-.59.28-1.48-.06-.28-2.25-.4-2.25-.4zm7.62-.26a15.62 15.62 0 0 1 2 1c.86.52.63 1.09.29 1.14a28.31 28.31 0 0 1-4.57-.22c-.4-.2-.4-.8-.23-1.69.08-.25 2.51-.23 2.51-.23zm-7.84-57.97c0-.89-.57-3.74-.49-4.26s.25-2.67.25-3.07A8 8 0 0 1 61 29.88a8.2 8.2 0 0 1 1.93-1c.86-.23 1.31.14 2.17 0a5.34 5.34 0 0 1 2.51.44 5.34 5.34 0 0 1 1.24 1.84c.16.62 1 8.41.39 8.46-.16 0-2.46 1-2.91.13C66 39 67 38 67.2 36.28c.18-2-.25-3.84-.44-3.85-.52 0-3.27.08-4.17 0-1.07-.13-1.45 1.43-1.39 2.11.11 1.12-.17 2.6.49 3.48.51.69.81 1.17.59 1.74-.35.91-2.7.73-2.69.4z"/><path class="cls-4" d="M78.35 61a5.7 5.7 0 0 0 .55-.53c.14-.19.65-.8.35-1.18s-.73-.9-1-1.26c-.41-.58-.86-3.37-.27-4a5.29 5.29 0 0 1 2.55-1 7 7 0 0 1 2.73.62c0 .08.5 2.88 0 4a6.28 6.28 0 0 1-.85 1.25c-.19.17-.33 0-.44.48s0 1.14 1.29 1.46c0 0-1.27 2.23-2.66 2.17S78.35 61 78.35 61zm4.36 37.82c0-3.17 2.25-18.41 2.71-20.56-3.11.66-9.29.13-9.29.13S77.79 97.22 77.6 99a2.69 2.69 0 0 0 1.39.09c.2-1 .4-17 1.4-17.14.2 0 1.27-.73 1.29.3s-.37 16.35-.37 16.55 1.4.02 1.4.02z"/><path class="cls-3" d="M84.68 63.74l-.27-.07c-.28 1.16.28 8.82 1 14.48 0 0 .82 6.77.78 6.78-3.14.62-10.33 0-10.33 0 .25-4.94.9-17.93.56-21.17v-.17h-.28v.18c.35 3.21 0 9.57-.28 14.47-.62-.74-1.22-5.28-.89-9.38.17-2.1.2-6 .59-6.69s1.83-.88 3.07-1.59c.05 2.32 3.25 2.56 4.53.12 1.15.68 1.91.65 2.16 1 .71 1.07 1.09 9.31 1.09 9.52.13 3.9-.43 6.1-.75 6.55-.66-5.51-1.24-12.91-.98-14.03zm-7 35.42a13.07 13.07 0 0 0-1.51.78c-.57.35-.42.73-.19.77a19.64 19.64 0 0 0 3-.29c.27-.13.31-.4.19-1-.03-.18-1.49-.26-1.49-.26zm5.09-.16a9.2 9.2 0 0 1 1.37.69c.57.34.42.72.19.76a18.5 18.5 0 0 1-3-.15c-.27-.14-.27-.54-.15-1.13-.01-.17 1.59-.17 1.59-.17zm-4.25-40.38a3.91 3.91 0 0 1-1-2.17c.06-.42-.2-.82-.2-1.09s.23-1.45.53-1.6.92-.88 1.49-1 .86.09 1.43 0a5.73 5.73 0 0 1 1.49 0 4.27 4.27 0 0 1 1 .65 4.91 4.91 0 0 1-.84 5.55 9.06 9.06 0 0 0 .64-1.31c.43-1.37.33-4.3-1.31-3.33a3.21 3.21 0 0 1-1.93-.11c-.62-.23-1.42.53-1.48 1.25a3.85 3.85 0 0 0 .83 3.71c.41.49-.47-.42-.65-.55zM77.48 53c-.2-.22-.42-.88-1.19-.66a1.72 1.72 0 0 0-1.11 1.81c0 .79 1 3.33.16 3.88s-.8.64-.33.66 1.12.11 1.43-.44a9.71 9.71 0 0 0 .73-4c-.17-1 .31-1.25.31-1.25zm6.18 0c.2-.22.42-.88 1.19-.66A1.71 1.71 0 0 1 86 54.11c0 .79-1 3.33-.15 3.88s.79.64.33.66-1.12.11-1.43-.44a9.54 9.54 0 0 1-.73-4c.13-.96-.36-1.21-.36-1.21z"/><path class="cls-4" d="M23.51 54.05a5.74 5.74 0 0 0 .64-.63c.17-.22.77-.94.42-1.39s-.86-1.05-1.16-1.48c-.48-.67-1-3.95-.33-4.69a6.36 6.36 0 0 1 3-1.18 8.55 8.55 0 0 1 3.21.73c0 .1.58 3.39 0 4.69a7.79 7.79 0 0 1-1 1.46c-.22.2-.38 0-.51.57s0 1.34 1.52 1.72c0 0-1.49 2.62-3.13 2.54s-2.66-2.34-2.66-2.34zm5.13 44.44c0-3.73 2.65-21.64 3.19-24.17-3.66.77-10.93.15-10.93.15s2 22.13 1.73 24.18a3.08 3.08 0 0 0 1.64.1c.23-1.11.46-20 1.64-20.14.24 0 1.49-.87 1.52.35S27 98.18 27 98.42s1.64.07 1.64.07z"/><path class="cls-3" d="M31 57.24l-.33-.08c-.32 1.37.34 10.37 1.2 17 0 0 1 8 .92 8-3.7.73-12.15 0-12.15 0 .29-5.81 1.06-21.08.65-24.89v-.2h-.33v.21c.4 3.77 0 11.25-.34 17-.73-.87-1.43-6.21-1-11 .2-2.48.23-7.1.69-7.87s2.15-1 3.61-1.88c.06 2.74 3.83 3 5.32.15 1.36.79 2.26.76 2.55 1.21.83 1.26 1.28 11 1.28 11.19.15 4.59-.5 7.17-.88 7.7-.89-6.52-1.54-15.22-1.19-16.54zm-8.28 41.65a14 14 0 0 0-1.77.92c-.67.4-.5.85-.23.89a20.76 20.76 0 0 0 3.55-.33c.31-.16.35-.47.22-1.17-.04-.2-1.77-.31-1.77-.31zm5.99-.2a11.82 11.82 0 0 1 1.61.8c.67.41.49.86.22.9a20.82 20.82 0 0 1-3.59-.18c-.31-.16-.31-.63-.17-1.32.04-.23 1.93-.2 1.93-.2zm-4.99-47.46a4.67 4.67 0 0 1-1.13-2.56c.07-.49-.23-1-.23-1.28s.27-1.7.63-1.88 1.07-1 1.75-1.21 1 .11 1.68 0a7.06 7.06 0 0 1 1.74 0 5 5 0 0 1 1.14.76 5.79 5.79 0 0 1-1 6.53 10.71 10.71 0 0 0 .76-1.59c.51-1.61.39-5.06-1.54-3.92a3.68 3.68 0 0 1-2.26-.08c-.74-.27-1.68.63-1.75 1.48a4.54 4.54 0 0 0 1 4.36c.49.61-.58-.46-.79-.61zm-1.24-6.41c-.23-.26-.49-1-1.4-.77a2 2 0 0 0-1.29 2.12c0 .93 1.19 3.91.18 4.56s-.93.75-.39.78 1.32.13 1.69-.52a11.35 11.35 0 0 0 .85-4.64c-.21-1.19.36-1.53.36-1.53zm7.28 0c.23-.26.49-1 1.4-.77a2 2 0 0 1 1.29 2.12c0 .93-1.19 3.91-.18 4.56s.93.75.39.78-1.32.13-1.66-.51a11.18 11.18 0 0 1-.86-4.64c.19-1.2-.38-1.54-.38-1.54z"/><path class="cls-4" d="M12 69.8a4.94 4.94 0 0 0 .49-.48c.12-.16.58-.7.31-1s-.87-.77-1.1-1.1c-.36-.51-.54-3 0-3.54a3.38 3.38 0 0 1 1.69-1.18c.65-.09 2.52.15 2.9.06s.31.07.19.17.12.19.12.19-.19.34-.21.41.3 1 .3 1.26a4.55 4.55 0 0 0 .29 1.14c.11.27.17.53-.1.53s-.09.49-.11.72a5.38 5.38 0 0 1-.34.95c-.08.21-1 0-1.1.5s-.12 1 1.05 1.26a3.3 3.3 0 0 1-2.25 1.08A3.58 3.58 0 0 1 12 69.8z"/><path class="cls-3" d="M17.53 72.14l-.25-.06a67.64 67.64 0 0 0 .31 13 28.87 28.87 0 0 1-6.85.14 94.27 94.27 0 0 0-.49-12.81v-.15H10v.16a88.65 88.65 0 0 1 .58 12.64c-.58-.66-1.97-5.58-1.68-9.21.15-1.86.2-4.27.54-4.85s1.69-.93 2.79-1.56a3.05 3.05 0 0 0 4 .11c1 .6 1.63.52 1.85.85.63 1 .83 7.35.83 7.53a16 16 0 0 1-1.19 6.89 64.48 64.48 0 0 1-.19-12.68z"/><path class="cls-6" d="M16 99.81a147 147 0 0 1 1.68-14.75 27 27 0 0 1-7 .07s.95 13.26.77 14.81a2.47 2.47 0 0 0 1.24.07c.18-.83 1.09-11.53 1.12-11.71s.5-.63.53.28.4 11 .4 11.18 1.26.05 1.26.05z"/><path class="cls-3" d="M11.51 100.11a12.8 12.8 0 0 0-1.33.7c-.51.3-.37.64-.17.67a15.43 15.43 0 0 0 2.67-.25c.24-.12.27-.36.17-.88-.03-.17-1.34-.24-1.34-.24zM16 100a9.11 9.11 0 0 1 1.21.61c.51.3.37.64.17.68a16.46 16.46 0 0 1-2.7-.14c-.24-.12-.24-.47-.14-1 .07-.21 1.46-.15 1.46-.15zm-3.24-31.83c.13.51-1.83-1.14-1.66-1.4s-.43-1.89-.24-2a4.88 4.88 0 0 0 .6-1.67c0-.3 1.28-.44 1.45-.66.33-.4 2.55.29 2.6-.23.07-.7.29.11 1.32.28.1 0-.31.44-.31.44s.15.8-.05.48-.95.37-1 .37-.08.38-.43.49c-.51.16-1.21 1.49-1.35 1.87-.08.22-.42.11-.45.06-.24-.2-.92-.2-.52.8.22.51-.04.88.04 1.17z"/></svg>