<svg id="Calque_1" data-name="Calque 1" xmlns="http://www.w3.org/2000/svg" viewBox="0 0 140 120"><defs><style>.cls-2{fill:#ffa929}.cls-3{fill:#c0c4cd}</style></defs><path d="M16.25 84.31a13.14 13.14 0 0 1 2.33-7.49v15a13.14 13.14 0 0 1-2.33-7.51zm5.34-10.61v21.23a13.27 13.27 0 0 1-2.16-2V75.71a12.88 12.88 0 0 1 2.16-2.01zm3-1.7v24.6a11.73 11.73 0 0 1-2.15-1.09V73.12A12.43 12.43 0 0 1 24.59 72zm3.01-.78V97.4a13 13 0 0 1-2.16-.49v-25.2a15.39 15.39 0 0 1 2.16-.49zm3-.08v26.34a10.56 10.56 0 0 1-1.13 0h-1V71.13h1c.33 0 .76-.02 1.13.01zm3.01.61v25.12a12.84 12.84 0 0 1-2.16.52V71.24a12.82 12.82 0 0 1 2.16.51zm3 1.44v22.24a12.32 12.32 0 0 1-2.16 1.13V72.07a12.28 12.28 0 0 1 2.16 1.12zm3.01 2.66v16.93a13.66 13.66 0 0 1-2.16 2.07V73.79a12.76 12.76 0 0 1 2.16 2.06zm3.07 8.46a13.19 13.19 0 0 1-2.23 7.34V77a13.13 13.13 0 0 1 2.23 7.31z" fill="#636d82"/><circle class="cls-2" cx="29.46" cy="84.35" r="1.67"/><path class="cls-2" d="M29.52 81.93s-6.95-9.87-.3-9.59.3 9.59.3 9.59zm-2.13 2.25s-9.86 7-9.59.31 9.59-.31 9.59-.31zm2.06 2.51s7 9.87.3 9.59-.3-9.59-.3-9.59zm2.09-2.22s9.87-7 9.59-.3-9.59.3-9.59.3z"/><path class="cls-3" d="M17.57 105.89h-2.64a1 1 0 1 1 0-2.09h2.64a1 1 0 0 1 0 2.09zm48.98 0h-2.64a1 1 0 0 1 0-2.09h2.64a1 1 0 0 1 0 2.09zm1.81-40.51H13a.69.69 0 0 0-.7.7v36.1a.7.7 0 0 0 .7.7h55.36a.7.7 0 0 0 .7-.7v-36.1a.7.7 0 0 0-.7-.7zM18.58 91.8a13.2 13.2 0 0 1 0-15zm3 3.13a13.24 13.24 0 0 1-2.15-2V75.71a13.72 13.72 0 0 1 2.15-2zm3 1.67a11.78 11.78 0 0 1-2.15-1.1V73.12A15 15 0 0 1 24.58 72zm3 .8a13.13 13.13 0 0 1-2.15-.49v-25.2a14.22 14.22 0 0 1 2.15-.48zm3 .09h-2.13V71.13h1a10.67 10.67 0 0 1 1.13 0zm3-.61a12.81 12.81 0 0 1-2.16.5V71.24a12.82 12.82 0 0 1 2.16.51zm3-1.45a12 12 0 0 1-2.16 1.13V72.07a12.64 12.64 0 0 1 2.16 1.12zm3-2.66a14.09 14.09 0 0 1-2.15 2.08V73.79a13.43 13.43 0 0 1 2.15 2zm.85-1.12V77a13.24 13.24 0 0 1 0 14.68zm32.14-71.68h46.26v85.92H72.57z"/><path fill="#d8dae0" d="M72.57 19.97l13.3-5.86h41.82l-8.86 5.86H72.57z"/><path fill="#8a91a1" d="M118.83 105.89V19.97l8.86-5.86v80.94l-8.86 10.84z"/><path fill="#3b4863" d="M103.83 22.81h11.55v13.81h-11.55z"/><ellipse class="cls-2" cx="106.34" cy="32.66" rx=".93" ry="1.02"/><ellipse class="cls-2" cx="109.55" cy="32.66" rx=".93" ry="1.02"/><ellipse class="cls-2" cx="112.77" cy="32.66" rx=".93" ry="1.02"/><path class="cls-3" d="M106.9 25.96h5.5v3.15h-5.5z"/></svg>