<svg id="Calque_1" data-name="Calque 1" xmlns="http://www.w3.org/2000/svg" viewBox="0 0 140 120"><defs><style>.cls-1{fill:#c0c4cd}.cls-2{fill:#d8dae0}.cls-3{fill:#74f0a7}.cls-4{fill:#74f0a7}.cls-5{fill:#fff}</style></defs><path class="cls-1" d="M41.45 21.04h46.72v84.85H41.45z"/><path class="cls-2" d="M43.33 73.77h42.93v30.87H43.33zm0-32.99h43.05v30.23H43.33z"/><path class="cls-3" d="M79 89.46a14.18 14.18 0 1 1-14.21-14.18A14.19 14.19 0 0 1 79 89.46z"/><path class="cls-4" d="M67.08 94.2l-9.36 1.71c1.69-.31 2.76-2.22 2.39-4.25s-2-3.44-3.74-3.13l9.36-1.71c1.69-.31 3.37 1.09 3.74 3.13s-.7 3.94-2.39 4.25z"/><path class="cls-5" d="M57.72 95.91c-1.7.31-3.37-1.1-3.74-3.14s.69-3.93 2.39-4.24 3.36 1.09 3.74 3.13-.7 3.94-2.39 4.25z"/><path class="cls-4" d="M57.18 95.78a2.54 2.54 0 0 1-1.72-.73 4.16 4.16 0 0 1-1.23-2.32c-.35-1.93.57-3.73 2.06-4s3 1.08 3.34 3a4.1 4.1 0 0 1-.33 2.61 2.46 2.46 0 0 1-1.73 1.39 2.58 2.58 0 0 1-.39.05zm-.5-6.84a1.87 1.87 0 0 0-.34 0c-1.36.25-2.2 1.92-1.87 3.72a3.92 3.92 0 0 0 1.15 2.18 2.22 2.22 0 0 0 1.91.63 2.26 2.26 0 0 0 1.56-1.26 3.88 3.88 0 0 0 .31-2.45c-.31-1.62-1.48-2.82-2.72-2.82z"/><path class="cls-4" d="M57.11 94.45c-.78 0-1.53-.82-1.73-1.93s.29-2.31 1.13-2.47a1.39 1.39 0 0 1 1.21.46 2.8 2.8 0 0 1 .71 1.49c.22 1.21-.28 2.31-1.12 2.47zm-.4-4.17h-.16c-.71.13-1.13 1.11-.93 2.19s.93 1.84 1.64 1.71 1.13-1.11.93-2.18a2.52 2.52 0 0 0-.64-1.33 1.23 1.23 0 0 0-.84-.39z"/><path class="cls-4" d="M57 93.25c-.32 0-.63-.38-.72-.9a1.4 1.4 0 0 1 0-.71.56.56 0 0 1 .39-.4c.35-.06.7.33.8.89.11.56-.09 1.05-.43 1.11zm-.21-1.77a.36.36 0 0 0-.22.24 1.29 1.29 0 0 0 0 .59c.08.45.34.72.51.69s.33-.38.25-.83-.33-.69-.53-.69z"/><path fill="none" stroke="#8a91a1" stroke-linecap="round" stroke-miterlimit="10" stroke-width=".17" d="M68.6 89.09l-3.14.57"/><path class="cls-5" d="M61.72 90.09a.12.12 0 0 1-.12-.09.13.13 0 0 1 .1-.15l7.49-1.36a.12.12 0 0 1 .14.09.13.13 0 0 1-.1.15l-7.49 1.36zM64 97.32c-1.69.31-3.36-1.09-3.74-3.13s.7-3.94 2.39-4.25S66 91 66.4 93.07 65.7 97 64 97.32z"/><path class="cls-4" d="M63.48 97.19a2.58 2.58 0 0 1-1.72-.72 4.14 4.14 0 0 1-1.24-2.33c-.35-1.93.58-3.72 2.07-4a2.45 2.45 0 0 1 2.11.68 4.19 4.19 0 0 1 1.23 2.33 4.17 4.17 0 0 1-.33 2.61 2.48 2.48 0 0 1-1.73 1.39 2.56 2.56 0 0 1-.39.04zM63 90.36a2.07 2.07 0 0 0-.35 0c-1.36.24-2.2 1.91-1.87 3.71a3.86 3.86 0 0 0 1.16 2.19 2.09 2.09 0 0 0 3.46-.63 3.91 3.91 0 0 0 .31-2.46A3.94 3.94 0 0 0 64.54 91a2.34 2.34 0 0 0-1.54-.64z"/><path class="cls-4" d="M63.4 95.86c-.77 0-1.52-.81-1.72-1.93s.28-2.31 1.12-2.46a1.37 1.37 0 0 1 1.22.46 2.84 2.84 0 0 1 .71 1.45 2.8 2.8 0 0 1-.16 1.62 1.34 1.34 0 0 1-1 .85zm-.4-4.17h-.15c-.71.13-1.13 1.11-.94 2.18s.94 1.85 1.65 1.71a1.12 1.12 0 0 0 .79-.71 2.48 2.48 0 0 0 .14-1.47 2.54 2.54 0 0 0-.65-1.32 1.18 1.18 0 0 0-.84-.39z"/><path class="cls-4" d="M63.31 94.66c-.32 0-.63-.37-.73-.89a1.51 1.51 0 0 1 0-.71.54.54 0 0 1 .4-.4c.35-.07.7.32.8.88.1.56-.09 1-.44 1.11zm-.22-1.77c-.08 0-.16.1-.21.24a1.14 1.14 0 0 0 0 .59c.08.44.34.72.52.69s.32-.39.24-.83c-.14-.42-.37-.69-.55-.69z"/><path class="cls-5" d="M61.76 89.82c-1.69.31-3.36-1.1-3.73-3.13s.7-3.94 2.39-4.25 3.36 1.09 3.74 3.13-.7 3.94-2.4 4.25z"/><path class="cls-4" d="M61.34 89.65a2.54 2.54 0 0 1-1.72-.73 4.07 4.07 0 0 1-1.23-2.32c-.35-1.93.57-3.73 2.06-4s3 1.08 3.34 3a4.1 4.1 0 0 1-.33 2.61 2.46 2.46 0 0 1-1.73 1.39 2.58 2.58 0 0 1-.39.05zm-.5-6.84a2.07 2.07 0 0 0-.35 0c-1.35.25-2.19 1.92-1.86 3.72a3.92 3.92 0 0 0 1.15 2.18 2.22 2.22 0 0 0 1.91.63 2.26 2.26 0 0 0 1.56-1.26 3.81 3.81 0 0 0 .3-2.45 3.15 3.15 0 0 0-2.71-2.82z"/><path class="cls-4" d="M61.15 88.36a1.45 1.45 0 0 1-1-.48 2.76 2.76 0 0 1-.71-1.45c-.22-1.2.28-2.31 1.13-2.46a1.35 1.35 0 0 1 1.21.45 2.8 2.8 0 0 1 .71 1.45 2.78 2.78 0 0 1-.15 1.61 1.37 1.37 0 0 1-1 .86zm-.39-4.17h-.16c-.71.13-1.13 1.11-.93 2.19a2.45 2.45 0 0 0 .64 1.32 1.15 1.15 0 0 0 1 .39 1.11 1.11 0 0 0 .8-.72 2.52 2.52 0 0 0 .13-1.46 2.52 2.52 0 0 0-.64-1.33 1.23 1.23 0 0 0-.84-.39z"/><path class="cls-4" d="M61.06 87.16a.62.62 0 0 1-.44-.24 1.48 1.48 0 0 1-.28-.65 1.39 1.39 0 0 1 0-.71.5.5 0 0 1 .92-.17 1.29 1.29 0 0 1 .28.65 1.4 1.4 0 0 1 0 .71.54.54 0 0 1-.4.4zm-.21-1.77a.35.35 0 0 0-.22.25 1.24 1.24 0 0 0 0 .58 1.07 1.07 0 0 0 .23.54.32.32 0 0 0 .28.15c.09 0 .17-.1.22-.24a1.27 1.27 0 0 0 0-.59 1.15 1.15 0 0 0-.23-.54.38.38 0 0 0-.28-.15z"/><path class="cls-4" d="M71.13 88.11l-9.37 1.71c1.7-.31 2.77-2.21 2.4-4.25s-2-3.44-3.74-3.13l5.78-1.06a4.29 4.29 0 0 0-1.2-.28v-.6a9.75 9.75 0 0 1 1.68 0 4.13 4.13 0 0 1 1.26.54l1.89-.34c1.69-.31 3.36 1.09 3.74 3.13s-.75 3.97-2.44 4.28zm2.24 7.5l-4.63.85a3.7 3.7 0 0 1-.77.76 10.08 10.08 0 0 1-1.52.71l-.2-.52a5.33 5.33 0 0 0 .92-.66l-3.17.57c1.69-.31 2.76-2.21 2.39-4.25s-2-3.44-3.74-3.13L72 88.23c1.69-.31 3.36 1.1 3.73 3.13s-.67 3.94-2.36 4.25z"/><path class="cls-5" d="M66.16 90a.12.12 0 0 1-.11-.1.11.11 0 0 1 .09-.14l5.55-1a.12.12 0 0 1 .14.09.11.11 0 0 1-.09.14l-5.55 1zm-.1.65a.14.14 0 0 1-.12-.1.14.14 0 0 1 .1-.14l1.89-.34a.12.12 0 0 1 0 .24l-1.88.34zm1.49.49a.12.12 0 0 1-.12-.1.12.12 0 0 1 .1-.14l5.4-1a.13.13 0 0 1 .14.1.12.12 0 0 1-.1.14l-5.4 1zm4.21.06a.12.12 0 0 1 0-.24l3.14-.58a.12.12 0 0 1 .14.1.12.12 0 0 1-.09.14l-3.14.58zm-4.58.94a.12.12 0 0 1 0-.24l3.67-.67a.12.12 0 0 1 .14.1.12.12 0 0 1-.1.14l-3.66.67zm1.19 1.13a.12.12 0 0 1-.12-.1.12.12 0 0 1 .09-.14l4.84-.88a.12.12 0 0 1 0 .24l-4.83.88zm.92.79a.12.12 0 0 1-.12-.1.12.12 0 0 1 .1-.14l4.89-.89a.13.13 0 0 1 .14.1.14.14 0 0 1-.1.14l-4.89.89zm-2.14 1.3a.12.12 0 0 1-.12-.1.11.11 0 0 1 .09-.14l2.88-.53a.12.12 0 0 1 0 .23l-2.91.53zm4.26-.78a.12.12 0 0 1-.12-.1.12.12 0 0 1 .1-.14l2.9-.53a.13.13 0 0 1 .15.09.14.14 0 0 1-.1.15l-2.91.53zm-3.26 1.5A.12.12 0 0 1 68 96a.12.12 0 0 1 .1-.14l5.69-1a.12.12 0 0 1 0 .24l-5.69 1zm-4.23-13.6a.13.13 0 0 1-.12-.1.13.13 0 0 1 .1-.15l5.55-1a.13.13 0 0 1 .14.1.12.12 0 0 1-.1.14l-5.55 1zm-.1.67a.12.12 0 0 1-.12-.1.12.12 0 0 1 .1-.14l1.88-.34a.12.12 0 1 1 0 .23l-1.89.35zm1.48.48a.12.12 0 0 1-.12-.1.12.12 0 0 1 .1-.14l5.4-1a.12.12 0 0 1 .14.09.13.13 0 0 1-.1.15l-5.4 1zm4.21.06a.12.12 0 0 1-.12-.1.13.13 0 0 1 .1-.14l3.14-.57a.13.13 0 0 1 .14.1.13.13 0 0 1-.1.14l-3.14.57zm-4.57.95a.12.12 0 0 1-.12-.1.12.12 0 0 1 .1-.14l3.66-.67a.12.12 0 0 1 .14.1.12.12 0 0 1-.09.14l-3.63.67zm1.18 1.13a.12.12 0 0 1-.12-.1.12.12 0 0 1 .1-.14l4.83-.88a.12.12 0 0 1 .14.1.12.12 0 0 1-.09.14l-4.84.88zm.88.79a.12.12 0 0 1-.12-.1.12.12 0 0 1 .1-.14l4.89-.9a.13.13 0 0 1 .14.1.12.12 0 0 1-.1.14l-4.89.9zm-2.1 1.29a.12.12 0 0 1-.12-.1.12.12 0 0 1 .1-.14l2.91-.53a.12.12 0 0 1 0 .24l-2.91.53zm4.26-.77A.13.13 0 0 1 69 87a.13.13 0 0 1 .1-.15l2.91-.53a.13.13 0 0 1 .14.1.12.12 0 0 1-.1.14l-2.91.53zm-3.26 1.49a.12.12 0 0 1-.12-.09.13.13 0 0 1 .1-.15l5.69-1a.11.11 0 0 1 .14.09.12.12 0 0 1-.09.14l-5.7 1z"/><path class="cls-2" d="M41.36 21.04l15.71-5.78h41.57l-10.47 5.78H41.36z"/><path fill="#8a91a1" d="M88.17 105.89V21.04l10.47-5.78v79.93l-10.47 10.7z"/><path fill="#636d82" d="M56.83 20.95h15.05v17H56.83z"/><circle class="cls-4" cx="59.97" cy="32.7" r="1.31"/><circle class="cls-4" cx="64.5" cy="32.7" r="1.31"/><circle class="cls-4" cx="69.02" cy="32.7" r="1.31"/><path class="cls-1" d="M60.76 24.04h7.74v4.07h-7.74z"/><path class="cls-3" d="M56.83 20.95l1.82-.66 14.13.08v16.71l-.9.87V20.93l-15.05.02z"/></svg>