<svg xmlns="http://www.w3.org/2000/svg" viewBox="0 0 140 120"><defs><style>.cls-2{fill:#8a91a1}.cls-5{fill:#d8dae0}.cls-6{fill:#4d338b}.cls-10{fill:#c0c4cd}.cls-11{fill:#1887c9}.cls-12{fill:#67b8e3}.cls-13{fill:#bfe2f4}</style></defs><g style="isolation:isolate"><g id="Calque_1" data-name="Calque 1"><path class="cls-2" d="M40.3 16.76h34.06v84.6H40.3z"/><path d="M59.17 28.98v16.19m.84-13.16V48.2m.85-19.47v16.19m.84-15.77v16.19m0 2.61v16.19M60.1 50.4v16.18M59.09 46.1v16.18m1.68-16.52v16.19M63.3 46.1v16.18m.93-15.89v17.66M62.46 59v16.18m-1.44-11.04v16.19m-1.43-11.89v16.19m4.22-17.88v16.19m-.85-6.83V92.3m-2.61-13.49V95m1.69-15.77v16.19m.5-65.85v17.71m1.01-18.55v16.19m.76-15.69v16.19m.93 3.42v17.15m-.42 2.7v16.19m.5-53.71v16.19m1.02.25V63.8m.67-20.99V59m.13-30.29v11.57m.5-7.84v11.57m.64-15.43v11.57m-9.74-11.82V39.9m-1.65-11.76v11.57m.45-5.95v11.58m-.7-4.24v11.57m.82-6.13v11.57m-.57-4.81v11.58m1.14-6.58v11.57m.82-6.7v11.57m3.61-25.93v9.43m-2.28 9.48v9.42m3.04-13.53v9.42m3.79-11.25v9.42m-.25 1.01v9.42M57.34 66.2v9.43m1.13.5v9.42m.03-44.94V56.8m-.59-28.12v16.19m8 21.63v16.19m.51-53.71v16.19" stroke-linecap="round" stroke="#a7d5ef" stroke-width=".32" fill="none" stroke-miterlimit="10"/><path d="M62.35 26.9c-.09-1.9-.36-5.25.09-5.25s7.13.14 8.13.14.59 38.45.59 38.45h1.48" stroke="#d8dae0" stroke-width="1.36" fill="none" stroke-miterlimit="10"/><ellipse class="cls-5" cx="62.42" cy="27.32" rx="7.4" ry=".65"/><path class="cls-6" d="M44.15 16.28c-.84-.05-.14 10.67-.68 13.39s.48 1.9 1.09 2a14.2 14.2 0 0 0 2.1.14s-.47-15.39-2.51-15.53z"/><path style="mix-blend-mode:hard-light" fill="#a7d5ef" opacity=".65" d="M41.93 17.62h30.8v79.69h-30.8z"/><path class="cls-2" d="M44.87 51.27h.97v12.64h-.97z"/><path class="cls-6" d="M44.15 16.28c1.36.14 1 17.73 1.22 19.09s9.92.68 10.74.68.4-19.5-.14-19.9-11.82.13-11.82.13z"/><path d="M45.85 34.49s7.67.81 10.12.13m-10.12-1.08s7.67.81 10.12.13" stroke="#fee1b3" stroke-width=".68" stroke-linecap="round" fill="none" stroke-miterlimit="10"/><path d="M31.76 65.22V57c0-.84 2.59-1.26 2.62.32v.91" stroke-width="1.26" stroke="#8a91a1" stroke-linecap="round" fill="none" stroke-miterlimit="10"/><path class="cls-10" d="M27.95 69.74h6.83v32.38h-6.83z"/><rect class="cls-2" x="29.4" y="62.2" width="1.47" height="2.28" rx=".74"/><rect class="cls-2" x="32.59" y="62.2" width="1.47" height="2.28" rx=".74"/><path class="cls-10" d="M34.52 71.59h-6.07c-1.87 0-10.87-2.53-10.87-4.4 0-1.88 4.28-3.39 6.15-3.39h15.94c1.87 0 5.48 1.51 5.48 3.39 0 1.87-8.75 4.4-10.63 4.4z"/><path class="cls-11" d="M31.49 64.6h-8A9.47 9.47 0 0 0 20 66.11c0 .26 21.25.17 22.09.17s-1.09-1.6-1.75-1.68-8.85 0-8.85 0z"/><path class="cls-12" d="M34.15 59.2L34 63.08s-.2 2 .12 2.34 1.41.56 1.41-.24-1-6.06-1-6.06z"/><ellipse class="cls-13" cx="33.73" cy="64.88" rx=".64" ry=".48"/><ellipse class="cls-13" cx="35.64" cy="64.69" rx=".57" ry=".43"/><ellipse class="cls-13" cx="35.27" cy="65.3" rx=".57" ry=".48"/><ellipse class="cls-13" cx="33.36" cy="65.09" rx=".47" ry=".4"/><ellipse class="cls-13" cx="34.5" cy="65.39" rx=".44" ry=".3"/><ellipse class="cls-13" cx="34.25" cy="64.74" rx=".18" ry=".27"/><path d="M93.06 78s.11-7 0-7.83 2.41-1.66 2.41.64" stroke-width="1.31" stroke="#8a91a1" stroke-linecap="round" fill="none" stroke-miterlimit="10"/><path class="cls-5" d="M103.2 105.36H78.91a19.28 19.28 0 0 1-19.22-19.22c0-10.57 8.65-8.07 19.22-8.07h24.29c10.57 0 19.22-2.5 19.22 8.07a19.28 19.28 0 0 1-19.22 19.22z"/><path class="cls-11" d="M76.15 80.53c-2.25 0-9.9-.81-11.65 1.08s1.83 2.16 4.49 2.16h48.17c2.25 0 2.42-3.49-2.74-3.33-2.08.07-34.53.09-38.27.09z"/><path class="cls-12" d="M95.13 71.63l-.25 7.06s-.36 3.73.23 4.27 2.55 1 2.55-.45-1.78-11-1.78-11z"/><ellipse class="cls-13" cx="89.25" cy="82.22" rx="1" ry=".87"/><ellipse class="cls-13" cx="97.55" cy="76.91" rx=".33" ry=".58"/><ellipse class="cls-13" cx="94.37" cy="81.98" rx="1.16" ry=".87"/><ellipse class="cls-13" cx="97.84" cy="81.63" rx="1.04" ry=".79"/><ellipse class="cls-13" cx="99.83" cy="78.76" rx=".25" ry=".12"/><ellipse class="cls-13" cx="97.17" cy="82.74" rx="1.04" ry=".87"/><ellipse class="cls-13" cx="91.94" cy="82.42" rx=".97" ry=".71"/><ellipse class="cls-13" cx="99.58" cy="82.33" rx="1.09" ry=".87"/><ellipse class="cls-13" cx="93.69" cy="82.35" rx=".86" ry=".73"/><ellipse class="cls-13" cx="95.78" cy="82.89" rx=".8" ry=".54"/><ellipse class="cls-13" cx="95.32" cy="81.71" rx=".33" ry=".5"/></g></g></svg>