<svg id="Calque_1" data-name="Calque 1" xmlns="http://www.w3.org/2000/svg" viewBox="0 0 140 120"><defs><style>.cls-1{fill:#c0c4cd}.cls-2{fill:#3b4863}.cls-4{fill:#8a91a1}.cls-6{stroke:#c0c4cd;stroke-miterlimit:10}.cls-5{fill:#d8dae0}.cls-6{fill:none;stroke-linecap:round;stroke-width:.51px}.cls-8{fill:#74f0a7}.cls-11{fill:#0288d1}.cls-12{fill:#67b8e3}.cls-13{fill:#a7d5ef}</style></defs><path class="cls-1" d="M37.21 20.21h55.21v85.68H37.21z"/><path class="cls-2" d="M79.84 89.3a14.32 14.32 0 0 1-10.56 13.82 14.1 14.1 0 0 1-3.76.5A14.32 14.32 0 1 1 79.84 89.3z"/><path d="M71.57 97.93c-.42.62-2.66 1.15-6.23 1.1-3.12 0-5.34-.48-5.8-1.12a.28.28 0 0 0-.09.2c0 .66 2.73 1.2 6.1 1.2s6.09-.54 6.09-1.2a.27.27 0 0 0-.07-.18z" stroke-width=".55" stroke-miterlimit="10" stroke="#c0c4cd" fill="#8a91a1"/><path class="cls-4" d="M71.57 97.93a.35.35 0 0 0 .07-.27V80.31H59.45v17.35a.43.43 0 0 0 .09.25"/><path class="cls-4" d="M59.54 97.91c.46.64 2.68 1.08 5.8 1.12 3.57 0 5.81-.48 6.23-1.1"/><path class="cls-5" d="M65.55 81.5c-2.17 0-6.26-.25-6.26-1.19s4.09-1.19 6.26-1.19 6.26.25 6.26 1.19-4.1 1.19-6.26 1.19z"/><path class="cls-1" d="M65.55 79.29c3.36 0 6.09.46 6.09 1s-2.73 1-6.09 1-6.1-.45-6.1-1 2.73-1 6.1-1m0-.33c-1.07 0-6.43.06-6.43 1.35s5.36 1.35 6.43 1.35S72 81.6 72 80.31 66.62 79 65.55 79z"/><path class="cls-6" d="M59.45 85.28c0 .57 2.73 1 6.1 1s6.09-.45 6.09-1m-12.19 4.44c0 .57 2.73 1 6.1 1s6.09-.45 6.09-1"/><path d="M59.64 79.86c-.29.17-.52.15-.43.8s2.84 1 6.34 1 6.24-.5 6.3-1-.08-.63-.2-.67" stroke-width=".33" stroke-linecap="round" fill="none" stroke-miterlimit="10" stroke="#c0c4cd"/><path class="cls-6" d="M59.45 94.16c0 .57 2.73 1 6.1 1s6.09-.46 6.09-1"/><path class="cls-2" d="M62.62 80.7c-.13 0-1.27 0-1.27-.39s1.14-.38 1.27-.38 1.28 0 1.28.38-1.15.39-1.28.39z"/><path class="cls-8" d="M62.62 80c.65 0 1.17.13 1.17.28s-.52.28-1.17.28-1.17-.13-1.17-.28S62 80 62.62 80m0-.21c-.41 0-1.38 0-1.38.49s1 .5 1.38.5 1.39 0 1.39-.5-1-.49-1.39-.49z"/><path class="cls-5" d="M37.21 20.21l15.87-5.85H103l-10.58 5.85H37.21z"/><path class="cls-4" d="M92.42 105.89V20.21L103 14.36v80.72l-10.58 10.81z"/><path fill="#636d82" d="M77.34 20.11h15.2v17.17h-15.2z"/><circle class="cls-8" cx="80.52" cy="31.98" r="1.32"/><circle class="cls-8" cx="85.08" cy="31.98" r="1.32"/><circle class="cls-8" cx="89.65" cy="31.98" r="1.32"/><path class="cls-1" d="M81.31 23.24h7.81v4.11h-7.81z"/><path class="cls-2" d="M77.34 20.11l1.84-.66 14.28.07V36.4l-.92.88V20.1l-15.2.01z"/><path d="M37 29.67s10-.29 15.18 0 3.43 8.58 3.43 14.3c0 6.72 3.57 4.57 18.88 4.57 5.5 0 5.72 4.86-.29 5.15s-14 .57-17.16.57c-5.15 0-4.29 4.29-.86 4.29s16.3-.28 19-.28c3.65 0 3.58 4.29.57 4.29H57c-3.36 0-3.15 4.07 0 4.07s17.37-.14 19.23-.14-.21 6 3.65 6 12.37-.21 12.37-.21" stroke="#d8dae0" stroke-width="2.86" fill="none" stroke-miterlimit="10"/><circle class="cls-11" cx="38.43" cy="29.61" r=".7"/><circle class="cls-11" cx="41.5" cy="29.61" r=".7"/><circle class="cls-11" cx="44.57" cy="29.61" r=".7"/><circle class="cls-11" cx="47.65" cy="29.61" r=".7"/><circle class="cls-11" cx="50.72" cy="29.61" r=".7"/><circle class="cls-11" cx="53.83" cy="29.97" r=".7"/><circle class="cls-11" cx="55.34" cy="32.15" r=".7"/><circle class="cls-11" cx="55.73" cy="34.8" r=".7"/><circle class="cls-11" cx="55.87" cy="37.48" r=".7"/><circle class="cls-11" cx="55.8" cy="40.05" r=".7"/><circle class="cls-11" cx="55.73" cy="42.63" r=".7"/><circle class="cls-11" cx="55.66" cy="45.2" r=".7"/><circle class="cls-11" cx="56.59" cy="47.77" r=".7"/><circle class="cls-11" cx="59.16" cy="48.81" r=".7"/><circle class="cls-11" cx="61.98" cy="48.92" r=".7"/><circle class="cls-11" cx="64.56" cy="48.88" r=".7"/><circle class="cls-11" cx="67.13" cy="48.85" r=".7"/><circle class="cls-11" cx="69.71" cy="48.81" r=".7"/><circle class="cls-11" cx="72.28" cy="48.77" r=".7"/><circle class="cls-11" cx="74.85" cy="48.74" r=".7"/><circle class="cls-11" cx="77.54" cy="49.2" r=".7"/><circle class="cls-11" cx="78.68" cy="50.85" r=".7"/><circle class="cls-11" cx="77.93" cy="52.85" r=".7"/><circle class="cls-11" cx="75.82" cy="53.49" r=".7"/><circle class="cls-11" cx="73.28" cy="53.78" r=".7"/><circle class="cls-11" cx="70.89" cy="53.85" r=".7"/><circle class="cls-12" cx="68.49" cy="53.92" r=".7"/><circle class="cls-11" cx="66.1" cy="53.99" r=".7"/><circle class="cls-11" cx="63.7" cy="54.07" r=".7"/><circle class="cls-12" cx="61.31" cy="54.14" r=".7"/><circle class="cls-12" cx="58.91" cy="54.21" r=".7"/><circle class="cls-8" cx="56.51" cy="54.28" r=".7"/><circle class="cls-12" cx="54.05" cy="54.96" r=".7"/><circle class="cls-11" cx="53.37" cy="56.89" r=".7"/><circle class="cls-8" cx="54.94" cy="58.5" r=".7"/><circle class="cls-12" cx="57.34" cy="58.71" r=".7"/><circle class="cls-11" cx="59.77" cy="58.75" r=".7"/><circle class="cls-12" cx="62.06" cy="58.68" r=".7"/><circle class="cls-13" cx="64.34" cy="58.61" r=".7"/><circle class="cls-8" cx="66.63" cy="58.53" r=".7"/><circle class="cls-12" cx="68.92" cy="58.46" r=".7"/><circle class="cls-13" cx="71.21" cy="58.39" r=".7"/><circle class="cls-8" cx="73.5" cy="58.32" r=".7"/><circle class="cls-12" cx="75.78" cy="58.25" r=".7"/><circle class="cls-13" cx="77.75" cy="59.46" r=".7"/><circle class="cls-8" cx="77.75" cy="61.64" r=".7"/><circle class="cls-12" cx="75.86" cy="62.57" r=".7"/><circle class="cls-8" cx="73.6" cy="62.65" r=".7"/><circle class="cls-8" cx="71.35" cy="62.65" r=".7"/><circle class="cls-12" cx="69.13" cy="62.61" r=".7"/><circle class="cls-8" cx="66.92" cy="62.57" r=".7"/><circle class="cls-13" cx="64.65" cy="62.59" r=".7"/><circle class="cls-8" cx="62.44" cy="62.5" r=".7"/><circle class="cls-8" cx="60.17" cy="62.61" r=".7"/><circle class="cls-8" cx="57.96" cy="62.57" r=".7"/><circle class="cls-13" cx="55.87" cy="62.69" r=".7"/><circle class="cls-8" cx="54.62" cy="64.33" r=".7"/><circle class="cls-8" cx="55.44" cy="66.22" r=".7"/><circle class="cls-8" cx="57.73" cy="66.79" r=".7"/><circle class="cls-8" cx="60.09" cy="66.79" r=".7"/><circle class="cls-8" cx="62.45" cy="66.79" r=".7"/><circle class="cls-8" cx="64.81" cy="66.79" r=".7"/><circle class="cls-8" cx="67.16" cy="66.7" r=".7"/><circle class="cls-8" cx="69.53" cy="66.69" r=".7"/><circle class="cls-8" cx="71.91" cy="66.63" r=".7"/><circle class="cls-8" cx="74.25" cy="66.61" r=".7"/><circle class="cls-8" cx="76.57" cy="66.65" r=".7"/><circle class="cls-8" cx="77.29" cy="68.76" r=".7"/><circle class="cls-8" cx="77.76" cy="70.95" r=".7"/><circle class="cls-8" cx="79.29" cy="72.52" r=".7"/><circle class="cls-8" cx="81.48" cy="72.57" r=".7"/><circle class="cls-8" cx="83.67" cy="72.67" r=".7"/><circle class="cls-8" cx="86.15" cy="72.71" r=".7"/><circle class="cls-8" cx="88.44" cy="72.71" r=".7"/><circle class="cls-8" cx="90.63" cy="72.62" r=".7"/></svg>