<svg id="Calque_1" data-name="Calque 1" xmlns="http://www.w3.org/2000/svg" viewBox="0 0 140 120"><defs><style>.cls-1{fill:#74f0a7}.cls-2{fill:#8a91a1}</style></defs><path class="cls-1" d="M71.66 15.91a25.81 25.81 0 0 0-22.45 41 41 41 0 0 1 5.87 11.28 39.88 39.88 0 0 1 2 12.54h25.79v-.26a40.48 40.48 0 0 1 8-23.69 25.62 25.62 0 0 0 4.91-15.71 25.94 25.94 0 0 0-24.12-25.16zM84 41.4c-.45.51-1 2.72-1.26 4.05-.75 3.21-1.38 6-3.53 6s-2.79-2.78-3.53-6a22 22 0 0 0-1.09-3.76 23 23 0 0 0-1.08 3.76c-.74 3.21-1.37 6-3.52 6s-2.78-2.77-3.53-6a22.08 22.08 0 0 0-1.07-3.76 21.16 21.16 0 0 0-1.08 3.76c-.75 3.21-1.38 6-3.53 6s-2.78-2.78-3.53-6A15.56 15.56 0 0 0 56 41.4a1.27 1.27 0 0 1-1.07-1.24 1.25 1.25 0 0 1 1.26-1.25c2.15 0 2.78 2.77 3.51 6a23.83 23.83 0 0 0 1.09 3.75 21.91 21.91 0 0 0 1.08-3.75c.75-3.21 1.37-6 3.53-6s2.78 2.77 3.52 6A21.91 21.91 0 0 0 70 48.64a21.91 21.91 0 0 0 1.08-3.75c.74-3.21 1.37-6 3.52-6s2.8 2.77 3.53 6a23.08 23.08 0 0 0 1.09 3.77 23.12 23.12 0 0 0 1.08-3.77c.75-3.21 1.37-6 3.53-6a1.26 1.26 0 0 1 1.26 1.25A1.28 1.28 0 0 1 84 41.4z"/><rect class="cls-2" x="56.83" y="83.45" width="26.04" height="6.35" rx="2.62"/><rect class="cls-2" x="56.83" y="91.8" width="26.04" height="6.35" rx="2.62"/><rect class="cls-1" x="62.15" y="100.18" width="15.7" height="3.96" rx="1.87"/></svg>