<svg id="Calque_1" data-name="Calque 1" xmlns="http://www.w3.org/2000/svg" viewBox="0 0 140 120"><defs><style>.cls-2{fill:#d8dae0}.cls-6{fill:#fff}</style></defs><path d="M122.11 75.51L76.24 90.79 20.88 69.87c-6-3.26-10.38-15-9.29-19.39" stroke-width="1.21" stroke="#ffa929" fill="none" stroke-miterlimit="10"/><path class="cls-2" d="M21.2 68.26l54.96 20.76 46.11-14.72-49.73-14.97-51.34 8.93z"/><path d="M34.72 67.22c8.34 5.19 36.29-10 42.49-4.11 2.62 2.49-21.39 7.12-24.46 8.37-7.41 3-.58 7.66 6.27 5.55 3.14-1 23.93-7.1 26.56-8.2s8.12-1.76 9.89-.81c2.09 1.13 2.26 2.34-1.61 4.11s-23.91 7-25.18 7.56c-4.45 1.87 1.52 6.64 8 4.35 4.16-1.47 35-10.79 35-10.79" stroke-linecap="round" stroke="#636d82" stroke-width="1.21" fill="none" stroke-miterlimit="10"/><path d="M40.6 66.9l45.78 18.26M53.39 63.6l45.54 17.3M62.48 60.38l50.29 16.49" stroke-linecap="round" stroke="#c0c4cd" fill="none" stroke-miterlimit="10" stroke-width="1.21"/><path class="cls-2" d="M73 61.21l-3.64.67-2.91.53-6 1.08-2.9.53h-.27l-3.32.61-4.46.82-3.29.59-3.34.61-3.4.62-4.18.76-3.42.63-3 .54a11.57 11.57 0 0 0 2.49-.75 9.9 9.9 0 0 0 1.64-.76 14.89 14.89 0 0 0 6-7.19 14 14 0 0 0 .52-1.41 20 20 0 0 0 .59-9.85 20.6 20.6 0 0 0-3.59-8.45c-.31-.41-.62-.8-1-1.17a15.28 15.28 0 0 0-8.25-5.06 12.66 12.66 0 0 0-3.68-.23L26 34l2.88-.41 6.12-.84 2.93-.41 2.85-.4 3.43-.48 3.93-.56 3.54-.49.88-.12 3.67-.52 3.28-.46 3.74-.53 3.05-.42c9-1 16.44 4.23 18.19 13.83S80.93 59.75 73 61.21z"/><path d="M28.87 69.25c-8 1.47-15.86-5.14-17.61-14.74s3.28-18.56 11.26-20 15.85 5.15 17.6 14.75-3.29 18.54-11.25 19.99z" fill="#ffa929"/><path class="cls-6" d="M26.35 68.64a12 12 0 0 1-8.11-3.41 19.47 19.47 0 0 1-5.8-10.94c-1.66-9.1 2.7-17.54 9.72-18.83s14.08 5.09 15.74 14.19a19.44 19.44 0 0 1-1.56 12.28 11.57 11.57 0 0 1-8.15 6.54 10.5 10.5 0 0 1-1.84.17zM24 36.44a8.88 8.88 0 0 0-1.62.15c-6.4 1.17-10.34 9-8.8 17.5A18.38 18.38 0 0 0 19 64.39a10.49 10.49 0 0 0 9 3 10.5 10.5 0 0 0 7.35-5.94 18.32 18.32 0 0 0 1.45-11.56c-1.44-7.8-6.98-13.45-12.8-13.45z"/><path d="M48.29 47.67c-1.26-7.28-5.42-13-10.4-15.33l-2.89.41c5.66 1.09 10.71 7.13 12.11 15.16a22 22 0 0 1-1.58 13.23 12.37 12.37 0 0 1-6 6.18l3.4-.62a15.09 15.09 0 0 0 3.74-5 23.3 23.3 0 0 0 1.62-14.03zm14.33-2.08c-1.3-7.36-5.72-13.13-11-15.18l-3.54.49c6.12.4 11.8 6.56 13.3 14.92a20.85 20.85 0 0 1-1.58 12.89 12.23 12.23 0 0 1-5.88 6l3.32-.61a14.46 14.46 0 0 0 3.67-4.78 22.1 22.1 0 0 0 1.71-13.73zm11.71-1.72C73 36.51 68.52 30.76 63.21 28.78l-3.74.53c6.24.18 12.12 6.35 13.64 14.79a20.56 20.56 0 0 1-1.58 12.77 12.54 12.54 0 0 1-5.12 5.54l2.91-.53a14.89 14.89 0 0 0 3.32-4.45 21.75 21.75 0 0 0 1.69-13.56z" fill="#636d82"/><path class="cls-6" d="M26 62.38c-3.66 0-7.19-3.84-8.15-9.08-1-5.68 1.35-10.89 5.31-11.61a6.43 6.43 0 0 1 5.72 2.16 13.09 13.09 0 0 1 3.35 6.83c1 5.68-1.34 10.89-5.31 11.61a4.86 4.86 0 0 1-.92.09zm-1.88-19.63a4.52 4.52 0 0 0-.74.06C20 43.42 18.07 48 19 53.1s4.4 8.68 7.74 8.07 5.26-5.23 4.38-10.29a12 12 0 0 0-3.05-6.23 5.61 5.61 0 0 0-3.95-1.9z"/><path class="cls-6" d="M25.56 56.72c-1.51 0-3-1.75-3.42-4.2a6.72 6.72 0 0 1 .18-3.34 2.58 2.58 0 0 1 1.87-1.89c1.64-.3 3.29 1.54 3.78 4.17.47 2.63-.43 4.93-2.06 5.23a2 2 0 0 1-.35.03zm-1-8.32h-.16c-.41.08-.78.5-1 1.15a5.48 5.48 0 0 0-.13 2.76c.38 2.11 1.59 3.4 2.44 3.25s1.51-1.8 1.13-3.91-1.47-3.25-2.3-3.25z"/><path d="M113.46 72.55c2.58-.83 3.71-1.14 4.88-1.46 1.8-.51 6.28.47 8.47 2.61 2 2 2.49 5.13-3 8s-8.2 4.37-10.54 5.22c-3.46 1.27-10-3.74-3-7.15s13.7-5.89 15-5.76 3.11 2.77.19 5.11A56.29 56.29 0 0 1 113 85.78c-1.69.4-5.76-1.66-3.44-3.76 3.41-3.08 13.83-6.32 15.08-6.78s7.1.56 3 5-15.52 8.69-17.27 9.76" stroke="#3b4863" stroke-linecap="round" stroke-width="1.21" fill="none" stroke-miterlimit="10"/><path stroke-width="1.95" stroke="#3b4863" stroke-linecap="round" fill="none" stroke-miterlimit="10" d="M110.41 90.05L107 91.76"/></svg>