<svg id="Calque_1" data-name="Calque 1" xmlns="http://www.w3.org/2000/svg" viewBox="0 0 140 120"><defs><style>.cls-1{fill:#3b4863}.cls-4{fill:#39a14f}</style></defs><path class="cls-1" d="M46.21 32a7.65 7.65 0 0 1 1.51-3.11A6.55 6.55 0 0 1 54.54 27l-.31 1a5.46 5.46 0 0 0-5.7 1.57 6.4 6.4 0 0 0-1.27 2.62z"/><path d="M98.83 24.34l-22.45 1.12a11.58 11.58 0 1 0 .48 7.54l8-.31 1.93-1.76 2.32.93 2-1.45 1.19.82 1-.87 2.51 1.83 2-2.12 2 .79 2.19-3.47zm-39.77 8.8a2.32 2.32 0 1 1 2.2-2.43 2.31 2.31 0 0 1-2.2 2.43z" fill="#8991a1"/><path fill="none" stroke="#fff" stroke-linecap="round" stroke-miterlimit="10" stroke-width="1.16" d="M78.34 27.95l17.12-.86"/><path class="cls-4" d="M58 55.28a1 1 0 0 1-.29-.42l-7.13-19.68-20.39-4a1 1 0 0 1-.8-1.19 1 1 0 0 1 1.19-.81l21.51 4.22 7.57 20.75A1 1 0 0 1 58 55.28z"/><path d="M55.82 53.25L43 68.22a1.21 1.21 0 0 1-1.27.37 1.22 1.22 0 0 1-.43-.24l-22-18.81a1.21 1.21 0 0 1-.14-1.71L32 32.86l17.63 3.44s5.94 16.7 6.19 16.95z" fill="#ced1d8"/><path class="cls-1" d="M48.73 38.17a.53.53 0 0 1 .69-.81 5.37 5.37 0 0 0 7.58-.48 5 5 0 0 0 .1-6.73.53.53 0 0 1 .06-.75.54.54 0 0 1 .75.06 6.1 6.1 0 0 1-.1 8.11 6.43 6.43 0 0 1-9.08.6z"/><path class="cls-4" d="M71.46 82.3c-8.53-2.14-18.21-3-22-3.79s-5.69-7.59 1.54-6.83 19.72-.19 22.76-.57 16.31 6.26 20.86 7.4 4.17 17.06 4.17 17.06-25 6.07-27.69 6.07-20.19-1.53-24-4.94C44.92 94.74 35 84.18 35 84.18c-1.56-2.73-14.32-14.4-9.83-16.44 6.26-2.84 12.42 6.17 18.21 9.42 0 0 7.93 5.22 9.64 6.45 0 0 14.41 2.28 17.45 2.66s5.53-2.83.99-3.97z"/><path class="cls-1" d="M98.77 95.57s.41-15.9-4.17-17.06c-.19-3.8 20.29-6.45 20.29-6.45s9.55 11.63 5 21.84c-1.3 2.81-22.89 4.17-21.12 1.67z"/></svg>