<svg id="Calque_1" data-name="Calque 1" xmlns="http://www.w3.org/2000/svg" viewBox="0 0 140 120"><defs><style>.cls-2{fill:#c0c4cd}.cls-3{fill:#8a91a1}</style></defs><path d="M70.67 41.33V27.55c0-1.41 4.35-2.11 4.4.54v1.52" fill="none" stroke="#8a91a1" stroke-linecap="round" stroke-miterlimit="10" stroke-width="2.13"/><path class="cls-2" d="M64.26 48.93h11.48v54.43H64.26z"/><rect class="cls-3" x="66.7" y="36.25" width="2.47" height="3.83" rx="1.24"/><rect class="cls-3" x="72.06" y="36.25" width="2.47" height="3.83" rx="1.24"/><path class="cls-2" d="M75.32 52.05H65.11c-3.15 0-18.29-4.26-18.29-7.41 0-3.15 7.2-5.7 10.35-5.7H84c3.15 0 9.22 2.55 9.22 5.7-.04 3.15-14.75 7.41-17.9 7.41z"/><path d="M75 31.6s-1.63 3-.27 3.25c1.21.26 1.7-.65.27-3.25zm-4.79 8.68H56.75c-1.14 0-5.81 2.13-5.81 2.55s35.71.29 37.13.29-1.84-2.69-3-2.84-14.86 0-14.86 0z" fill="#1887c9"/></svg>