<svg id="Calque_1" data-name="Calque 1" xmlns="http://www.w3.org/2000/svg" viewBox="0 0 140 120"><defs><style>.cls-2{fill:#fff}</style></defs><path d="M81.37 36.87c-.22-.1-25.69-15.32-25.69-15.32L31.09 36.19v65.46a2 2 0 0 0 2 2h47.83a2 2 0 0 0 .79-.16h.05a2 2 0 0 0 1.18-1.84V37.19a4 4 0 0 1-1.57-.32zm-20.29 64.78H49.74V76.42h11.34z" fill="#ced1d8"/><path class="cls-2" d="M49.74 76.42h11.34v25.23H49.74z"/><path d="M112 29.1v62.37c0 1.12-.53 1.59-2 2l-28.26 10a2 2 0 0 0 1.18-1.83V37.19a4.1 4.1 0 0 0 1.1-.14z" fill="#c0c4cd"/><path d="M114.15 22.64L85.23 8.76a2.1 2.1 0 0 0-1.33-.15l-26 5.59a2.36 2.36 0 0 0-.8.25L25.5 33.26a1.69 1.69 0 0 0 .85 3.14 1.73 1.73 0 0 0 .87-.24L33 32.72l22.67-13.51 26.15 15.62a1.93 1.93 0 0 0 1.12.35 2.15 2.15 0 0 0 .56-.07L112 27l1.78-.5a2.06 2.06 0 0 0 1.51-1.81 2.09 2.09 0 0 0-1.14-2.05z" fill="#39a24f"/><path class="cls-2" d="M49.74 76.42h11.34v25.23H49.74z"/><ellipse cx="59.14" cy="89.04" rx="1.37" ry=".68" fill="#3b4863"/><path class="cls-2" d="M94.26 87.29l-6.88 2.19V75.62l6.88-1.88v13.55zm12.57-4.02l-6.53 2.17.03-13.5 6.5-2.15v13.48z"/><circle class="cls-2" cx="55.43" cy="63.32" r="4.74"/><circle class="cls-2" cx="55.43" cy="45.14" r="4.74"/><path class="cls-2" d="M94.26 69.53l-6.88 2.19V57.87l6.88-1.88v13.54zm12.57-4.02l-6.53 2.17.03-13.5 6.5-2.15v13.48zM94.26 51.78l-6.88 2.19V40.12l6.88-1.89v13.55zm12.57-4.02l-6.53 2.17.03-13.5 6.5-2.15v13.48z"/></svg>