<svg id="Calque_1" data-name="Calque 1" xmlns="http://www.w3.org/2000/svg" viewBox="0 0 140 120"><defs><style>.cls-1{fill:#74f0a7}.cls-2{fill:#8a91a1}</style></defs><path class="cls-1" d="M42.13 16.32a25.81 25.81 0 0 0-22.44 41 41.1 41.1 0 0 1 5.86 11.28 39.61 39.61 0 0 1 2.05 12.56h25.75v-.26a40.45 40.45 0 0 1 8-23.69 25.65 25.65 0 0 0 4.91-15.72 25.94 25.94 0 0 0-24.13-25.17zm12.35 25.49c-.45.51-1 2.71-1.26 4-.75 3.2-1.38 6-3.53 6s-2.8-2.78-3.53-6a23 23 0 0 0-1.09-3.76A23 23 0 0 0 44 45.86c-.73 3.2-1.36 6-3.51 6s-2.78-2.76-3.53-6a21.16 21.16 0 0 0-1.08-3.76 22.08 22.08 0 0 0-1.07 3.76c-.75 3.2-1.38 6-3.53 6s-2.78-2.78-3.53-6a15.31 15.31 0 0 0-1.26-4 1.27 1.27 0 0 1-1.07-1.25 1.25 1.25 0 0 1 1.25-1.24c2.16 0 2.79 2.76 3.52 6a22.81 22.81 0 0 0 1.09 3.75 21.07 21.07 0 0 0 1.07-3.75c.75-3.22 1.38-6 3.53-6s2.78 2.76 3.53 6a21 21 0 0 0 1.08 3.75 22 22 0 0 0 1.07-3.75c.75-3.22 1.38-6 3.53-6s2.8 2.76 3.53 6a21.13 21.13 0 0 0 1.09 3.76 23 23 0 0 0 1.07-3.76c.75-3.22 1.38-6 3.53-6a1.25 1.25 0 0 1 1.26 1.24 1.27 1.27 0 0 1-1.09 1.2z"/><rect class="cls-2" x="27.31" y="83.86" width="26.04" height="6.35" rx="2.62"/><rect class="cls-2" x="27.31" y="92.2" width="26.04" height="6.35" rx="2.62"/><rect class="cls-1" x="32.62" y="100.59" width="15.7" height="3.96" rx="1.87"/><path d="M125.3 40.69a25.56 25.56 0 0 1-4.9 15.7 40.42 40.42 0 0 0-8 23.69v.27H86.65a39.61 39.61 0 0 0-2.05-12.54 40.87 40.87 0 0 0-5.86-11.29 25.61 25.61 0 0 1-5-15.26v-1.17h51.5c.05.2.06.4.06.6z" fill="#d8dae0"/><path class="cls-1" d="M125.28 40.09h-51.5a25.78 25.78 0 0 1 51.5 0z"/><rect class="cls-2" x="86.35" y="83.05" width="26.04" height="6.35" rx="2.62"/><rect class="cls-2" x="86.35" y="91.39" width="26.04" height="6.35" rx="2.62"/><rect class="cls-1" x="91.67" y="99.78" width="15.7" height="3.96" rx="1.87"/></svg>