<svg id="Calque_1" data-name="Calque 1" xmlns="http://www.w3.org/2000/svg" viewBox="0 0 140 120"><defs><style>.cls-4{fill:#74f0a7}.cls-5{fill:none;stroke-miterlimit:10;stroke-linecap:round;stroke:#3b4863;stroke-width:3.42px}</style></defs><rect x="37" y="19.29" width="66" height="76.52" rx="1.49" fill="#3b4863"/><path fill="#636d82" d="M40.78 37.97h58.43v35.18H40.78z"/><path fill="#fcca81" d="M89.91 73.15H49.87l.25-4.06 11.54 1.15-14.65-3.55 1.8-4.73 23.34 7.75 21.36-4.69.53 3.93-13.37 2.98 13.17-2.18-.06 3.53-3.87-.13z"/><path class="cls-4" d="M78 57.75A1.36 1.36 0 0 1 78 59c-.33.61-.75 0-.37-2.26.56-3.34-2.84-4.17-2.84-4.17 2.78 2.31.76 3.72.3 2.67s-1.74-1.56-3-3.65a7.72 7.72 0 0 1-1-4.66c-2.32 1.2-3.53 6.64-1.72 11.23s-.78 4.88-.69 3.54-2.07-2.17-2.07-2.17c.61 1.8-.94 5 0 7.54s5.61 3 6.81 2.9c5.19-.34 5.09-3.73 4.55-4.89s-.41-4.14.46-5.2-.43-2.13-.43-2.13zm-2.87 4.13a7 7 0 0 0-.29 3.79c.17.82.08 2.6-2.3 2.53-1.45 0-2.88-2.33-1.64-3.59a6.68 6.68 0 0 0 .94-8.24s2.42 1.85 2.33 3 .84.41.67-.82a4.57 4.57 0 0 1 .3 3.33z"/><path class="cls-4" d="M68.46 57.75a1.36 1.36 0 0 1 0 1.23c-.33.61-.75 0-.37-2.26.56-3.34-2.84-4.17-2.84-4.17 2.79 2.31.76 3.72.3 2.67s-1.74-1.56-3-3.65a7.72 7.72 0 0 1-1-4.66c-2.32 1.2-3.53 6.64-1.72 11.23s-.77 4.88-.69 3.54-2.07-2.17-2.07-2.17c.61 1.8-.94 5 0 7.54s5.61 3 6.81 2.9c5.19-.34 5.09-3.73 4.55-4.89s-.41-4.14.46-5.2-.43-2.11-.43-2.11zm-2.87 4.13a7 7 0 0 0-.29 3.79c.17.82.08 2.6-2.29 2.53-1.46 0-2.89-2.33-1.64-3.59a6.7 6.7 0 0 0 .93-8.24s2.42 1.85 2.33 3 .84.41.67-.82a4.57 4.57 0 0 1 .29 3.33zm22.09-4.13a1.36 1.36 0 0 1 0 1.23c-.33.61-.75 0-.37-2.26.56-3.34-2.84-4.17-2.84-4.17 2.79 2.31.76 3.72.3 2.67s-1.74-1.56-3-3.65a7.72 7.72 0 0 1-1-4.66c-2.32 1.2-3.53 6.64-1.72 11.23s-.77 4.88-.69 3.54-2.07-2.17-2.07-2.17c.61 1.8-.94 5 0 7.54s5.61 3 6.81 2.9c5.19-.34 5.09-3.73 4.55-4.89s-.41-4.14.46-5.2-.43-2.11-.43-2.11zm-2.87 4.13a7 7 0 0 0-.29 3.79c.17.82.08 2.6-2.29 2.53-1.46 0-2.89-2.33-1.65-3.59a6.68 6.68 0 0 0 .94-8.24s2.42 1.85 2.33 3 .84.41.67-.82a4.57 4.57 0 0 1 .29 3.33z"/><path class="cls-5" d="M44.62 100.71l10.97-7.26h28.82"/><path class="cls-5" d="M95.39 100.71l-10.98-7.26H55.59"/><rect x="40.67" y="78.71" width="58.67" height="11.97" rx="1.97" stroke="#636d82" stroke-width=".37" stroke-miterlimit="10" fill="#3b4863"/><path d="M41.84 24.91h55.84m-55.84 1.94h55.84" stroke="#636d82" stroke-width=".37" fill="none" stroke-miterlimit="10"/></svg>